<?xml version="1.0" standalone="no"?>
<!DOCTYPE svg PUBLIC "-//W3C//DTD SVG 1.1//EN" "http://www.w3.org/Graphics/SVG/1.1/DTD/svg11.dtd" >
<svg xmlns="http://www.w3.org/2000/svg" xmlns:xlink="http://www.w3.org/1999/xlink" version="1.1">
<metadata>
Created by FontForge 20171206 at Tue Aug 17 14:39:56 2021
 By fw_worker
</metadata>
<defs>
<font id="KBFGDisplay-MediumA1" horiz-adv-x="900" vert-adv-y="1000" >
  <font-face 
    font-family="KBFGDisplay-MediumA1"
    font-weight="500"
    font-stretch="normal"
    units-per-em="1000"
    panose-1="2 0 6 3 0 0 0 0 0 0"
    ascent="800"
    descent="-200"
    x-height="540"
    cap-height="752"
    bbox="-14 -286 1049 997"
    underline-thickness="50"
    underline-position="-150"
    unicode-range="U+0001-FFE6"
  />
<missing-glyph 
d="M50 -120v1000h800v-1000h-800zM450 421l318 409h-636zM482 380l318 -409v818zM132 -70h636l-318 409zM100 789v-818l318 409z" />
    <glyph glyph-name=".notdef" 
d="M50 -120v1000h800v-1000h-800zM450 421l318 409h-636zM482 380l318 -409v818zM132 -70h636l-318 409zM100 789v-818l318 409z" />
    <glyph glyph-name=".null" horiz-adv-x="0" vert-adv-y="0" 
 />
    <glyph glyph-name="nonmarkingreturn" horiz-adv-x="333" 
 />
    <glyph glyph-name="Korea1.1" horiz-adv-x="280" 
 />
    <glyph glyph-name="Korea1.2" unicode="!" horiz-adv-x="290" 
d="M207 780h-124l18 -613h88zM69 12q0 -34 21.5 -54.5t53.5 -20.5t53.5 20.5t21.5 54.5t-21.5 54.5t-53.5 20.5t-53.5 -20.5t-21.5 -54.5z" />
    <glyph glyph-name="Korea1.3" unicode="&#x22;" horiz-adv-x="360" 
d="M68 757l10 -176h56l13 176v73h-79v-73zM213 757l10 -176h56l13 176v73h-79v-73z" />
    <glyph glyph-name="Korea1.4" unicode="#" horiz-adv-x="660" 
d="M600 293h-93l21 146h102v81h-91l30 212h-100l-30 -212h-169l30 212h-100l-30 -212h-112v-81h101l-21 -146h-108v-81h97l-30 -212h100l30 212h169l-30 -212h100l30 212h104v81zM238 293l21 146h169l-21 -146h-169z" />
    <glyph glyph-name="Korea1.5" unicode="$" horiz-adv-x="540" 
d="M307 -79v86q92 13 142 61t50 128q0 65 -32.5 104.5t-101.5 82.5q-47 28 -58 34v230q40 -2 149 -18l11 69q-91 24 -160 29v84h-69v-84q-88 -6 -138 -48t-50 -122q0 -89 95 -153q35 -23 93 -54v-265q-77 0 -179 26l-12 -70q96 -38 190 -38h1v-82h69zM388 194
q0 -77 -81 -101v217h1q44 -27 62 -52.5t18 -63.5zM161 559q0 69 77 85v-188q-9 4 -17 11q-60 39 -60 92z" />
    <glyph glyph-name="Korea1.6" unicode="%" horiz-adv-x="840" 
d="M564 752l-394 -732h98l394 732h-98zM29 591q0 -75 53.5 -124.5t130.5 -49.5t130.5 49.5t53.5 124.5t-53.5 124.5t-130.5 49.5t-130.5 -49.5t-53.5 -124.5zM128 591q0 48 22.5 79t62.5 31t62.5 -31t22.5 -79t-22.5 -79t-62.5 -31t-62.5 31t-22.5 79zM442 181
q0 -75 53.5 -124.5t130.5 -49.5t130.5 49.5t53.5 124.5t-53.5 124.5t-130.5 49.5t-130.5 -49.5t-53.5 -124.5zM541 181q0 48 22.5 79t62.5 31t62.5 -31t22.5 -79t-22.5 -79t-62.5 -31t-62.5 31t-22.5 79z" />
    <glyph glyph-name="Korea1.7" unicode="&#x26;" horiz-adv-x="640" 
d="M88 628q0 -55 49 -126l28 -41q-150 -112 -150 -262q0 -91 64.5 -153.5t179.5 -62.5q60 0 117.5 24.5t93.5 61.5q60 -55 151 -72l29 52q-82 39 -123 91q65 110 81 243h-87q-18 -94 -53 -169l-242 329q-35 48 -35 86q0 59 90 59q63 0 159 -17l11 69q-108 29 -174 29
q-189 0 -189 -141zM219 391l191 -255q-62 -73 -152 -73q-70 0 -107 41t-37 97q0 54 30 105.5t75 84.5z" />
    <glyph glyph-name="Korea1.8" unicode="'" horiz-adv-x="221" 
d="M68 757l10 -176h61l13 176v73h-84v-73z" />
    <glyph glyph-name="Korea1.9" unicode="(" horiz-adv-x="300" 
d="M146 364q0 117 35 243t101 211l-62 43q-58 -47 -100 -138.5t-59.5 -183.5t-17.5 -175q0 -81 16.5 -174.5t59 -190.5t101.5 -147l62 43q-63 75 -99.5 213.5t-36.5 255.5z" />
    <glyph glyph-name="Korea1.10" unicode=")" horiz-adv-x="300" 
d="M154 364q0 -117 -36.5 -255.5t-99.5 -213.5l62 -43q59 50 101.5 147t59 190.5t16.5 174.5q0 83 -17.5 175t-59.5 183.5t-100 138.5l-62 -43q66 -85 101 -211t35 -243z" />
    <glyph glyph-name="Korea1.11" unicode="*" horiz-adv-x="510" 
d="M283 343l16 148l141 -87l31 47l-141 112l141 108l-31 47l-141 -87l-16 152h-60l-11 -150l-141 87l-31 -47l141 -108l-141 -112l31 -47l141 87l11 -150h60z" />
    <glyph glyph-name="Korea1.12" unicode="+" horiz-adv-x="580" 
d="M54 440v-83h185v-236h101v236h186v83h-186v235h-101v-235h-185z" />
    <glyph glyph-name="Korea1.13" unicode="," horiz-adv-x="275" 
d="M66 32q0 -31 19.5 -52t53.5 -23q0 -65 -91 -97l12 -45q70 10 115.5 56.5t45.5 136.5q0 47 -21.5 73t-58.5 26q-32 0 -53.5 -20.5t-21.5 -54.5z" />
    <glyph glyph-name="Korea1.14" unicode="-" horiz-adv-x="510" 
d="M54 440v-83h402v83h-402z" />
    <glyph glyph-name="Korea1.15" unicode="." horiz-adv-x="275" 
d="M66 32q0 -34 21.5 -54.5t53.5 -20.5t53.5 20.5t21.5 54.5t-21.5 54.5t-53.5 20.5t-53.5 -20.5t-21.5 -54.5z" />
    <glyph glyph-name="Korea1.16" unicode="/" horiz-adv-x="380" 
d="M4 -80h100l273 918h-99z" />
    <glyph glyph-name="Korea1.17" unicode="0" horiz-adv-x="590" 
d="M439 376q0 -149 -31.5 -228t-112.5 -79t-112.5 79t-31.5 228t31.5 228t112.5 79t112.5 -79t31.5 -228zM550 376q0 393 -255 393t-255 -393t255 -393t255 393z" />
    <glyph glyph-name="Korea1.18" unicode="1" horiz-adv-x="590" 
d="M535 0v85h-155v667h-77q-72 -42 -198 -86l22 -69q87 20 140 44v-556h-174v-85h442z" />
    <glyph glyph-name="Korea1.19" unicode="2" horiz-adv-x="590" 
d="M174 84v16l169 180q8 9 37 39.5t41.5 44.5t35 43t33 50.5t19.5 50.5t9 58q0 92 -61.5 147.5t-176.5 55.5q-97 0 -206 -43l17 -75q128 32 185 32q64 0 96.5 -30t32.5 -83q0 -28 -11 -56.5t-32.5 -58t-40 -50.5t-48 -52t-41.5 -44l-135 -144q-21 -22 -28.5 -38.5
t-7.5 -45.5v-81h464v84h-351z" />
    <glyph glyph-name="Korea1.20" unicode="3" horiz-adv-x="590" 
d="M229 70q-85 0 -167 28l-19 -77q37 -16 92.5 -27t96.5 -11q135 0 215.5 68.5t80.5 178.5q0 98 -66.5 163t-164.5 68l196 261l-32 30h-374v-85h250l-194 -255l42 -34q45 9 69 9q73 0 117 -42.5t44 -115.5q0 -74 -52 -116.5t-134 -42.5z" />
    <glyph glyph-name="Korea1.21" unicode="4" horiz-adv-x="590" 
d="M464 280v472h-170l-255 -446q-17 -28 -17 -51v-59h332v-196h110v196h94v84h-94zM354 653v-373h-213l211 373h2z" />
    <glyph glyph-name="Korea1.22" unicode="5" horiz-adv-x="590" 
d="M108 752v-341l35 -25q50 14 100 14q175 0 175 -166q0 -77 -49.5 -120.5t-132.5 -43.5q-79 0 -161 28l-19 -77q89 -38 181 -38q134 0 214 70t80 181q0 113 -72.5 180.5t-182.5 67.5q-29 0 -56 -3v188h247v85h-359z" />
    <glyph glyph-name="Korea1.23" unicode="6" horiz-adv-x="590" 
d="M480 704l-6 66q-84 6 -169 -20.5t-143 -82.5q-64 -61 -89 -152.5t-25 -216.5q0 -138 65 -226.5t191 -88.5q116 0 182.5 75t66.5 188q0 116 -61.5 183.5t-170.5 67.5q-97 0 -158 -64q14 116 74 176q45 45 102.5 66.5t140.5 28.5zM304 69q-72 0 -112 61.5t-40 145.5
q0 41 13 61q21 32 57 53.5t82 21.5q73 0 105.5 -41.5t32.5 -124.5q0 -73 -33.5 -125t-104.5 -52z" />
    <glyph glyph-name="Korea1.24" unicode="7" horiz-adv-x="590" 
d="M534 731l-24 21h-448v-85h330l-244 -667h118z" />
    <glyph glyph-name="Korea1.25" unicode="8" horiz-adv-x="590" 
d="M295 67q-66 0 -105 39t-39 98t39 107.5t107 73.5q65 -25 103.5 -73.5t38.5 -107.5t-39 -98t-105 -39zM294 450q-53 10 -83.5 43t-30.5 79q0 49 31.5 81t84.5 32q52 0 83 -32t31 -81q0 -46 -31.5 -79t-84.5 -43zM294 -17q112 0 184 61.5t72 159.5q0 139 -134 209
q46 24 74.5 68t28.5 99q0 84 -65.5 136.5t-158.5 52.5t-158.5 -52.5t-65.5 -136.5q0 -109 103 -167q-134 -70 -134 -209q0 -98 72 -159.5t182 -61.5z" />
    <glyph glyph-name="Korea1.26" unicode="9" horiz-adv-x="590" 
d="M176 51l26 -68q340 59 340 489q0 129 -65.5 213t-192.5 84q-114 0 -180.5 -74.5t-66.5 -189.5q0 -114 63.5 -181.5t168.5 -67.5q43 0 88 18.5t70 48.5q-23 -202 -251 -272zM284 683q75 0 115.5 -55.5t38.5 -138.5q0 -41 -12 -62q-52 -86 -144 -86q-134 0 -134 164
q0 80 36 129t100 49z" />
    <glyph glyph-name="Korea1.27" unicode=":" horiz-adv-x="275" 
d="M66 602q0 -34 21.5 -54.5t53.5 -20.5t53.5 20.5t21.5 54.5t-21.5 54.5t-53.5 20.5t-53.5 -20.5t-21.5 -54.5zM66 152q0 -34 21.5 -54.5t53.5 -20.5t53.5 20.5t21.5 54.5t-21.5 54.5t-53.5 20.5t-53.5 -20.5t-21.5 -54.5z" />
    <glyph glyph-name="Korea1.28" unicode=";" horiz-adv-x="275" 
d="M66 152q0 -31 19.5 -52t53.5 -23q0 -65 -91 -97l12 -45q70 10 115.5 56.5t45.5 136.5q0 47 -21.5 73t-58.5 26q-32 0 -53.5 -20.5t-21.5 -54.5zM66 602q0 -34 21.5 -54.5t53.5 -20.5t53.5 20.5t21.5 54.5t-21.5 54.5t-53.5 20.5t-53.5 -20.5t-21.5 -54.5z" />
    <glyph glyph-name="Korea1.29" unicode="&#x3c;" horiz-adv-x="520" 
d="M459 612v99l-406 -288v-81l406 -289v101l-320 231z" />
    <glyph glyph-name="Korea1.30" unicode="=" horiz-adv-x="600" 
d="M89 573v-83h422v83h-422zM89 307v-83h422v83h-422z" />
    <glyph glyph-name="Korea1.31" unicode="&#x3e;" horiz-adv-x="520" 
d="M53 711v-99l320 -227l-320 -231v-101l406 289v81z" />
    <glyph glyph-name="Korea1.32" unicode="?" horiz-adv-x="465" 
d="M246 167v41q0 52 19 92.5t58 85.5q103 117 103 210q0 83 -55 138.5t-163 55.5q-82 0 -182 -58l29 -69l20 8t21 8.5t19 7.5t21.5 7t20.5 4.5t24.5 3.5t25.5 1q50 0 78 -30.5t28 -76.5q0 -68 -79 -157q-47 -54 -72 -106.5t-25 -121.5v-44h109zM116 12q0 -34 21.5 -54.5
t53.5 -20.5t53.5 20.5t21.5 54.5t-21.5 54.5t-53.5 20.5t-53.5 -20.5t-21.5 -54.5z" />
    <glyph glyph-name="Korea1.33" unicode="@" horiz-adv-x="1000" 
d="M621 505l-40 -265q-60 -37 -126 -37q-90 0 -90 106t44 165t121 59q53 0 91 -28zM566 -82l13 54q-427 31 -427 382q0 171 100 283.5t258 112.5q167 0 255 -90t88 -242q0 -31 -8.5 -68t-25 -75t-47 -63t-68.5 -25q-21 0 -31.5 8t-10 19t1.5 23l50 297q-37 32 -86.5 51.5
t-95.5 19.5q-121 0 -188 -81.5t-67 -213.5q0 -86 45 -132t130 -46q34 0 74.5 14.5t67.5 35.5q27 -59 104 -59q115 0 179.5 86.5t64.5 209.5q0 182 -117.5 288t-314.5 106q-189 0 -318 -131t-129 -328q0 -201 136.5 -317.5t366.5 -118.5z" />
    <glyph glyph-name="Korea1.34" unicode="A" horiz-adv-x="700" 
d="M132 0q9 27 32.5 105t37.5 118h295q14 -41 38.5 -121t31.5 -102h116q-153 498 -286 752h-95q-132 -252 -286 -752h116zM349 626q16 -35 33 -79.5t28 -76t29 -85.5t27 -78h-233q85 250 116 319z" />
    <glyph glyph-name="Korea1.35" unicode="B" horiz-adv-x="610" 
d="M443 413q43 18 71.5 61t28.5 97q0 93 -70.5 145.5t-183.5 52.5q-94 0 -218 -50v-705q112 -19 214 -19q150 0 222 61.5t72 168.5q0 71 -38 122t-98 66zM463 228q0 -76 -44 -111t-119 -35q-58 0 -117 8v271h115q68 0 116.5 -34t48.5 -99zM279 445h-96v219q57 19 108 19
q55 0 95.5 -31.5t40.5 -84.5q0 -55 -43 -88.5t-105 -33.5z" />
    <glyph glyph-name="Korea1.36" unicode="C" horiz-adv-x="660" 
d="M386 682q75 0 189 -30l17 76q-123 41 -207 41q-165 0 -256.5 -106t-91.5 -272q0 -90 19.5 -161.5t61 -128t114 -87.5t170.5 -31q96 0 212 49l-19 74q-124 -36 -190 -36q-252 0 -252 319q0 131 62.5 212t170.5 81z" />
    <glyph glyph-name="Korea1.37" unicode="D" horiz-adv-x="725" 
d="M71 713v-699q129 -19 249 -19q182 0 275 99t93 283t-94 288t-274 104q-98 0 -249 -56zM183 90v566q76 26 137 26q130 0 191 -81.5t61 -224.5q0 -294 -252 -294q-76 0 -137 8z" />
    <glyph glyph-name="Korea1.38" unicode="E" horiz-adv-x="560" 
d="M518 16v71h-265q-68 0 -68 57v208h304v84h-304v232h320v84h-434v-609q0 -148 183 -143q145 2 264 16z" />
    <glyph glyph-name="Korea1.39" unicode="F" horiz-adv-x="535" 
d="M185 0v358q45 9 78 9h216v84h-199q-54 0 -95 -18v235h310v84h-424v-752h114z" />
    <glyph glyph-name="Korea1.40" unicode="G" horiz-adv-x="700" 
d="M385 682q16 0 30.5 -0.5t30.5 -2.5t24.5 -3.5t27 -5.5t23.5 -5t27 -6.5l26 -6.5l17 76q-2 1 -27 9t-32.5 10t-30.5 7.5t-37.5 8t-36.5 4.5t-43 2q-165 0 -256 -106t-91 -272q0 -90 19.5 -161.5t61 -128t113.5 -87.5t170 -31q108 0 233 58v335h-112v-290q-65 -16 -118 -16
q-251 0 -251 319q0 131 62 212t170 81z" />
    <glyph glyph-name="Korea1.41" unicode="H" horiz-adv-x="700" 
d="M183 445v307h-112v-752h112v358h334v-358h112v752h-112v-307h-334z" />
    <glyph glyph-name="Korea1.42" unicode="I" horiz-adv-x="270" 
d="M191 0v752h-113v-752h113z" />
    <glyph glyph-name="Korea1.43" unicode="J" horiz-adv-x="425" 
d="M130 73q-41 0 -108 12v-84q45 -17 113 -17q108 0 163.5 63t55.5 170v535h-114v-530q0 -71 -28.5 -110t-81.5 -39z" />
    <glyph glyph-name="Korea1.44" unicode="K" horiz-adv-x="645" 
d="M183 0v752h-112v-752h112zM195 404l320 -404h136l-319 402q137 159 272 350h-129q-88 -128 -280 -348z" />
    <glyph glyph-name="Korea1.45" unicode="L" horiz-adv-x="545" 
d="M185 752h-114v-609q0 -148 183 -143q133 2 254 16v72h-255q-68 0 -68 55v609z" />
    <glyph glyph-name="Korea1.46" unicode="M" horiz-adv-x="890" 
d="M602 752l-161 -575h-1q-64 350 -196 575h-122l-111 -752h109l88 593q98 -189 168 -563h124l158 558q32 -94 58.5 -273t35.5 -315h107q-26 435 -141 752h-116z" />
    <glyph glyph-name="Korea1.47" unicode="N" horiz-adv-x="715" 
d="M506 0h138v752h-112v-577q-60 141 -153 302t-174 275h-134v-752h112v594q152 -212 323 -594z" />
    <glyph glyph-name="Korea1.48" unicode="O" horiz-adv-x="720" 
d="M153 375q0 147 54 227.5t153 80.5t153 -80.5t54 -227.5t-54 -226.5t-153 -79.5t-153 79.5t-54 226.5zM683 375q0 182 -85 288t-238 106t-238 -106t-85 -288t84.5 -287t238.5 -105t238.5 105t84.5 287z" />
    <glyph glyph-name="Korea1.49" unicode="P" horiz-adv-x="615" 
d="M71 0h113v267q70 -17 124 -17q119 0 189.5 73t70.5 184q0 122 -76 192t-185 70q-87 0 -236 -49v-720zM456 512q0 -75 -39.5 -124.5t-113.5 -49.5q-59 0 -119 18v309q81 18 121 18q67 0 109 -48.5t42 -122.5z" />
    <glyph glyph-name="Korea1.50" unicode="Q" horiz-adv-x="720" 
d="M499 -50l-37 48q106 32 163.5 131t57.5 247q0 182 -85 287.5t-238 105.5t-238 -105.5t-85 -287.5q0 -174 78 -278.5t220 -113.5l97 -105q34 -37 74 -51t97 -21l19 52q-82 39 -123 91zM153 376q0 147 54 227t153 80t153 -80t54 -227t-54 -227t-153 -80t-153 80t-54 227z
" />
    <glyph glyph-name="Korea1.51" unicode="R" horiz-adv-x="605" 
d="M484 0h116q-88 229 -175 327q57 28 89.5 81.5t32.5 118.5q0 121 -73 181.5t-185 60.5q-95 0 -218 -49v-720h113v300h105q29 0 48 -19q37 -42 80.5 -126.5t66.5 -154.5zM435 532q0 -70 -42 -107t-104 -37h-105v276q61 18 105 18q69 0 107.5 -38.5t38.5 -111.5z" />
    <glyph glyph-name="Korea1.52" unicode="S" horiz-adv-x="560" 
d="M65 98l-13 -77q38 -15 95 -26.5t100 -11.5q128 0 197.5 55.5t69.5 152.5q0 69 -35 117t-101 89q-145 91 -146 92q-60 46 -60 95q0 45 28.5 71t86.5 26q63 0 184 -19l11 76q-116 31 -199 31q-107 0 -167.5 -48.5t-60.5 -138.5q0 -94 96 -164q30 -21 166 -106
q43 -27 61.5 -54.5t18.5 -68.5q0 -52 -36.5 -85t-115.5 -33q-72 0 -180 27z" />
    <glyph glyph-name="Korea1.53" unicode="T" horiz-adv-x="580" 
d="M550 665v87h-521v-87h205v-665h114v665h202z" />
    <glyph glyph-name="Korea1.54" unicode="U" horiz-adv-x="695" 
d="M624 752h-112v-655q-83 -27 -171 -27q-82 0 -122.5 39t-40.5 135v508h-112v-511q0 -258 272 -258q66 0 147 22.5t139 52.5v694z" />
    <glyph glyph-name="Korea1.55" unicode="V" horiz-adv-x="670" 
d="M130 752h-118q129 -461 254 -752h131q99 131 166.5 326t93.5 426h-109q-29 -201 -82.5 -369t-124.5 -280q-107 261 -211 649z" />
    <glyph glyph-name="Korea1.56" unicode="W" horiz-adv-x="985" 
d="M493 551l134 -551h129q60 140 117 351t84 401h-115q-18 -141 -61 -318.5t-87 -292.5l-141 581h-121l-140 -579q-17 53 -33 110.5t-34 134t-27 115.5t-30 135.5t-25 113.5h-115q89 -428 197 -752h133z" />
    <glyph glyph-name="Korea1.57" unicode="X" horiz-adv-x="620" 
d="M248 389l-232 -389h124l171 290l172 -290h120l-234 391l208 361h-118l-149 -262l-149 262h-123z" />
    <glyph glyph-name="Korea1.58" unicode="Y" horiz-adv-x="610" 
d="M366 0v286q83 93 142.5 217t78.5 249h-103q-19 -102 -67 -207.5t-101 -163.5q-43 65 -94.5 170.5t-86.5 200.5h-112q45 -116 110 -243.5t124 -221.5v-287h109z" />
    <glyph glyph-name="Korea1.59" unicode="Z" horiz-adv-x="590" 
d="M41 752v-84h353q-268 -322 -371 -626v-42h548v84h-417q25 75 66.5 155t101 166t106.5 148.5t121 155.5l-20 43h-488z" />
    <glyph glyph-name="Korea1.60" unicode="[" horiz-adv-x="320" 
d="M63 844v-974h237v71h-134v832h134v71h-237z" />
    <glyph glyph-name="Korea1.61" unicode="\" horiz-adv-x="960" 
d="M31 327h115q40 -174 89 -327h126l67 327h103l67 -327h123q56 143 102 327h105v83h-86q31 142 63 342h-109q-20 -155 -61 -342h-132l-66 312h-115l-66 -312h-123q-25 115 -70 342h-109q60 -285 73 -342h-96v-83zM662 131l-42 196h96q-25 -103 -54 -196zM298 133
q-18 72 -46 194h87zM445 410l35 166l34 -166h-69z" />
    <glyph glyph-name="Korea1.62" unicode="]" horiz-adv-x="320" 
d="M257 -130v974h-237v-71h134v-832h-134v-71h237z" />
    <glyph glyph-name="Korea1.63" unicode="^" horiz-adv-x="450" 
d="M111 576l113 191l114 -191h98l-179 294h-65l-179 -294h98z" />
    <glyph glyph-name="Korea1.64" unicode="_" horiz-adv-x="450" 
d="M450 -82h-450v-83h450v83z" />
    <glyph glyph-name="Korea1.65" unicode="`" horiz-adv-x="225" 
d="M193 615l-93 215h-94l126 -215h61z" />
    <glyph glyph-name="Korea1.66" unicode="a" horiz-adv-x="555" 
d="M381 256v-174q-66 -17 -130 -17q-47 0 -76.5 29t-29.5 77t29.5 77t76.5 29q48 0 130 -21zM382 364v-33q-76 27 -140 27q-94 0 -149.5 -52t-55.5 -135t55.5 -135t149.5 -52q107 0 247 55v312q0 207 -215 207q-68 0 -171 -23l8 -69q125 10 155 10q58 0 87 -29.5t29 -82.5z
" />
    <glyph glyph-name="Korea1.67" unicode="b" horiz-adv-x="580" 
d="M71 772v-759q113 -18 235 -18q105 0 172 73.5t67 207.5q0 129 -66.5 205.5t-169.5 76.5q-55 0 -130 -30v254zM179 85v363q56 29 116 29q67 0 104.5 -56t37.5 -144q0 -91 -38.5 -145t-106.5 -54q-48 0 -113 7z" />
    <glyph glyph-name="Korea1.68" unicode="c" horiz-adv-x="510" 
d="M152 272q0 205 128 205q77 0 165 -39l24 72q-99 48 -204 48q-107 0 -165.5 -74.5t-58.5 -211.5t58.5 -212.5t165.5 -75.5q115 0 214 48l-23 71q-89 -38 -176 -38q-128 0 -128 207z" />
    <glyph glyph-name="Korea1.69" unicode="d" horiz-adv-x="580" 
d="M509 54v728l-108 -10v-244q-75 30 -131 30q-102 0 -168.5 -78.5t-66.5 -208.5q0 -133 64.5 -210t170.5 -77q80 0 239 70zM401 448v-352q-60 -29 -117 -29q-70 0 -105.5 57t-35.5 148q0 89 37 147t104 58q61 0 117 -29z" />
    <glyph glyph-name="Korea1.70" unicode="e" horiz-adv-x="530" 
d="M295 66q-45 0 -75 13.5t-45 39.5t-20.5 54t-5.5 67h344q2 49 1 77q-2 45 -12.5 83.5t-33.5 76t-69 59.5t-110 22q-232 0 -232 -289q0 -285 247 -285q86 0 187 38l-17 72q-82 -28 -159 -28zM149 321q3 77 31 116.5t89 39.5q113 0 118 -156h-238z" />
    <glyph glyph-name="Korea1.71" unicode="f" horiz-adv-x="335" 
d="M89 0h110v448h107v82h-107v73q0 49 17 74t61 25q18 0 54 -4l13 70q-41 13 -81 13q-78 0 -126 -45t-48 -129v-77h-60v-82h60v-448z" />
    <glyph glyph-name="Korea1.72" unicode="g" horiz-adv-x="580" 
d="M509 -9v497q-54 23 -82.5 34t-75.5 23.5t-82 12.5q-103 0 -168.5 -75t-65.5 -207t65.5 -207t168.5 -75q57 0 132 30v-40q0 -42 -19.5 -74.5t-47 -50.5t-70 -30.5t-75.5 -17.5t-76 -8l7 -76q389 0 389 264zM401 446v-342q-56 -29 -118 -29q-68 0 -104 52t-36 148
q0 97 37.5 148.5t102.5 51.5q62 0 118 -29z" />
    <glyph glyph-name="Korea1.73" unicode="h" horiz-adv-x="585" 
d="M71 0h108v450q83 25 135 25q50 0 73.5 -21t23.5 -81v-373h108v376q0 182 -192 182q-39 0 -148 -34v258l-108 -10v-772z" />
    <glyph glyph-name="Korea1.74" unicode="i" horiz-adv-x="265" 
d="M57 703q0 -34 21.5 -54.5t53.5 -20.5t53.5 20.5t21.5 54.5t-21.5 54.5t-53.5 20.5t-53.5 -20.5t-21.5 -54.5zM76 0h110v540h-110v-540z" />
    <glyph glyph-name="Korea1.75" unicode="j" horiz-adv-x="265" 
d="M-14 -208l52 -53q148 81 148 299v502h-110v-499q0 -77 -19 -137.5t-71 -111.5zM57 703q0 -34 21.5 -54.5t53.5 -20.5t53.5 20.5t21.5 54.5t-21.5 54.5t-53.5 20.5t-53.5 -20.5t-21.5 -54.5z" />
    <glyph glyph-name="Korea1.76" unicode="k" horiz-adv-x="520" 
d="M183 306l213 -306h120l-209 302q62 72 174 238h-114q-95 -144 -184 -234zM179 0v772l-108 -10v-762h108z" />
    <glyph glyph-name="Korea1.77" unicode="l" horiz-adv-x="285" 
d="M242 -18l26 73q-82 23 -82 112v605l-110 -10v-598q0 -84 43 -127t123 -55z" />
    <glyph glyph-name="Korea1.78" unicode="m" horiz-adv-x="895" 
d="M66 0h108v453q86 22 129 22q50 0 71.5 -21t21.5 -81v-373h108v378q0 33 -11 72q97 25 137 25q49 0 70 -21t21 -81v-373h108v376q0 182 -186 182q-78 0 -191 -39q-45 39 -136 39q-94 0 -250 -60v-498z" />
    <glyph glyph-name="Korea1.79" unicode="n" horiz-adv-x="590" 
d="M66 0h108v453q86 22 140 22q51 0 76.5 -21.5t25.5 -80.5v-373h108v376q0 87 -49 134.5t-148 47.5q-105 0 -261 -60v-498z" />
    <glyph glyph-name="Korea1.80" unicode="o" horiz-adv-x="610" 
d="M466 270q0 -96 -40.5 -152t-119.5 -56t-119.5 56t-40.5 152q0 94 42 150.5t118 56.5t118 -56.5t42 -150.5zM575 270q0 138 -73.5 213t-195.5 75q-121 0 -195 -75.5t-74 -212.5q0 -138 74 -213.5t195 -75.5q122 0 195.5 75.5t73.5 213.5z" />
    <glyph glyph-name="Korea1.81" unicode="p" horiz-adv-x="580" 
d="M71 488v-724h108v250q75 -30 132 -30q103 0 168.5 77t65.5 210q0 132 -65.5 209.5t-168.5 77.5q-77 0 -240 -70zM179 94v352q56 29 118 29q69 0 104.5 -53t35.5 -152q0 -89 -36.5 -147t-103.5 -58q-62 0 -118 29z" />
    <glyph glyph-name="Korea1.82" unicode="q" horiz-adv-x="580" 
d="M509 -236v765q-112 18 -239 18q-104 0 -169.5 -74.5t-65.5 -206.5q0 -129 66 -205.5t169 -76.5q56 0 131 30v-250h108zM401 457v-363q-56 -29 -117 -29q-67 0 -104 56t-37 144q0 89 37 144t104 55q52 0 117 -7z" />
    <glyph glyph-name="Korea1.83" unicode="r" horiz-adv-x="405" 
d="M66 0h109v436q49 31 152 31h48v83h-50q-97 0 -159 -47q-6 23 -15 37h-85v-540z" />
    <glyph glyph-name="Korea1.84" unicode="s" horiz-adv-x="465" 
d="M226 -17q97 0 151.5 41.5t54.5 113.5q0 97 -95 146l-48 24t-57.5 29t-41.5 23q-35 23 -35 57q0 61 70 61q66 0 167 -18l12 70q-106 28 -180 28q-79 0 -128.5 -39t-49.5 -102q0 -78 91 -130q20 -12 131 -67q33 -17 44 -36.5t11 -46.5q0 -34 -25.5 -54t-74.5 -20
q-67 0 -162 19l-11 -71q107 -28 176 -28z" />
    <glyph glyph-name="Korea1.85" unicode="t" horiz-adv-x="400" 
d="M218 692l-109 -11v-151h-79v-82h79v-299q0 -77 49 -122.5t122 -45.5q45 0 95 18l-14 71q-51 -7 -64 -7q-36 0 -57.5 23t-21.5 67v295h135v82h-135v162z" />
    <glyph glyph-name="Korea1.86" unicode="u" horiz-adv-x="580" 
d="M513 540h-108v-453q-82 -21 -135 -21q-51 0 -74 20t-23 79v375h-108v-375q0 -182 192 -182q100 0 256 60v497z" />
    <glyph glyph-name="Korea1.87" unicode="v" horiz-adv-x="515" 
d="M215 0h94q76 97 126 247t66 293h-99q-14 -122 -52 -242.5t-83 -187.5q-92 227 -146 430h-109q113 -378 203 -540z" />
    <glyph glyph-name="Korea1.88" unicode="w" horiz-adv-x="820" 
d="M524 0h121q105 215 149 540h-102q-34 -265 -105 -441l-115 431h-122l-115 -431q-54 145 -106 441h-102q59 -334 141 -540h131l112 420z" />
    <glyph glyph-name="Korea1.89" unicode="x" horiz-adv-x="540" 
d="M266 198l127 -198h117l-187 283l169 257h-114l-112 -174l-111 174h-114l168 -258l-186 -282h115z" />
    <glyph glyph-name="Korea1.90" unicode="y" horiz-adv-x="590" 
d="M519 -8v548h-108v-443q-82 -21 -138 -21q-51 0 -75.5 21.5t-24.5 80.5v362h-108v-365q0 -88 48.5 -135t146.5 -47q56 0 151 28v-36q0 -42 -19 -74.5t-45.5 -51t-68 -31t-74 -17.5t-75.5 -8l8 -76q382 0 382 265z" />
    <glyph glyph-name="Korea1.91" unicode="z" horiz-adv-x="460" 
d="M431 0v84h-284q70 163 265 414l-20 42h-355v-83h237q-77 -95 -145 -208t-102 -208v-41h404z" />
    <glyph glyph-name="Korea1.92" unicode="{" horiz-adv-x="300" 
d="M171 301l-62 55v11l62 55q30 26 30 63v216q0 42 24 71t60 31v42q-83 0 -135 -41.5t-52 -96.5v-222q0 -36 -31 -63l-52 -45v-31l52 -45q31 -27 31 -63v-231q0 -55 52 -96.5t135 -41.5v42q-36 2 -60 31t-24 71v225q0 37 -30 63z" />
    <glyph glyph-name="Korea1.93" unicode="|" horiz-adv-x="280" 
d="M95 812v-902h90v902h-90z" />
    <glyph glyph-name="Korea1.94" unicode="}" horiz-adv-x="300" 
d="M191 356l-62 -55q-30 -26 -30 -63v-225q0 -42 -24 -71t-60 -31v-42q83 0 135 41.5t52 96.5v231q0 36 31 63l52 45v31l-52 45q-31 27 -31 63v222q0 55 -52 96.5t-135 41.5v-42q36 -2 60 -31t24 -71v-216q0 -37 30 -63l62 -55v-11z" />
    <glyph glyph-name="Korea1.95" unicode="~" horiz-adv-x="600" 
d="M558 451l-54 38q-41 -64 -92 -64q-6 0 -12.5 1t-11.5 2.5t-13 5t-12 5t-13.5 6.5t-13 7l-14 8t-13.5 8q-76 43 -126 43q-48 0 -87.5 -35.5t-60.5 -87.5l56 -30q54 70 102 70q25 0 99 -39q1 0 15 -8t18 -9.5t17 -8t20 -9t18.5 -6t21 -5t19.5 -1.5q86 0 137 109z" />
    <glyph glyph-name="Korea1.96" unicode="&#x20a9;" 
 />
    <glyph glyph-name="Korea1.97" unicode="&#x2010;" 
 />
    <glyph glyph-name="Korea1.98" unicode="&#xa9;" 
d="M465 522q41 0 115 -19l11 64q-73 26 -126 26q-96 0 -149.5 -62t-53.5 -158q0 -107 50.5 -170.5t162.5 -63.5q62 0 129 31l-13 62q-66 -24 -115 -24q-68 0 -95.5 41.5t-27.5 123.5q0 149 112 149zM112 367q0 147 97.5 244.5t239.5 97.5q143 0 240.5 -97.5t97.5 -244.5
q0 -148 -97.5 -246.5t-240.5 -98.5q-142 0 -239.5 98.5t-97.5 246.5zM859 367q0 167 -120.5 284.5t-289.5 117.5q-170 0 -289.5 -117.5t-119.5 -284.5q0 -169 119.5 -286.5t289.5 -117.5q169 0 289.5 118t120.5 286z" />
    <glyph glyph-name="Korea1.99" 
 />
    <glyph glyph-name="Korea1.100" 
 />
    <glyph glyph-name="Korea1.101" unicode="&#x3000;" horiz-adv-x="1000" 
 />
    <glyph glyph-name="Korea1.102" unicode="&#x3001;" horiz-adv-x="390" 
d="M106 163l-65 -68q132 -93 212 -205l90 103q-131 127 -237 170z" />
    <glyph glyph-name="Korea1.103" unicode="&#x3002;" horiz-adv-x="370" 
d="M184 101q-50 0 -84.5 -32.5t-34.5 -79.5t34.5 -79t84.5 -32t85 32t35 79t-35 79.5t-85 32.5zM184 32q19 0 30.5 -12.5t11.5 -30.5t-11.5 -30.5t-30.5 -12.5t-30.5 12.5t-11.5 30.5t11.5 30.5t30.5 12.5z" />
    <glyph glyph-name="Korea1.104" unicode="&#xb7;" horiz-adv-x="511" 
d="M135 418q0 -56 34 -88.5t87 -32.5q52 0 86 32.5t34 88.5q0 54 -34 87t-86 33q-53 0 -87 -32.5t-34 -87.5z" />
    <glyph glyph-name="Korea1.105" unicode="&#x2025;" horiz-adv-x="550" 
d="M66 32q0 -34 21.5 -54.5t53.5 -20.5t53.5 20.5t21.5 54.5t-21.5 54.5t-53.5 20.5t-53.5 -20.5t-21.5 -54.5zM341 32q0 -34 21.5 -54.5t53.5 -20.5t53.5 20.5t21.5 54.5t-21.5 54.5t-53.5 20.5t-53.5 -20.5t-21.5 -54.5z" />
    <glyph glyph-name="Korea1.106" unicode="&#x2026;" horiz-adv-x="825" 
d="M66 32q0 -34 21.5 -54.5t53.5 -20.5t53.5 20.5t21.5 54.5t-21.5 54.5t-53.5 20.5t-53.5 -20.5t-21.5 -54.5zM341 32q0 -34 21.5 -54.5t53.5 -20.5t53.5 20.5t21.5 54.5t-21.5 54.5t-53.5 20.5t-53.5 -20.5t-21.5 -54.5zM616 32q0 -34 21.5 -54.5t53.5 -20.5t53.5 20.5
t21.5 54.5t-21.5 54.5t-53.5 20.5t-53.5 -20.5t-21.5 -54.5z" />
    <glyph glyph-name="Korea1.107" unicode="&#xa8;" horiz-adv-x="500" 
d="M69 776q0 -30 20 -49t48 -19t47.5 19t19.5 49t-19.5 48.5t-47.5 18.5q-29 0 -48.5 -18.5t-19.5 -48.5zM295 776q0 -30 20 -49t48 -19t47.5 19t19.5 49t-19.5 48.5t-47.5 18.5q-29 0 -48.5 -18.5t-19.5 -48.5z" />
    <glyph glyph-name="Korea1.108" unicode="&#x3003;" horiz-adv-x="560" 
d="M135 191l169 251l-99 61l-140 -268zM325 191l169 251l-99 61l-140 -268z" />
    <glyph glyph-name="Korea1.109" unicode="&#x2013;" horiz-adv-x="605" 
d="M54 425v-83h497v83h-497z" />
    <glyph glyph-name="Korea1.110" unicode="&#x2014;" 
d="M883 425h-860v-83h860v83z" />
    <glyph glyph-name="Korea1.111" unicode="&#x2016;" 
d="M395 -65v882h-109v-882h109zM613 -65v882h-110v-882h110z" />
    <glyph glyph-name="Korea1.112" unicode="&#xff3c;" 
d="M150 812h-117l719 -902h115z" />
    <glyph glyph-name="Korea1.113" unicode="&#xff5e;" 
d="M98 294l56 -37q25 32 60.5 54t72.5 22q16 0 32 -3t35.5 -12t28.5 -13t32.5 -17.5t26.5 -15.5q88 -50 165 -50q130 0 209 111l-48 42q-67 -74 -157 -74q-47 0 -121 42q-65 38 -108 53t-95 15q-126 0 -189 -117z" />
    <glyph glyph-name="Korea1.114" unicode="&#x2018;" horiz-adv-x="255" 
d="M209 625q0 31 -19.5 52t-53.5 23q0 66 91 97l-12 45q-70 -10 -115.5 -56.5t-45.5 -136.5q0 -47 21.5 -73t58.5 -26q32 0 53.5 20.5t21.5 54.5z" />
    <glyph glyph-name="Korea1.115" unicode="&#x2019;" horiz-adv-x="255" 
d="M46 762q0 -31 19.5 -52t53.5 -23q0 -65 -91 -97l12 -45q70 10 115.5 56.5t45.5 136.5q0 47 -21.5 73t-58.5 26q-32 0 -53.5 -20.5t-21.5 -54.5z" />
    <glyph glyph-name="Korea1.116" unicode="&#x201c;" horiz-adv-x="450" 
d="M209 625q0 31 -19.5 52t-53.5 23q0 66 91 97l-12 45q-70 -10 -115.5 -56.5t-45.5 -136.5q0 -47 21.5 -73t58.5 -26q32 0 53.5 20.5t21.5 54.5zM404 625q0 31 -19.5 52t-53.5 23q0 66 91 97l-12 45q-70 -10 -115.5 -56.5t-45.5 -136.5q0 -47 21.5 -73t58.5 -26
q32 0 53.5 20.5t21.5 54.5z" />
    <glyph glyph-name="Korea1.117" unicode="&#x201d;" horiz-adv-x="450" 
d="M46 762q0 -31 19.5 -52t53.5 -23q0 -65 -91 -97l12 -45q70 10 115.5 56.5t45.5 136.5q0 47 -21.5 73t-58.5 26q-32 0 -53.5 -20.5t-21.5 -54.5zM241 762q0 -31 19.5 -52t53.5 -23q0 -65 -91 -97l12 -45q70 10 115.5 56.5t45.5 136.5q0 47 -21.5 73t-58.5 26
q-32 0 -53.5 -20.5t-21.5 -54.5z" />
    <glyph glyph-name="Korea1.118" unicode="&#x3014;" horiz-adv-x="380" 
d="M329 790l-239 -153v-625l239 -150v106l-132 81v550l132 86v105z" />
    <glyph glyph-name="Korea1.119" unicode="&#x3015;" horiz-adv-x="380" 
d="M290 637l-240 153v-105l133 -85v-551l-133 -81v-106l240 150v625z" />
    <glyph glyph-name="Korea1.120" unicode="&#x3008;" horiz-adv-x="460" 
d="M417 781h-116l-261 -454l262 -452h118l-265 453z" />
    <glyph glyph-name="Korea1.121" unicode="&#x3009;" horiz-adv-x="460" 
d="M159 781h-116l262 -453l-265 -453h118l262 452z" />
    <glyph glyph-name="Korea1.122" unicode="&#x300a;" horiz-adv-x="580" 
d="M342 781h-108l-188 -454l188 -452h109l-190 452zM532 781h-110l-186 -454l186 -452h111l-190 452z" />
    <glyph glyph-name="Korea1.123" unicode="&#x300b;" horiz-adv-x="580" 
d="M345 781h-108l189 -454l-190 -452h109l188 452zM157 781h-110l189 -454l-190 -452h111l186 452z" />
    <glyph glyph-name="Korea1.124" unicode="&#x300c;" horiz-adv-x="430" 
d="M73 372h106v320h197v89h-303v-409z" />
    <glyph glyph-name="Korea1.125" unicode="&#x300d;" horiz-adv-x="430" 
d="M346 284h-105v-320h-197v-89h302v409z" />
    <glyph glyph-name="Korea1.126" unicode="&#x300e;" horiz-adv-x="430" 
d="M243 371v257h135v153h-307v-410h172zM180 431h-44v293h176v-38h-132v-255z" />
    <glyph glyph-name="Korea1.127" unicode="&#x300f;" horiz-adv-x="430" 
d="M196 285v-257h-135v-153h307v410h-172zM259 225h44v-293h-176v38h132v255z" />
    <glyph glyph-name="Korea1.128" unicode="&#x3010;" horiz-adv-x="520" 
d="M84 -126h391q-116 76 -188.5 203.5t-72.5 250.5q0 122 72.5 250t187.5 203h-390v-907z" />
    <glyph glyph-name="Korea1.129" unicode="&#x3011;" horiz-adv-x="520" 
d="M44 -126h391v907h-390q115 -75 187.5 -203t72.5 -250q0 -123 -72.5 -250.5t-188.5 -203.5z" />
    <glyph glyph-name="Korea1.130" unicode="&#xb1;" horiz-adv-x="580" 
d="M64 140v-81h452v81h-452zM54 505v-83h185v-196h101v196h186v83h-186v195h-101v-195h-185z" />
    <glyph glyph-name="Korea1.131" unicode="&#xd7;" horiz-adv-x="580" 
d="M450 641l-160 -182l-160 182l-70 -65l166 -190l-166 -189l74 -63l156 178l156 -178l74 63l-166 189l166 190z" />
    <glyph glyph-name="Korea1.132" unicode="&#xf7;" horiz-adv-x="565" 
d="M215 576q0 -30 20 -49t48 -19t47.5 19t19.5 49t-19.5 48.5t-47.5 18.5q-29 0 -48.5 -18.5t-19.5 -48.5zM215 192q0 -30 20 -49t48 -19t47.5 19t19.5 49t-19.5 48.5t-47.5 18.5q-29 0 -48.5 -18.5t-19.5 -48.5zM54 425v-83h457v83h-457z" />
    <glyph glyph-name="Korea1.133" unicode="&#x2260;" 
d="M171 314v-82h161l-64 -163h102l64 163h295v82h-262l50 128h212v82h-179l69 175h-102l-69 -175h-277v-82h244l-50 -128h-194z" />
    <glyph glyph-name="Korea1.134" unicode="&#x2264;" 
d="M676 287l-355 179l355 178v91l-468 -231v-77l468 -231v91zM167 61h546v83h-546v-83z" />
    <glyph glyph-name="Korea1.135" unicode="&#x2265;" 
d="M573 466l-355 -179v-91l468 231v77l-468 231v-91zM167 61h546v83h-546v-83z" />
    <glyph glyph-name="Korea1.136" unicode="&#x221e;" 
d="M160 388q0 51 33 87.5t80 36.5q45 0 85 -37t51 -87q-11 -50 -51 -87t-85 -37q-47 0 -80 36.5t-33 87.5zM833 388q0 90 -58.5 146t-144.5 56q-57 0 -104.5 -31t-75.5 -77q-30 46 -77 77t-102 31q-86 0 -145 -56t-59 -146t59 -146t145 -56q55 0 102 31t77 77
q28 -46 75.5 -77t104.5 -31q86 0 144.5 56t58.5 146zM491 388q11 50 51 87t85 37q47 0 80 -36.5t33 -87.5t-33 -87.5t-80 -36.5q-45 0 -85 37t-51 87z" />
    <glyph glyph-name="Korea1.137" unicode="&#x2234;" 
d="M530 566q0 33 -23.5 55.5t-56.5 22.5t-56.5 -22.5t-23.5 -55.5t23.5 -55.5t56.5 -22.5t56.5 22.5t23.5 55.5zM307 191q0 33 -23.5 55.5t-56.5 22.5t-56.5 -22.5t-23.5 -55.5t23.5 -55.5t56.5 -22.5t56.5 22.5t23.5 55.5zM752 191q0 33 -23.5 55.5t-56.5 22.5t-56.5 -22.5
t-23.5 -55.5t23.5 -55.5t56.5 -22.5t56.5 22.5t23.5 55.5z" />
    <glyph glyph-name="Korea1.138" unicode="&#xb0;" horiz-adv-x="350" 
d="M295 677q0 47 -35.5 77.5t-85.5 30.5t-85.5 -30.5t-35.5 -77.5t35.5 -77.5t85.5 -30.5t85.5 30.5t35.5 77.5zM125 677q0 21 14.5 35.5t34.5 14.5t34.5 -14.5t14.5 -35.5t-14.5 -35.5t-34.5 -14.5t-34.5 14.5t-14.5 35.5z" />
    <glyph glyph-name="Korea1.139" unicode="&#x2032;" horiz-adv-x="300" 
d="M128 812l-70 -214h61l103 214h-94z" />
    <glyph glyph-name="Korea1.140" unicode="&#x2033;" horiz-adv-x="460" 
d="M128 812l-70 -214h61l103 214h-94zM288 812l-70 -214h61l103 214h-94z" />
    <glyph glyph-name="Korea1.141" unicode="&#x2103;" 
d="M631 682q71 0 189 -30l17 76q-128 41 -207 41q-165 0 -256.5 -106t-91.5 -272q0 -90 19.5 -161.5t61 -128t114 -87.5t170.5 -31q96 0 212 49l-19 74q-124 -36 -190 -36q-252 0 -252 319q0 131 62.5 212t170.5 81zM274 670q0 47 -35.5 77.5t-85.5 30.5t-85.5 -30.5
t-35.5 -77.5t35.5 -77.5t85.5 -30.5t85.5 30.5t35.5 77.5zM104 670q0 21 14.5 35.5t34.5 14.5t34.5 -14.5t14.5 -35.5t-14.5 -35.5t-34.5 -14.5t-34.5 14.5t-14.5 35.5z" />
    <glyph glyph-name="Korea1.142" unicode="&#x212b;" 
d="M232 0q9 27 32.5 105t37.5 118h295q14 -41 38.5 -121t31.5 -102h116q-153 498 -286 752h-95q-132 -252 -286 -752h116zM449 626q16 -35 33 -79.5t28 -76t29 -85.5t27 -78h-233q85 250 116 319zM571 889q0 47 -35.5 77.5t-85.5 30.5t-85.5 -30.5t-35.5 -77.5t35.5 -77.5
t85.5 -30.5t85.5 30.5t35.5 77.5zM401 889q0 21 14.5 35.5t34.5 14.5t34.5 -14.5t14.5 -35.5t-14.5 -35.5t-34.5 -14.5t-34.5 14.5t-14.5 35.5z" />
    <glyph glyph-name="Korea1.143" unicode="&#xffe0;" 
d="M524 778l-26 -112q-30 2 -43 2q-107 0 -165.5 -74.5t-58.5 -211.5q0 -219 139 -273l-32 -140h101l29 125q109 4 201 48l-23 71q-78 -33 -160 -38l91 395q23 -7 58 -22l24 72q-34 16 -65 26l31 132h-101zM342 382q0 205 128 205h10l-88 -384q-50 47 -50 179z" />
    <glyph glyph-name="Korea1.144" unicode="&#xffe1;" 
d="M175 344h80q4 -24 4 -80q0 -122 -31 -176h-87v-88h396q42 0 78 8.5t70 29t54 61.5t20 100h-110q0 -56 -31.5 -84t-82.5 -28h-189q25 72 25 178q0 61 -2 79h243v87h-257q-3 24 -3 81q0 74 27 122t90 48q48 0 77.5 -39t37.5 -97h104q-9 107 -65.5 165t-152.5 58
q-120 0 -175 -69.5t-55 -182.5q0 -57 3 -85h-68v-88z" />
    <glyph glyph-name="Korea1.145" unicode="&#xffe5;" 
d="M661 212h-150v70h150v82h-89q128 180 160 388h-103q-19 -102 -67 -207.5t-101 -163.5q-43 65 -94.5 170.5t-86.5 200.5h-112q73 -191 188 -388h-118v-82h164v-70h-164v-82h164v-130h109v130h150v82z" />
    <glyph glyph-name="Korea1.146" unicode="&#x2642;" 
d="M617 300q0 74 -43 135l125 130l9 -90l80 10l-22 209l-210 22l-11 -71l95 -11l-133 -135q-65 43 -145 43q-107 0 -181 -68.5t-74 -173.5t74 -173.5t181 -68.5t181 70.5t74 171.5zM513 298q0 -69 -41.5 -114.5t-109.5 -45.5t-110 45.5t-42 114.5t42 114.5t110 45.5
t109.5 -45.5t41.5 -114.5z" />
    <glyph glyph-name="Korea1.147" unicode="&#x2640;" 
d="M698 521q0 101 -74 171.5t-181 70.5t-181 -68.5t-74 -173.5q0 -96 56 -163t149 -79v-88h-153v-78h153v-124h103v124h150v78h-150v88q94 14 148 82.5t54 159.5zM594 519q0 -69 -41.5 -114.5t-109.5 -45.5t-110 45.5t-42 114.5t42 114.5t110 45.5t109.5 -45.5t41.5 -114.5z
" />
    <glyph glyph-name="Korea1.148" unicode="&#x2220;" 
d="M320 184l451 453l-79 75l-608 -615h731v87h-495z" />
    <glyph glyph-name="Korea1.149" unicode="&#x22a5;" 
d="M83 87v-87h733v87h-310v665h-113v-665h-310z" />
    <glyph glyph-name="Korea1.150" unicode="&#x2312;" 
d="M450 241q86 0 142 -69.5t80 -171.5h108q-28 143 -115 235t-215 92t-215.5 -92t-114.5 -235h108q24 102 80 171.5t142 69.5z" />
    <glyph glyph-name="Korea1.151" unicode="&#x2202;" 
d="M293 639l46 -63q73 49 124 49q57 0 88.5 -48.5t31.5 -115.5v-25q-86 15 -139 15q-114 0 -184 -64t-70 -163q0 -92 59.5 -144.5t156.5 -52.5q72 0 129.5 41.5t91 107.5t50.5 139.5t17 145.5q0 104 -61.5 176t-171.5 72q-86 0 -168 -70zM404 110q-44 0 -73 31t-29 82
q0 60 41 102t102 42q58 0 132 -12q-7 -97 -57 -171t-116 -74z" />
    <glyph glyph-name="Korea1.152" unicode="&#x2207;" 
d="M445 47l404 616h-798zM257 581h430l-218 -339z" />
    <glyph glyph-name="Korea1.153" unicode="&#x2261;" 
d="M101 506h706v81h-706v-81zM101 333h706v81h-706v-81zM101 157h706v81h-706v-81z" />
    <glyph glyph-name="Korea1.154" unicode="&#x2252;" 
d="M318 613q0 28 -20 47t-48 19q-29 0 -48.5 -19t-19.5 -47t19.5 -47t48.5 -19q28 0 48 19t20 47zM710 106q0 27 -20 46.5t-48 19.5t-48 -19.5t-20 -46.5q0 -28 20 -47.5t48 -19.5t48 19.5t20 47.5zM147 409h606v83h-606v-83zM147 229h606v83h-606v-83z" />
    <glyph glyph-name="Korea1.155" unicode="&#xa7;" horiz-adv-x="420" 
d="M326 665l19 75q-65 29 -135 29t-113 -38t-43 -97q0 -70 80 -128q-30 -16 -52 -47t-22 -72q0 -88 114 -157q45 -28 67 -50t22 -46q0 -27 -19 -46t-52 -19q-45 0 -116 27l-26 -78q73 -35 142 -35q87 0 132.5 45t45.5 108q0 32 -16 66t-44 58q56 42 56 113q0 89 -99 160
q-11 8 -31.5 21.5t-29.5 20.5t-21 18t-16.5 21.5t-4.5 22.5q0 19 13 32.5t39 13.5q51 0 110 -18zM266 379q0 -49 -35 -74q-29 14 -49.5 37t-20.5 48q0 23 14.5 41t35.5 24q21 -9 38 -32t17 -44z" />
    <glyph glyph-name="Korea1.156" unicode="&#x203b;" 
d="M134 717l268 -304l-268 -303h99l218 247l219 -247h99l-268 303l268 304h-99l-219 -248l-218 248h-99zM509 159q0 24 -17 40.5t-42 16.5t-42 -16.5t-17 -40.5t17 -40.5t42 -16.5t42 16.5t17 40.5zM775 415q0 24 -17 40.5t-42 16.5t-42 -16.5t-17 -40.5t17 -40.5t42 -16.5
t42 16.5t17 40.5zM250 415q0 24 -17 40.5t-42 16.5t-42 -16.5t-17 -40.5t17 -40.5t42 -16.5t42 16.5t17 40.5zM509 667q0 24 -17 40.5t-42 16.5t-42 -16.5t-17 -40.5t17 -40.5t42 -16.5t42 16.5t17 40.5z" />
    <glyph glyph-name="Korea1.157" unicode="&#x2606;" 
d="M702 452l-165 -120l71 -185l-164 125l-157 -120l67 181l-162 119h201l54 174l53 -174h202zM868 508h-319l-104 300q-50 -148 -100 -300h-314l251 -188l-100 -311l263 194l272 -201l-108 313z" />
    <glyph glyph-name="Korea1.158" unicode="&#x2605;" 
d="M860 506h-313l-102 294l-98 -294h-308l246 -184l-98 -305l258 190l267 -197l-106 307z" />
    <glyph glyph-name="Korea1.159" unicode="&#x25cb;" horiz-adv-x="1054" 
d="M527 692q126 0 212.5 -91.5t86.5 -217.5t-86.5 -217.5t-212.5 -91.5t-212.5 91.5t-86.5 217.5t86.5 217.5t212.5 91.5zM527 -17q168 0 283.5 115t115.5 285q0 171 -115.5 285t-283.5 114t-283.5 -114t-115.5 -285q0 -170 115.5 -285t283.5 -115z" />
    <glyph glyph-name="Korea1.160" unicode="&#x25cf;" 
d="M841 383q0 161 -115 276t-276 115t-276 -115t-115 -276t115.5 -276.5t275.5 -115.5q161 0 276 115.5t115 276.5z" />
    <glyph glyph-name="Korea1.161" unicode="&#x25ce;" 
d="M116 383q0 138 98.5 238t235.5 100t236 -100t99 -238t-99 -238t-236 -100t-235.5 100t-98.5 238zM849 383q0 164 -117.5 281.5t-281.5 117.5t-281.5 -117.5t-117.5 -281.5t118 -282t281 -118q164 0 281.5 118t117.5 282zM264 383q0 78 54.5 134t131.5 56q78 0 132.5 -56
t54.5 -134t-54.5 -134t-132.5 -56q-77 0 -131.5 56t-54.5 134zM696 383q0 102 -72 174t-174 72t-175 -72t-73 -174q0 -101 73.5 -174.5t174.5 -73.5q102 0 174 73t72 175z" />
    <glyph glyph-name="Korea1.162" unicode="&#x25c7;" 
d="M450 -62l428 444l-428 444l-428 -444zM450 740l340 -357l-340 -359l-340 359z" />
    <glyph glyph-name="Korea1.163" unicode="&#x25c6;" 
d="M450 -53l419 435l-419 435l-419 -435z" />
    <glyph glyph-name="Korea1.164" unicode="&#x25a1;" 
d="M55 -13h789v792h-789v-792zM783 718v-669h-665v669h665z" />
    <glyph glyph-name="Korea1.165" unicode="&#x25a0;" 
d="M63 -4h773v775h-773v-775z" />
    <glyph glyph-name="Korea1.166" unicode="&#x25b3;" 
d="M742 178h-587l294 450zM35 114h829l-414 636z" />
    <glyph glyph-name="Korea1.167" unicode="&#x25b2;" 
d="M43 120h813l-404 624z" />
    <glyph glyph-name="Korea1.168" unicode="&#x25bd;" 
d="M155 597h587l-292 -450zM449 24l415 638h-829z" />
    <glyph glyph-name="Korea1.169" unicode="&#x25bc;" 
d="M449 30l407 626h-813z" />
    <glyph glyph-name="Korea1.170" unicode="&#x2192;" 
d="M38 321h587l-97 -142l16 -18l317 200l-316 200l-17 -18l94 -138h-584v-84z" />
    <glyph glyph-name="Korea1.171" unicode="&#x2190;" 
d="M274 321h587v84h-585l95 138l-17 18l-316 -200l317 -200l16 18z" />
    <glyph glyph-name="Korea1.172" unicode="&#x2191;" 
d="M660 512l-209 328l-211 -328l24 -14l138 99v-704h96v704l138 -98z" />
    <glyph glyph-name="Korea1.173" unicode="&#x2193;" 
d="M442 -128l209 328l-24 13l-138 -99v715h-96v-715l-138 100l-24 -14z" />
    <glyph glyph-name="Korea1.174" unicode="&#x2194;" 
d="M234 405l79 139l-18 18l-294 -200l296 -202l16 18l-82 143h438l-82 -143l16 -18l296 202l-295 200l-17 -18l79 -139h-432z" />
    <glyph glyph-name="Korea1.175" unicode="&#x3013;" 
d="M112 176h676v84h-676v-84zM112 388h676v84h-676v-84z" />
    <glyph glyph-name="Korea1.176" unicode="&#xab;" 
d="M383 350l424 -290v107l-323 217l323 219v107l-424 -292v-68zM92 350l424 -290v107l-323 217l323 219v107l-424 -292v-68z" />
    <glyph glyph-name="Korea1.177" unicode="&#xbb;" 
d="M92 60l424 290v68l-424 292v-107l323 -219l-323 -217v-107zM383 60l424 290v68l-424 292v-107l323 -219l-323 -217v-107z" />
    <glyph glyph-name="Korea1.178" unicode="&#x221a;" 
d="M417 -43l442 887h-117q-24 -48 -363 -720l-100 233h-233v-82h124l141 -318h106z" />
    <glyph glyph-name="Korea1.179" unicode="&#x223d;" 
d="M715 275h101q-10 108 -70 179.5t-147 71.5q-89 0 -189 -107q-20 -22 -33 -34t-37.5 -27t-46.5 -15q-24 0 -42.5 12.5t-31 37.5t-20 47.5t-15.5 57.5h-100q16 -108 71 -174t144 -66q37 0 75.5 19.5t57.5 36.5t55 52q28 28 42 41t33.5 24.5t36.5 11.5q46 0 77.5 -53
t38.5 -115z" />
    <glyph glyph-name="Korea1.180" unicode="&#x221d;" 
d="M305 266q-48 0 -80.5 36t-32.5 86q0 51 33 87.5t80 36.5q45 0 83 -37t50 -87q-11 -47 -49 -84.5t-84 -37.5zM754 487l28 67q-55 36 -125 36q-51 0 -99.5 -30.5t-75.5 -75.5q-30 45 -76 75.5t-98 30.5q-90 0 -149.5 -55.5t-59.5 -146.5q0 -92 60.5 -146t148.5 -54
q54 0 99 31t74 76q30 -45 77 -76t99 -31q72 0 128 37l-27 69q-48 -28 -99 -28q-46 0 -84 37.5t-49 84.5q12 50 50 87t83 37q50 0 95 -25z" />
    <glyph glyph-name="Korea1.181" unicode="&#x2235;" 
d="M530 191q0 33 -23.5 55.5t-56.5 22.5t-56.5 -22.5t-23.5 -55.5t23.5 -55.5t56.5 -22.5t56.5 22.5t23.5 55.5zM307 566q0 33 -23.5 55.5t-56.5 22.5t-56.5 -22.5t-23.5 -55.5t23.5 -55.5t56.5 -22.5t56.5 22.5t23.5 55.5zM752 566q0 33 -23.5 55.5t-56.5 22.5t-56.5 -22.5
t-23.5 -55.5t23.5 -55.5t56.5 -22.5t56.5 22.5t23.5 55.5z" />
    <glyph glyph-name="Korea1.182" unicode="&#x222b;" 
d="M443 665l-76 -543q-8 -53 -47 -53q-26 0 -54 10l-22 -66q48 -30 93 -30q47 0 85 29.5t45 74.5l78 549q7 47 45 47q18 0 61 -12l20 66q-55 32 -118 32q-45 0 -74 -28.5t-36 -75.5z" />
    <glyph glyph-name="Korea1.183" unicode="&#x222c;" 
d="M291 665l-76 -543q-8 -53 -47 -53q-26 0 -54 10l-22 -66q48 -30 93 -30q47 0 85 29.5t45 74.5l78 549q7 47 45 47q18 0 61 -12l20 66q-55 32 -118 32q-45 0 -74 -28.5t-36 -75.5zM579 665l-76 -543q-8 -53 -47 -53q-26 0 -54 10l-22 -66q48 -30 93 -30q47 0 85 29.5
t45 74.5l78 549q7 47 45 47q18 0 61 -12l20 66q-55 32 -118 32q-45 0 -74 -28.5t-36 -75.5z" />
    <glyph glyph-name="Korea1.184" unicode="&#x2208;" 
d="M217 327h577v82h-577q0 57 42.5 105t104.5 48h429v82h-428q-115 0 -187 -81t-72 -197q0 -117 72 -197.5t187 -80.5h428v82h-429q-63 0 -105.5 48.5t-41.5 108.5z" />
    <glyph glyph-name="Korea1.185" unicode="&#x220b;" 
d="M106 327h577q1 -60 -41.5 -108.5t-105.5 -48.5h-429v-82h428q115 0 187 80.5t72 197.5q0 116 -72 197t-187 81h-428v-82h429q62 0 104.5 -48t42.5 -105h-577v-82z" />
    <glyph glyph-name="Korea1.186" unicode="&#x2286;" 
d="M112 41h676v88h-676v-88zM784 614v87h-430q-107 0 -180 -66t-73 -173q0 -109 70 -173.5t168 -64.5h449v88h-426q-69 0 -109 42t-40 109q0 64 40.5 107.5t105.5 43.5h425z" />
    <glyph glyph-name="Korea1.187" unicode="&#x2287;" 
d="M112 41h676v88h-676v-88zM116 701v-87h425q65 0 105.5 -43.5t40.5 -107.5q0 -67 -40 -109t-109 -42h-426v-88h449q98 0 168 64.5t70 173.5q0 107 -73 173t-180 66h-430z" />
    <glyph glyph-name="Korea1.188" unicode="&#x2282;" 
d="M789 554v87h-428q-106 0 -180 -81t-74 -192q0 -117 74.5 -194.5t170.5 -77.5h441v87h-423q-61 0 -106.5 56.5t-45.5 128.5q0 70 43 128t105 58h423z" />
    <glyph glyph-name="Korea1.189" unicode="&#x2283;" 
d="M111 641v-87h423q62 0 105 -58t43 -128q0 -72 -45.5 -128.5t-106.5 -56.5h-423v-87h441q96 0 170.5 77.5t74.5 194.5q0 111 -74 192t-180 81h-428z" />
    <glyph glyph-name="Korea1.190" unicode="&#x222a;" 
d="M283 706h-111v-431q0 -107 80.5 -177.5t198.5 -70.5q122 0 199.5 75.5t77.5 172.5v435h-111v-435q0 -65 -47.5 -114.5t-118.5 -49.5q-69 0 -118.5 49t-49.5 115v431z" />
    <glyph glyph-name="Korea1.191" unicode="&#x2229;" 
d="M617 45h111v431q0 107 -80.5 177.5t-198.5 70.5q-122 0 -199.5 -75.5t-77.5 -172.5v-435h111v435q0 65 47.5 114.5t118.5 49.5q69 0 118.5 -49t49.5 -115v-431z" />
    <glyph glyph-name="Korea1.192" unicode="&#x2227;" 
d="M450 515l228 -456h120l-295 583h-107l-295 -583h120z" />
    <glyph glyph-name="Korea1.193" unicode="&#x2228;" 
d="M678 642l-228 -456l-229 456h-120l295 -583h107l295 583h-120z" />
    <glyph glyph-name="Korea1.194" unicode="&#xffe2;" 
d="M856 491h-812v-88h698v-256h114v344z" />
    <glyph glyph-name="Korea1.195" unicode="&#x21d2;" 
d="M24 404h690l41 -43l-40 -42h-691v-85h609l-83 -85l66 -61l269 272l-272 273l-62 -61l82 -85h-609v-83z" />
    <glyph glyph-name="Korea1.196" unicode="&#x21d4;" 
d="M633 487h-367l82 85l-62 61l-272 -273l269 -272l66 61l-83 85h367l-83 -85l66 -61l269 272l-272 273l-62 -61zM185 404h529l41 -43l-40 -42h-531l-40 42z" />
    <glyph glyph-name="Korea1.197" unicode="&#x2200;" 
d="M667 752q-9 -27 -32.5 -105t-37.5 -118h-295q-14 41 -38.5 121t-31.5 102h-116q153 -498 286 -752h95q132 252 286 752h-116zM450 126q-16 35 -33 79.5t-28 76t-29 85.5t-27 78h233q-85 -250 -116 -319z" />
    <glyph glyph-name="Korea1.198" unicode="&#x2203;" 
d="M226 733v-71h265q68 0 68 -57v-208h-304v-84h304v-232h-320v-84h434v609q0 148 -183 143q-145 -2 -264 -16z" />
    <glyph glyph-name="Korea1.199" unicode="&#xb4;" horiz-adv-x="300" 
d="M128 932l-70 -214h61l103 214h-94z" />
    <glyph glyph-name="Korea1.200" unicode="&#x2dc;" 
d="M84 275h101q7 62 38.5 115t77.5 53q24 0 47.5 -18t64.5 -59q36 -35 55 -52t57.5 -36.5t75.5 -19.5q89 0 144 66t71 174h-100q-8 -35 -15.5 -57.5t-20 -47.5t-31 -37.5t-42.5 -12.5q-22 0 -46.5 15t-37.5 27t-33 34q-100 107 -189 107q-87 0 -147 -71.5t-70 -179.5z" />
    <glyph glyph-name="Korea1.201" unicode="&#x2c7;" horiz-adv-x="380" 
d="M9 944l135 -163h92l135 163h-103l-79 -98l-77 98h-103z" />
    <glyph glyph-name="Korea1.202" unicode="&#x2d8;" horiz-adv-x="400" 
d="M200 773q69 0 119.5 44t59.5 127h-94q-6 -45 -27 -73.5t-58 -28.5q-38 0 -59 28.5t-27 73.5h-94q9 -83 60 -127t120 -44z" />
    <glyph glyph-name="Korea1.203" unicode="&#x2dd;" horiz-adv-x="460" 
d="M128 932l-70 -214h61l103 214h-94zM288 932l-70 -214h61l103 214h-94z" />
    <glyph glyph-name="Korea1.204" unicode="&#x2da;" horiz-adv-x="270" 
d="M177 866q0 -19 -11.5 -30.5t-30.5 -11.5t-30.5 11.5t-11.5 30.5t11.5 30.5t30.5 11.5t30.5 -11.5t11.5 -30.5zM245 866q0 42 -32 69t-78 27t-78 -27t-32 -69t32 -69t78 -27t78 27t32 69z" />
    <glyph glyph-name="Korea1.205" unicode="&#x2d9;" horiz-adv-x="200" 
d="M32 876q0 -30 20 -49t48 -19t47.5 19t19.5 49t-19.5 48.5t-47.5 18.5q-29 0 -48.5 -18.5t-19.5 -48.5z" />
    <glyph glyph-name="Korea1.206" unicode="&#xb8;" horiz-adv-x="390" 
d="M223 -19h-98l-38 -115q45 0 75 -12t30 -36q0 -38 -65 -38h-40v-62q38 -4 57 -4q25 0 50 5t50.5 15.5t41 32.5t15.5 51q0 37 -29.5 62t-71.5 32z" />
    <glyph glyph-name="Korea1.207" unicode="&#x2db;" horiz-adv-x="240" 
d="M203 10h-74q-45 -19 -76.5 -51t-31.5 -75q0 -60 37 -84t106 -24q18 0 54 6v70q-27 -6 -52 -6q-26 0 -35.5 8t-9.5 30q0 35 25 70.5t57 55.5z" />
    <glyph glyph-name="Korea1.208" unicode="&#xa1;" horiz-adv-x="290" 
d="M81 -257h124l-18 613h-88zM219 511q0 34 -21.5 54.5t-53.5 20.5t-53.5 -20.5t-21.5 -54.5t21.5 -54.5t53.5 -20.5t53.5 20.5t21.5 54.5z" />
    <glyph glyph-name="Korea1.209" unicode="&#xbf;" horiz-adv-x="465" 
d="M219 355v-41q0 -52 -19 -92.5t-58 -85.5q-103 -117 -103 -210q0 -83 55 -138.5t163 -55.5q82 0 182 58l-29 69l-20 -8t-21 -8.5t-19 -7.5t-21.5 -7t-20.5 -4.5t-24.5 -3.5t-25.5 -1q-50 0 -78 30.5t-28 76.5q0 68 79 157q47 54 72 106.5t25 121.5v44h-109zM349 510
q0 34 -21.5 54.5t-53.5 20.5t-53.5 -20.5t-21.5 -54.5t21.5 -54.5t53.5 -20.5t53.5 20.5t21.5 54.5z" />
    <glyph glyph-name="Korea1.210" unicode="&#x2236;" horiz-adv-x="245" 
d="M217 649h-189l94 -166zM28 82h189l-95 165z" />
    <glyph glyph-name="Korea1.211" unicode="&#x222e;" 
d="M443 665l-12 -84q-86 0 -146 -53t-60 -134q0 -68 43 -117.5t111 -64.5l-12 -90q-8 -53 -47 -53q-26 0 -54 10l-22 -66q48 -30 93 -30q47 0 85 29.5t45 74.5l17 120q85 1 144.5 54t59.5 133q0 67 -42.5 116t-109.5 64l9 62q7 47 45 47q18 0 61 -12l20 66q-55 32 -118 32
q-45 0 -74 -28.5t-36 -75.5zM322 394q0 45 28 77t70 34l-30 -216q-31 11 -49.5 39.5t-18.5 65.5zM591 394q0 -45 -27.5 -76.5t-68.5 -34.5l30 215q30 -12 48 -40t18 -64z" />
    <glyph glyph-name="Korea1.212" unicode="&#x2211;" 
d="M103 8h692v98h-530l272 307l-275 270h534v73h-691v-73l307 -302l-309 -351v-22z" />
    <glyph glyph-name="Korea1.213" unicode="&#x220f;" 
d="M651 667h113v85h-651v-85h112v-667h113v667h198v-667h115v667z" />
    <glyph glyph-name="Korea1.214" unicode="&#xa4;" 
d="M723 382q0 95 -37 163l80 81l-75 73l-74 -75q-68 48 -163 48t-164 -49l-75 76l-75 -73l81 -82q-36 -69 -36 -162t34 -159l-79 -79l75 -73l72 72q67 -51 167 -51q98 0 166 50l71 -71l75 73l-78 78q35 68 35 160zM614 382q0 -96 -40.5 -152.5t-119.5 -56.5t-119.5 56.5
t-40.5 152.5q0 94 42 151.5t118 57.5t118 -57.5t42 -151.5z" />
    <glyph glyph-name="Korea1.215" unicode="&#x2109;" 
d="M520 0v358q45 9 78 9h216v84h-199q-54 0 -95 -18v235h310v84h-424v-752h114zM314 670q0 47 -35.5 77.5t-85.5 30.5t-85.5 -30.5t-35.5 -77.5t35.5 -77.5t85.5 -30.5t85.5 30.5t35.5 77.5zM144 670q0 21 14.5 35.5t34.5 14.5t34.5 -14.5t14.5 -35.5t-14.5 -35.5
t-34.5 -14.5t-34.5 14.5t-14.5 35.5z" />
    <glyph glyph-name="Korea1.216" unicode="&#x2030;" 
d="M129 20l434 732h-92l-436 -732h94zM797 181q0 -51 -13 -81t-38 -30t-38 30t-13 81t13 81t38 30t38 -30t13 -81zM885 181q0 72 -36 123t-103 51t-103 -51t-36 -123t36 -123t103 -51t103 51t36 123zM494 181q0 -51 -13 -81t-38 -30t-38 30t-13 81t13 81t38 30t38 -30
t13 -81zM582 181q0 72 -36 123t-103 51t-103 -51t-36 -123t36 -123t103 -51t103 51t36 123zM207 591q0 -51 -13 -81t-38 -30t-38 30t-13 81t13 81t38 30t38 -30t13 -81zM295 591q0 72 -36 123t-103 51t-103 -51t-36 -123t36 -123t103 -51t103 51t36 123z" />
    <glyph glyph-name="Korea1.217" unicode="&#x25c1;" 
d="M679 684v-586l-449 293zM110 390l639 -414v828z" />
    <glyph glyph-name="Korea1.218" unicode="&#x25c0;" 
d="M116 390l627 -406v812z" />
    <glyph glyph-name="Korea1.219" unicode="&#x25b7;" 
d="M220 98v586l449 -293zM150 -24l639 414l-639 414v-828z" />
    <glyph glyph-name="Korea1.220" unicode="&#x25b6;" 
d="M156 -16l627 406l-627 406v-812z" />
    <glyph glyph-name="Korea1.221" unicode="&#x2664;" 
d="M511 -9h-123q34 109 34 168q0 29 -6.5 41t-23.5 12q-15 0 -39 -15q-70 -43 -110 -43q-33 0 -53.5 22t-26.5 48t-6 56q0 63 39.5 128.5t106.5 142.5q99 111 146 182q57 -83 148 -182q146 -160 146 -271q0 -30 -6 -56t-26.5 -48t-53.5 -22q-36 0 -110 43q-27 15 -40 15
q-16 0 -22.5 -12t-6.5 -41q0 -58 33 -168zM313 -63h273v31q-43 82 -52 169q73 -43 123 -43q68 0 108 53t40 127q0 86 -41.5 157t-124.5 162q-132 144 -189 238q-18 -31 -43 -65t-44 -56.5t-53 -60t-50 -56.5q-54 -62 -84 -102t-55.5 -99.5t-25.5 -117.5q0 -74 39.5 -127
t108.5 -53q55 0 123 43q-10 -88 -53 -169v-31z" />
    <glyph glyph-name="Korea1.222" unicode="&#x2660;" 
d="M316 -54h267v30q-42 82 -51 166q67 -42 121 -42q67 0 106 52t39 124q0 45 -11.5 84.5t-38.5 82t-48.5 69.5t-64.5 77q-7 8 -45.5 51.5t-53 61.5t-41 53.5t-45.5 66.5q-17 -30 -41.5 -63.5t-43.5 -55.5t-52 -58.5t-49 -55.5q-53 -61 -82 -100t-54.5 -97.5t-25.5 -115.5
q0 -73 39 -124.5t106 -51.5q62 0 121 42q-9 -85 -52 -166v-30z" />
    <glyph glyph-name="Korea1.223" unicode="&#x2661;" 
d="M745 571q0 -47 -20.5 -104t-49.5 -106t-73 -107t-76.5 -95.5t-74.5 -82.5q-7 8 -49.5 57t-58.5 69t-53 67t-54.5 77.5t-39.5 73t-31.5 80.5t-9.5 74q0 68 39.5 104t98.5 36q28 0 53 -13.5t46.5 -40t32 -43t25.5 -42.5l11 18q16 27 25.5 41t29.5 36.5t44.5 33t54.5 10.5
q61 0 95.5 -41.5t34.5 -101.5zM808 573q0 93 -50 145.5t-142 52.5q-53 0 -90.5 -26.5t-76.5 -75.5q-24 42 -67 72t-100 30q-84 0 -137.5 -50.5t-53.5 -139.5q0 -70 33 -150t95.5 -164.5t110 -140t119.5 -131.5q359 362 359 578z" />
    <glyph glyph-name="Korea1.224" unicode="&#x2665;" 
d="M801 569q0 91 -49 142.5t-139 51.5q-53 0 -89.5 -26t-74.5 -74q-23 41 -65 70.5t-99 29.5q-82 0 -134.5 -49.5t-52.5 -136.5q0 -56 24.5 -121.5t57 -120.5t87 -123.5t91 -109t91.5 -99.5q352 355 352 566z" />
    <glyph glyph-name="Korea1.225" unicode="&#x2667;" 
d="M522 8h-144q38 111 38 186q0 37 -23 42q-27 6 -47 -13q-27 -25 -45.5 -39.5t-46 -27.5t-51.5 -13q-57 0 -87 40t-30 99q0 55 32.5 95.5t83.5 40.5q79 0 142 -34q22 -12 40.5 1.5t18.5 36.5q0 17 -13 34q-26 36 -40 57t-29 56t-15 63q0 62 42.5 91.5t100.5 29.5
q65 0 105.5 -32t40.5 -89q0 -71 -61 -145q-37 -45 -37 -67t22.5 -34t41.5 1q43 18 68.5 24.5t66.5 6.5q54 0 86 -40t32 -96q0 -59 -31 -99t-88 -40q-59 0 -140 77q-24 21 -49 16q-9 -2 -15 -16t-6 -32q0 -39 11 -93.5t26 -86.5zM583 -36v30q-41 81 -50 182q15 -9 37 -33
q50 -53 126 -53q78 0 128 55.5t50 136.5q0 76 -48.5 130.5t-128.5 54.5q-76 0 -128 -29q-11 -6 -11 1q-1 4 5 12q87 102 87 181q0 75 -57.5 122t-143.5 47q-82 0 -140.5 -45.5t-58.5 -123.5q0 -76 92 -185q8 -10 3 -14q-2 -1 -6 1q-63 33 -138 33q-77 0 -126 -55t-49 -130
q0 -81 49.5 -136.5t126.5 -55.5q79 0 128 53q26 26 38 34q-5 -98 -51 -185v-28h266z" />
    <glyph glyph-name="Korea1.226" unicode="&#x2663;" 
d="M580 -28v30q-40 81 -49 178q14 -9 37 -32q49 -52 123 -52q76 0 125.5 54t49.5 134q0 74 -48 127.5t-126 53.5q-73 0 -125 -28q-11 -6 -11 1q-1 4 5 12q85 100 85 177q0 74 -56 120t-141 46q-81 0 -138 -45t-57 -121q0 -78 90 -182v1q8 -10 3 -14q-2 -1 -6 1v-1
q-58 33 -135 33q-76 0 -124 -53.5t-48 -127.5q0 -80 48.5 -134t124.5 -54q77 0 125 52q28 27 38 33q-2 -45 -17 -96t-33 -85v-28h260z" />
    <glyph glyph-name="Korea1.227" unicode="&#x25c9;" 
d="M537 367q0 36 -25 61t-62 25t-62 -25t-25 -61t25 -61t62 -25t62 25t25 61zM101 367q0 144 102.5 248t245.5 104q144 0 246.5 -104t102.5 -248q0 -145 -102.5 -249.5t-246.5 -104.5q-143 0 -245.5 104.5t-102.5 249.5zM865 367q0 170 -122.5 291.5t-293.5 121.5
q-172 0 -293.5 -121t-121.5 -292t121.5 -293t293.5 -122q171 0 293.5 122t122.5 293z" />
    <glyph glyph-name="Korea1.228" unicode="&#x25c8;" 
d="M450 -62l428 444l-428 444l-428 -444zM450 740l340 -357l-340 -359l-340 359zM450 162l210 220l-210 221l-211 -221z" />
    <glyph glyph-name="Korea1.229" unicode="&#x25a3;" 
d="M244 176h409v411h-409v-411zM55 -13h789v792h-789v-792zM783 718v-669h-665v669h665z" />
    <glyph glyph-name="Korea1.230" unicode="&#x25d0;" 
d="M454 45v676q136 -2 233.5 -102t97.5 -236t-97.5 -236t-233.5 -102zM849 383q0 164 -117.5 281.5t-281.5 117.5t-281.5 -117.5t-117.5 -281.5t118 -282t281 -118q164 0 281.5 118t117.5 282z" />
    <glyph glyph-name="Korea1.231" unicode="&#x25d1;" 
d="M445 721v-676q-136 2 -233 102t-97 236t97 236t233 102zM51 383q0 -164 117 -282t281 -118t282 118t118 282t-118 281.5t-282 117.5t-281 -117.5t-117 -281.5z" />
    <glyph glyph-name="Korea1.232" unicode="&#x2592;" 
d="M402 -10h94v96h-94v-96zM633 86v-96h94v96h-94zM612 -10v96h-95v-96h95zM267 -10v96h-94v-96h94zM150 -10v96h-95v-96h95zM380 -10v96h-92v-96h92zM748 86v-96h96v96h-96zM402 107h94v92h-94v-92zM633 199v-92h94v92h-94zM612 107v92h-95v-92h95zM267 107v92h-94v-92h94z
M150 107v92h-95v-92h95zM380 107v92h-92v-92h92zM748 199v-92h96v92h-96zM402 220h94v92h-94v-92zM633 312v-92h94v92h-94zM612 220v92h-95v-92h95zM267 220v92h-94v-92h94zM150 220v92h-95v-92h95zM380 220v92h-92v-92h92zM748 312v-92h96v92h-96zM402 334h94v95h-94v-95z
M633 429v-95h94v95h-94zM612 334v95h-95v-95h95zM267 334v95h-94v-95h94zM150 334v95h-95v-95h95zM380 334v95h-92v-95h92zM748 429v-95h96v95h-96zM402 452h94v91h-94v-91zM633 543v-91h94v91h-94zM612 452v91h-95v-91h95zM267 452v91h-94v-91h94zM150 452v91h-95v-91h95z
M380 452v91h-92v-91h92zM748 543v-91h96v91h-96zM402 564h94v94h-94v-94zM633 658v-94h94v94h-94zM612 564v94h-95v-94h95zM267 564v94h-94v-94h94zM150 564v94h-95v-94h95zM380 564v94h-92v-94h92zM748 658v-94h96v94h-96zM402 679h94v99h-94v-99zM633 778v-99h94v99h-94z
M612 679v99h-95v-99h95zM267 679v99h-94v-99h94zM150 679v99h-95v-99h95zM380 679v99h-92v-99h92zM748 778v-99h96v99h-96z" />
    <glyph glyph-name="Korea1.233" unicode="&#x25a4;" 
d="M844 779h-789v-790h789v790zM112 48v127h675v-127h-675zM112 230v128h675v-128h-675zM112 413v128h675v-128h-675zM112 596v128h675v-128h-675z" />
    <glyph glyph-name="Korea1.234" unicode="&#x25a5;" 
d="M55 779v-790h789v790h-789zM787 44h-128v680h128v-680zM603 44h-127v680h127v-680zM420 44h-126v680h126v-680zM238 44h-126v680h126v-680z" />
    <glyph glyph-name="Korea1.235" unicode="&#x25a8;" 
d="M844 779h-789v-790h789v790zM787 129v-85h-84q11 11 39.5 40t44.5 45zM787 400v-194q-28 -28 -82.5 -83.5t-76.5 -78.5h-196zM787 684v-202q-70 -70 -218 -218.5t-219 -219.5h-195q448 454 632 640zM747 725l-635 -643v206q69 69 218 219.5t216 217.5h201zM463 725
l-351 -358v196q122 127 155 162h196zM195 725l-83 -86v86h83z" />
    <glyph glyph-name="Korea1.236" unicode="&#x25a7;" 
d="M55 -11h789v790h-789v-790zM787 724v-85q-15 15 -42.5 43t-41.5 42h84zM787 562v-194l-355 356h196q22 -23 76.5 -78.5t82.5 -83.5zM787 286v-202q-184 186 -632 640h195q288 -290 437 -438zM112 686l635 -642h-201q-232 231 -434 437v205zM112 401l351 -357h-196
q-24 26 -77.5 80.5t-77.5 80.5v196zM112 129l83 -85h-83v85z" />
    <glyph glyph-name="Korea1.237" unicode="&#x25a6;" 
d="M844 779h-789v-790h789v790zM477 230v128h126v-128h-126zM477 413v128h126v-128h-126zM294 230v128h126v-128h-126zM294 413v128h126v-128h-126zM477 44v131h126v-131h-126zM660 230v128h127v-128h-127zM294 44v131h126v-131h-126zM660 413v128h127v-128h-127zM112 230
v128h125v-128h-125zM603 724v-128h-126v128h126zM660 44v131h127v-131h-127zM112 413v128h125v-128h-125zM420 724v-128h-126v128h126zM112 44v131h125v-131h-125zM787 724v-128h-127v128h127zM112 596v128h125v-128h-125z" />
    <glyph glyph-name="Korea1.238" unicode="&#x25a9;" 
d="M55 -11h789v790h-789v-790zM309 282l-102 102l102 102l102 -102zM447 141l-98 99l101 104l99 -100zM447 626l102 -102l-99 -100l-101 104zM589 284l-98 100l98 99l100 -99zM171 626l97 -98l-101 -105l-55 58v82zM112 205v83l55 56l101 -104l-97 -98zM545 44l-57 57
l101 101l98 -98l-59 -60h-83zM787 562v-80l-57 -58l-100 102l97 97zM407 101l-57 -57h-84l-56 57l99 99zM134 106l-22 -24v48zM787 684v-45l-23 23zM787 129v-45l-23 22zM703 44l22 22l21 -22h-43zM175 64l19 -20h-39zM194 724l-19 -21l-20 21h39zM127 384l-15 -16v32z
M787 368l-16 16l16 16v-32zM446 708l-14 16h30zM462 44h-30l14 16zM727 144l-97 98l100 101l57 -57v-80zM747 724l-22 -22l-23 22h45zM545 724h83l59 -60l-98 -99l-101 102zM309 568l-99 99l56 57h84l57 -56zM112 638v48l22 -23z" />
    <glyph glyph-name="Korea1.239" unicode="&#x2668;" 
d="M642 358q0 46 -21 117q-20 78 -20 110q0 24 8 71.5t9 64.5q3 36 -9 61h-16q-6 -28 -36.5 -91t-30.5 -98q0 -43 20 -115q18 -65 18 -106q0 -32 -12.5 -89.5t-14.5 -83.5q-3 -40 10 -71h14q6 42 43.5 113.5t37.5 116.5zM521 372q0 40 -23 115q-21 76 -21 106q0 26 10.5 73
t11.5 74q2 48 -19 88l-19 1q-2 -39 -35.5 -117t-33.5 -124q0 -40 23 -115q21 -71 21 -109q0 -32 -14.5 -89t-17.5 -77q-4 -31 8 -77h16q7 24 50 109.5t43 141.5zM382 358q0 30 -20 112q-21 71 -21 117q0 23 7.5 67.5t8.5 67.5q2 36 -7 61h-17q-3 -33 -33 -96t-30 -94
q0 -40 17 -119q16 -72 16 -108q0 -31 -13 -86t-16 -80q-1 -39 16 -72h16q3 36 39.5 107.5t36.5 122.5zM841 201q0 30 -16.5 56.5t-44.5 44.5t-55.5 30.5t-58.5 21.5l-10 -19q116 -57 116 -113q0 -39 -37 -66t-95 -39t-106 -16.5t-94 -4.5q-57 0 -98 3t-94.5 13t-83 35
t-29.5 63q0 39 46.5 76.5t98.5 57.5l-6 19q-46 -11 -91 -31t-85 -59t-40 -85q0 -59 41.5 -101t108 -61.5t125.5 -27.5t117 -8q45 0 90 4t101.5 18t99 35.5t71.5 61.5t29 92z" />
    <glyph glyph-name="Korea1.240" unicode="&#x260f;" 
d="M545 570v67q-63 -7 -91 -7q-39 0 -104 12v-73q0 -35 48 -35h96q51 0 51 36zM514 609v-30q0 -14 -5.5 -19t-21.5 -5h-81q-27 0 -27 28v30q39 -9 74 -9q28 0 61 5zM752 105h-604q-17 0 -19.5 8.5t2.5 26.5q12 87 40 137q16 28 59 77q38 40 54 66q32 52 32 115q0 60 -3 102
q-2 22 -21 22q-45 0 -72 -26t-27 -54q0 -11 8 -31q10 -22 10 -27q0 -13 -32 -30q-56 -28 -94 -28q-11 0 -18 9.5t-7 24.5q0 57 40.5 100t101.5 67q95 39 247 39q154 0 249 -39q61 -24 101 -67t40 -100q0 -34 -24 -34q-38 0 -94 28q-32 17 -32 30q0 5 10 27q7 18 7 31
q0 28 -26.5 54t-71.5 26q-19 0 -21 -22q-3 -42 -3 -102q0 -63 32 -115q16 -26 54 -66q43 -49 59 -77q28 -50 40 -137q5 -18 2.5 -26.5t-19.5 -8.5zM450 464q-72 0 -122.5 -46t-50.5 -118q0 -73 51.5 -117.5t120.5 -44.5q70 0 122 44.5t52 117.5q0 72 -50 118t-123 46z
M450 170q-57 0 -97.5 37t-40.5 93q0 58 40.5 95.5t96.5 37.5q58 0 98.5 -37t40.5 -96q0 -56 -40 -93t-98 -37zM128 67h642q47 0 47 38q0 8 -9 55q-17 84 -42 132q-6 12 -14.5 24t-14.5 19t-17.5 20.5t-15.5 18.5q-1 2 -22.5 26.5t-31.5 39.5q-17 29 -24 47.5t-7 47.5
q0 60 5 88q19 -2 32 -13t13 -27t-8 -37q-8 -19 -8 -31q0 -34 51 -57q66 -32 124 -32q50 0 50 69t-45.5 122.5t-111.5 80.5q-100 40 -271 40t-271 -40q-67 -27 -112 -80t-45 -123q0 -69 50 -69q58 0 124 32q51 23 51 57q0 12 -8 31q-8 21 -8 37t13 27t32 13q5 -28 5 -88
q0 -29 -7 -47.5t-24 -47.5q-10 -15 -31.5 -39.5t-22.5 -26.5q-4 -5 -15.5 -18.5t-17.5 -20.5t-14.5 -19t-14.5 -24q-25 -48 -42 -132q-9 -47 -9 -55q0 -38 45 -38z" />
    <glyph glyph-name="Korea1.241" unicode="&#x260e;" 
d="M547 637v-67q0 -36 -51 -36h-95q-49 0 -49 35v73q65 -12 104 -12q28 0 91 7zM451 464q73 0 123 -46t50 -118q0 -73 -52 -117.5t-122 -44.5q-69 0 -120.5 44.5t-51.5 117.5q0 72 50.5 118t122.5 46zM117 67h666q32 0 32 42q0 23 -12 71.5t-26 85.5q-15 41 -71 104
q-37 38 -57 74q-18 32 -25 53t-7 55q0 11 2.5 39.5t2.5 31.5q21 -2 33.5 -14t12.5 -30q0 -16 -8 -32q-9 -16 -9 -30q0 -35 51 -59q66 -32 119 -32q27 0 42 20.5t15 56.5q0 96 -96 162q-109 73 -332 73q-224 0 -333 -73q-95 -66 -95 -162q0 -36 15 -56.5t42 -20.5
q53 0 119 32q51 24 51 59q0 14 -9 30q-9 18 -9 32q0 18 13 30t34 14q0 -3 2.5 -31.5t2.5 -39.5q0 -34 -7 -55t-25 -53q-20 -36 -57 -74q-56 -63 -71 -104q-14 -37 -26 -85.5t-12 -71.5q0 -42 32 -42z" />
    <glyph glyph-name="Korea1.242" unicode="&#x261c;" 
d="M154 442q22 -1 62.5 -3.5t63.5 -3.5q-35 -14 -35 -43q0 -26 34 -36q-15 -16 -7.5 -36t30.5 -26q-21 -16 -7.5 -40.5t49.5 -29.5q40 -5 97 -5q205 0 284 61h13v-23h114v256h-113v-31h-16q-16 0 -47 17q-46 29 -96 37t-143 8q-156 2 -280 -1q-129 -4 -129 -52
q0 -49 126 -49zM340 466q-11 0 -182 8q-55 2 -73.5 6t-18.5 13q0 17 92 20q42 2 127 2h104q-16 -7 -29.5 -21.5t-19.5 -27.5zM797 482v-193h-24v193h24zM419 410q9 -1 14.5 -6t5.5 -10t-3 -8q-10 -6 -58 -6q-52 0 -76 4q-11 2 -16.5 7t-0.5 12q11 14 63 14q24 0 71 -7z
M476 276q0 -23 -76 -23q-39 0 -62 7q-8 3 -10 9.5t1 11.5t10 5l82 1q55 1 55 -11zM459 336q0 -9 -15.5 -13.5t-29.5 -4.5q-81 0 -96 4q-12 3 -10.5 15t13.5 12h102q36 0 36 -13zM723 451h16v-138h-22q-58 -49 -219 -62q13 10 13 29q0 10 -10 20t-19 12q12 6 12 21
q0 12 -10 22t-20 13q14 10 11 26q-5 27 -38 36l3 3q29 -5 46 0q22 -40 89 -63q13 -4 35 -8t43.5 -2t21.5 13q0 7 -14.5 10.5t-38.5 6.5t-36 8q-54 19 -63 35q10 22 10 33q-1 6 -8.5 7.5t-16.5 -3.5q-29 -15 -58 -11q5 18 -6 20q-13 3 -28 -15q-22 -25 -55 -19
q19 29 34.5 42.5t47.5 27.5q154 11 218 -44q24 -20 62 -20z" />
    <glyph glyph-name="Korea1.243" unicode="&#x261e;" 
d="M746 442q126 0 126 49q0 48 -129 52q-124 3 -280 1q-93 0 -143 -8t-96 -37q-31 -17 -47 -17h-16v31h-113v-256h114v23h13q79 -61 284 -61q57 0 97 5q36 5 49.5 29.5t-7.5 40.5q23 6 30.5 26t-7.5 36q34 10 34 36q0 29 -35 43q23 1 63.5 3.5t62.5 3.5zM560 466
q-6 13 -19.5 27.5t-29.5 21.5h104.5t126.5 -2q92 -3 92 -20q0 -9 -18.5 -13t-73.5 -6q-171 -8 -182 -8zM103 289v193h24v-193h-24zM481 410q47 7 71 7q52 0 63 -14q5 -7 -0.5 -12t-16.5 -7q-24 -4 -76 -4q-48 0 -58 6q-3 3 -3 8t5.5 10t14.5 6zM424 276q0 12 55 11l82 -1
q11 0 12 -11t-11 -15q-23 -7 -62 -7q-76 0 -76 23zM441 336q0 13 36 13h102q12 0 13.5 -12t-10.5 -15q-15 -4 -96 -4q-14 0 -29.5 4.5t-15.5 13.5zM161 451h16q38 0 62 20q64 55 218 44q32 -14 47.5 -27.5t34.5 -42.5q-33 -6 -55 19q-15 18 -28 15q-11 -2 -6 -20
q-29 -4 -58 11q-9 5 -16.5 3.5t-8.5 -7.5q0 -11 10 -33q-9 -16 -63 -35q-12 -5 -36 -8t-38.5 -6.5t-14.5 -10.5q0 -11 21.5 -13t43.5 2t35 8q67 23 89 63q17 -5 46 0l3 -3q-33 -9 -38 -36q-3 -16 11 -26q-10 -3 -20 -13t-10 -22q0 -15 12 -21q-9 -2 -19 -12t-10 -20
q0 -19 13 -29q-161 13 -219 62h-22v138z" />
    <glyph glyph-name="Korea1.244" unicode="&#xb6;" 
d="M583 809h-160q-90 0 -146.5 -59.5t-56.5 -142.5q0 -87 55 -145t143 -58v-446h57v798h51v-798h57v851z" />
    <glyph glyph-name="Korea1.245" unicode="&#x2020;" 
d="M394 -54h111v585h158v87h-158v187h-111v-187h-157v-87h157v-585z" />
    <glyph glyph-name="Korea1.246" unicode="&#x2021;" 
d="M395 -54h110v415h157v86h-157v98h157v85h-157v175h-110v-175h-156v-85h156v-98h-156v-86h156v-415z" />
    <glyph glyph-name="Korea1.247" unicode="&#x2195;" 
d="M498 121v484l147 -88l16 14l-210 308l-212 -308l16 -15l147 88v-483l-147 89l-16 -15l212 -308l210 308l-16 14z" />
    <glyph glyph-name="Korea1.248" unicode="&#x2197;" 
d="M96 95l67 -70q155 156 503 504l21 -164h27l89 367l-382 -86v-24l181 -20z" />
    <glyph glyph-name="Korea1.249" unicode="&#x2199;" 
d="M803 665l-67 70q-249 -250 -504 -504l-21 164h-26l-89 -367l382 86v24l-181 20z" />
    <glyph glyph-name="Korea1.250" unicode="&#x2196;" 
d="M736 24l68 70l-507 508l181 20v24l-382 86l89 -367h27l20 164z" />
    <glyph glyph-name="Korea1.251" unicode="&#x2198;" 
d="M163 736l-67 -70q78 -78 252.5 -253t254.5 -255l-181 -20v-24l382 -86l-90 367h-27l-20 -164z" />
    <glyph glyph-name="Korea1.252" unicode="&#x266d;" 
d="M643 348q0 60 -41.5 105.5t-103.5 45.5q-73 0 -132 -57v302h-58v-704q78 11 154 54t128.5 111.5t52.5 142.5zM531 357q0 -79 -45.5 -146.5t-119.5 -107.5v274q49 63 99 63q34 0 50 -23.5t16 -59.5z" />
    <glyph glyph-name="Korea1.253" unicode="&#x2669;" 
d="M521 795h-44v-586q0 -18 -6.5 -23.5t-24.5 -8.5q-52 -9 -98.5 -46.5t-54.5 -79.5q-6 -34 8.5 -54t41.5 -24q62 -8 113 46q65 67 65 139v637z" />
    <glyph glyph-name="Korea1.254" unicode="&#x266a;" 
d="M414 158v446q29 -28 90 -71q29 -21 42 -31t35 -31t32.5 -42t12.5 -45q8 -91 -134 -219l21 -18q86 54 145 127.5t49 158.5q-4 35 -20.5 68t-46 63t-51 48t-56.5 45q-82 61 -130 138h-34v-586q0 -18 -6 -23.5t-25 -8.5q-52 -9 -98.5 -46.5t-54.5 -79.5q-6 -34 8.5 -54
t42.5 -24q61 -8 113 46q65 69 65 139z" />
    <glyph glyph-name="Korea1.255" unicode="&#x266c;" 
d="M273 449l432 96v-233q0 -18 -27 -20q-53 -4 -108 -48t-52 -104q1 -27 23 -41t50 -14q58 0 104 58q23 26 36.5 59t13.5 57v573l-511 -111v-502q0 -18 -6.5 -24t-25.5 -9q-51 -9 -97 -46t-55 -79q-7 -34 7.5 -54.5t42.5 -24.5q61 -9 113 46q60 62 60 140v281zM705 662
l-432 -101v48l432 99v-46z" />
    <glyph glyph-name="Korea1.256" unicode="&#x327f;" horiz-adv-x="1110" 
d="M1020 418h-256v-104h156q-18 -135 -122.5 -228t-241.5 -94q-103 0 -192 55t-136 148h-109q32 -95 102.5 -165.5t157 -105t177.5 -34.5q128 0 235.5 64t170 174t62.5 240q0 16 -4 50zM303 312v104l-113 -2q18 137 122 230.5t242 93.5q103 1 192 -53.5t136 -148.5h110
q-61 147 -180.5 226t-258.5 79q-128 0 -235.5 -63.5t-169.5 -173.5t-61 -240q0 -35 2 -52h214zM764 535h-169l-148 -104v104h-102v-339h102v111l88 63l102 -174h116l-137 234z" />
    <glyph glyph-name="Korea1.257" unicode="&#x321c;" horiz-adv-x="1110" 
d="M289 648h206v-27q0 -51 -61 -97q-81 -61 -171 -103l40 -70q94 40 184 100q41 28 65 61q98 -48 236 -157l37 39q17 18 4 31q-40 40 -109 88t-131 80q3 15 3 30v25h220v72h-523v-72zM507 -51h97v281h305v72h-707v-72h305v-281zM154 351q0 115 35 245.5t100 214.5l-43 32
q-83 -68 -128 -214t-45 -278q0 -128 44 -269.5t129 -212.5l43 32q-62 74 -98.5 205.5t-36.5 244.5zM955 351q0 -113 -36.5 -244.5t-98.5 -205.5l43 -32q85 71 129 212.5t44 269.5q0 132 -45 278t-128 214l-43 -32q65 -84 100 -214.5t35 -245.5z" />
    <glyph glyph-name="Korea1.258" unicode="&#x2116;" 
d="M480 0h379v86h-379v-86zM759 389q0 -94 -26 -135.5t-64 -41.5t-64 41.5t-26 135.5t26 135.5t64 41.5t64 -41.5t26 -135.5zM330 751v-479q-23 119 -68.5 252t-94.5 227h-113v-751h98v568q96 -206 161 -568h116v751h-99zM859 389q0 125 -50.5 191.5t-139.5 66.5
t-139.5 -66.5t-50.5 -191.5t50.5 -191.5t139.5 -66.5t139.5 66.5t50.5 191.5z" />
    <glyph glyph-name="Korea1.259" unicode="&#x33c7;" horiz-adv-x="920" 
d="M293 648q54 0 113 -22l23 73q-83 31 -137 31q-85 0 -144 -48t-85.5 -127.5t-26.5 -183.5q0 -70 6.5 -124.5t23.5 -105.5t45.5 -84t75.5 -53t110 -20q75 0 146 38l-18 70q-73 -26 -125 -26q-39 0 -67 15.5t-44.5 41t-26 66.5t-12.5 82t-3 98q0 124 37 201.5t109 77.5z
M716 257q0 -199 -102 -199t-102 199t102 199t102 -199zM820 257q0 125 -52.5 200t-153.5 75t-153.5 -75.5t-52.5 -199.5t52.5 -200t153.5 -76t153.5 75.5t52.5 200.5zM801 51q0 -26 15 -42t37 -16t37 16t15 42t-15 42t-37 16t-37 -16t-15 -42z" />
    <glyph glyph-name="Korea1.260" unicode="&#x2122;" 
d="M699 824l-80 -279q-35 159 -104 279h-89l-66 -440h92l43 289q36 -87 72 -273h98l76 265q29 -118 37 -281h90q-17 256 -84 440h-85zM260 748h124v76h-349v-76h123v-364h102v364z" />
    <glyph glyph-name="Korea1.261" unicode="&#x33c2;" horiz-adv-x="920" 
d="M652 0v410q0 18 -3 33q21 7 35 7q33 0 33 -40v-410h87v416q0 54 -27 83.5t-74 29.5q-40 0 -86 -24q-27 24 -75 24q-34 0 -130 -39v-490h86v440q35 10 38 10q29 0 29 -41v-409h87zM20 158q0 -74 33.5 -124t95.5 -50q65 0 143 41v376q0 128 -124 128q-36 0 -101 -23l10 -64
q70 11 78 11q47 0 47 -46v-72q-35 5 -45 5q-137 0 -137 -182zM202 263v-199q-21 -6 -43 -6q-27 0 -42 27.5t-15 73.5q0 107 58 107q32 0 42 -3zM299 51q0 -26 15 -42t37 -16t37 16t15 42t-15 42t-37 16t-37 -16t-15 -42zM811 51q0 -26 15 -42t37 -16t37 16t15 42t-15 42
t-37 16t-37 -16t-15 -42z" />
    <glyph glyph-name="Korea1.262" unicode="&#x33d8;" horiz-adv-x="920" 
d="M34 487v-712h98v219q26 -10 54 -10q142 0 142 272q0 131 -36 202t-107 71q-47 0 -151 -42zM655 0v410q0 18 -3 33q21 7 35 7q33 0 33 -40v-410h87v416q0 54 -27 83.5t-74 29.5q-40 0 -86 -24q-27 24 -75 24q-34 0 -130 -39v-490h86v440q35 10 38 10q29 0 29 -41v-409h87z
M132 70v374q22 6 39 6q36 0 47.5 -45.5t11.5 -148.5q0 -195 -54 -195q-25 0 -44 9zM301 51q0 -26 15 -42t37 -16t37 16t15 42t-15 42t-37 16t-37 -16t-15 -42zM813 51q0 -26 15 -42t37 -16t37 16t15 42t-15 42t-37 16t-37 -16t-15 -42z" />
    <glyph glyph-name="Korea1.263" unicode="&#x2121;" 
d="M127 0h106v657h115v94h-340v-94h119v-657zM862 -18l37 60q-24 20 -35 42.5t-11 67.5v620l-106 -10v-613q0 -62 24.5 -103.5t90.5 -63.5zM529 66q-119 0 -119 174h288q2 49 1 77q-1 35 -6.5 66.5t-19 65t-34.5 57.5t-56 39.5t-80 15.5q-101 0 -152 -76t-51 -216
q0 -285 218 -285q76 0 154 38l-17 72q-5 -2 -17 -6t-16 -5.5t-14 -4.5l-15 -4.5t-14 -3t-15.5 -2.5t-15.5 -1.5t-19 -0.5zM410 321q7 159 93 159q87 0 92 -159h-185z" />
    <glyph glyph-name="Korea1.264" unicode="&#xff01;" 
d="M513 780h-124l18 -613h88zM375 12q0 -34 21.5 -54.5t53.5 -20.5t53.5 20.5t21.5 54.5t-21.5 54.5t-53.5 20.5t-53.5 -20.5t-21.5 -54.5z" />
    <glyph glyph-name="Korea1.265" unicode="&#xff02;" 
d="M338 757l10 -176h56l13 176v73h-79v-73zM483 757l10 -176h56l13 176v73h-79v-73z" />
    <glyph glyph-name="Korea1.266" unicode="&#xff03;" 
d="M720 293h-93l21 146h102v81h-91l30 212h-100l-30 -212h-169l30 212h-100l-30 -212h-112v-81h101l-21 -146h-108v-81h97l-30 -212h100l30 212h169l-30 -212h100l30 212h104v81zM358 293l21 146h169l-21 -146h-169z" />
    <glyph glyph-name="Korea1.267" unicode="&#xff04;" 
d="M484 -79v86q92 13 142 61t50 128q0 65 -32.5 104.5t-101.5 82.5q-47 28 -58 34v230q40 -2 149 -18l11 69q-91 24 -160 29v84h-69v-84q-88 -6 -138 -48t-50 -122q0 -89 95 -153q35 -23 93 -54v-265q-77 0 -179 26l-12 -70q96 -38 190 -38h1v-82h69zM565 194
q0 -77 -81 -101v217h1q44 -27 62 -52.5t18 -63.5zM338 559q0 69 77 85v-188q-9 4 -17 11q-60 39 -60 92z" />
    <glyph glyph-name="Korea1.268" unicode="&#xff05;" 
d="M594 752l-394 -732h98l394 732h-98zM59 591q0 -75 53.5 -124.5t130.5 -49.5t130.5 49.5t53.5 124.5t-53.5 124.5t-130.5 49.5t-130.5 -49.5t-53.5 -124.5zM158 591q0 48 22.5 79t62.5 31t62.5 -31t22.5 -79t-22.5 -79t-62.5 -31t-62.5 31t-22.5 79zM472 181
q0 -75 53.5 -124.5t130.5 -49.5t130.5 49.5t53.5 124.5t-53.5 124.5t-130.5 49.5t-130.5 -49.5t-53.5 -124.5zM571 181q0 48 22.5 79t62.5 31t62.5 -31t22.5 -79t-22.5 -79t-62.5 -31t-62.5 31t-22.5 79z" />
    <glyph glyph-name="Korea1.269" unicode="&#xff06;" 
d="M242 628q0 -55 49 -126l28 -41q-150 -112 -150 -262q0 -91 64.5 -153.5t179.5 -62.5q60 0 117.5 24.5t93.5 61.5q60 -55 151 -72l29 52q-82 39 -123 91q65 110 81 243h-87q-18 -94 -53 -169l-242 329q-35 48 -35 86q0 59 90 59q51 0 159 -17l11 69q-108 29 -174 29
q-189 0 -189 -141zM373 391l191 -255q-62 -73 -152 -73q-70 0 -107 41t-37 97q0 54 30 105.5t75 84.5z" />
    <glyph glyph-name="Korea1.270" unicode="&#xff07;" 
d="M408 757l10 -176h61l13 176v73h-84v-73z" />
    <glyph glyph-name="Korea1.271" unicode="&#xff08;" 
d="M746 364q0 117 35 243t101 211l-62 43q-58 -47 -100 -138.5t-59.5 -183.5t-17.5 -175q0 -81 16.5 -174.5t59 -190.5t101.5 -147l62 43q-63 75 -99.5 213.5t-36.5 255.5z" />
    <glyph glyph-name="Korea1.272" unicode="&#xff09;" 
d="M154 364q0 -117 -36.5 -255.5t-99.5 -213.5l62 -43q59 50 101.5 147t59 190.5t16.5 174.5q0 83 -17.5 175t-59.5 183.5t-100 138.5l-62 -43q66 -85 101 -211t35 -243z" />
    <glyph glyph-name="Korea1.273" unicode="&#xff0a;" 
d="M477 343l16 148l141 -87l31 47l-141 112l141 108l-31 47l-141 -87l-16 152h-60l-11 -150l-141 87l-31 -47l141 -108l-141 -112l31 -47l141 87l11 -150h60z" />
    <glyph glyph-name="Korea1.274" unicode="&#xff0b;" 
d="M214 440v-83h185v-236h101v236h186v83h-186v235h-101v-235h-185z" />
    <glyph glyph-name="Korea1.275" unicode="&#xff0c;" 
d="M66 32q0 -31 19.5 -52t53.5 -23q0 -65 -91 -97l12 -45q70 10 115.5 56.5t45.5 136.5q0 47 -21.5 73t-58.5 26q-32 0 -53.5 -20.5t-21.5 -54.5z" />
    <glyph glyph-name="Korea1.276" unicode="&#xff0d;" 
d="M249 440v-83h402v83h-402z" />
    <glyph glyph-name="Korea1.277" unicode="&#xff0e;" 
d="M66 32q0 -34 21.5 -54.5t53.5 -20.5t53.5 20.5t21.5 54.5t-21.5 54.5t-53.5 20.5t-53.5 -20.5t-21.5 -54.5z" />
    <glyph glyph-name="Korea1.278" unicode="&#xff0f;" 
d="M867 839h-117l-717 -919h115z" />
    <glyph glyph-name="Korea1.279" unicode="&#xff10;" 
d="M594 376q0 -149 -31.5 -228t-112.5 -79t-112.5 79t-31.5 228t31.5 228t112.5 79t112.5 -79t31.5 -228zM705 376q0 393 -255 393t-255 -393t255 -393t255 393z" />
    <glyph glyph-name="Korea1.280" unicode="&#xff11;" 
d="M675 0v85h-155v667h-77q-72 -42 -198 -86l22 -69q87 20 140 44v-556h-174v-85h442z" />
    <glyph glyph-name="Korea1.281" unicode="&#xff12;" 
d="M331 84v16l169 180q8 9 37 39.5t41.5 44.5t35 43t33 50.5t19.5 50.5t9 58q0 92 -61.5 147.5t-176.5 55.5q-97 0 -206 -43l17 -75q128 32 185 32q64 0 96.5 -30t32.5 -83q0 -28 -11 -56.5t-32.5 -58t-40 -50.5t-48 -52t-41.5 -44l-135 -144q-21 -22 -28.5 -38.5
t-7.5 -45.5v-81h464v84h-351z" />
    <glyph glyph-name="Korea1.282" unicode="&#xff13;" 
d="M393 70q-85 0 -167 28l-19 -77q37 -16 92.5 -27t96.5 -11q135 0 215.5 68.5t80.5 178.5q0 98 -66.5 163t-164.5 68l196 261l-32 30h-374v-85h250l-194 -255l42 -34q45 9 69 9q73 0 117 -42.5t44 -115.5q0 -74 -52 -116.5t-134 -42.5z" />
    <glyph glyph-name="Korea1.283" unicode="&#xff14;" 
d="M614 280v472h-170l-255 -446q-17 -28 -17 -51v-59h332v-196h110v196h94v84h-94zM504 653v-373h-213l211 373h2z" />
    <glyph glyph-name="Korea1.284" unicode="&#xff15;" 
d="M264 752v-341l35 -25q50 14 100 14q175 0 175 -166q0 -77 -49.5 -120.5t-132.5 -43.5q-79 0 -161 28l-19 -77q89 -38 181 -38q134 0 214 70t80 181q0 113 -72.5 180.5t-182.5 67.5q-29 0 -56 -3v188h247v85h-359z" />
    <glyph glyph-name="Korea1.285" unicode="&#xff16;" 
d="M629 704l-6 66q-84 6 -169 -20.5t-143 -82.5q-64 -61 -89 -152.5t-25 -216.5q0 -138 65 -226.5t191 -88.5q116 0 182.5 75t66.5 188q0 116 -61.5 183.5t-170.5 67.5q-97 0 -158 -64q14 116 74 176q45 45 102.5 66.5t140.5 28.5zM453 69q-72 0 -112 61.5t-40 145.5
q0 41 13 61q21 32 57 53.5t82 21.5q73 0 105.5 -41.5t32.5 -124.5q0 -73 -33.5 -125t-104.5 -52z" />
    <glyph glyph-name="Korea1.286" unicode="&#xff17;" 
d="M676 731l-24 21h-448v-85h330l-244 -667h118z" />
    <glyph glyph-name="Korea1.287" unicode="&#xff18;" 
d="M450 67q-66 0 -105 39t-39 98t39 107.5t107 73.5q65 -25 103.5 -73.5t38.5 -107.5t-39 -98t-105 -39zM449 450q-53 10 -83.5 43t-30.5 79q0 49 31.5 81t84.5 32q52 0 83 -32t31 -81q0 -46 -31.5 -79t-84.5 -43zM449 -17q112 0 184 61.5t72 159.5q0 139 -134 209
q46 24 74.5 68t28.5 99q0 84 -65.5 136.5t-158.5 52.5t-158.5 -52.5t-65.5 -136.5q0 -109 103 -167q-134 -70 -134 -209q0 -98 72 -159.5t182 -61.5z" />
    <glyph glyph-name="Korea1.288" unicode="&#xff19;" 
d="M336 51l26 -68q340 59 340 489q0 129 -65.5 213t-192.5 84q-114 0 -180.5 -74.5t-66.5 -189.5q0 -114 63.5 -181.5t168.5 -67.5q43 0 88 18.5t70 48.5q-23 -202 -251 -272zM444 683q75 0 115.5 -55.5t38.5 -138.5q0 -41 -12 -62q-52 -86 -144 -86q-134 0 -134 164
q0 80 36 129t100 49z" />
    <glyph glyph-name="Korea1.289" unicode="&#xff1a;" 
d="M375 602q0 -34 21.5 -54.5t53.5 -20.5t53.5 20.5t21.5 54.5t-21.5 54.5t-53.5 20.5t-53.5 -20.5t-21.5 -54.5zM375 152q0 -34 21.5 -54.5t53.5 -20.5t53.5 20.5t21.5 54.5t-21.5 54.5t-53.5 20.5t-53.5 -20.5t-21.5 -54.5z" />
    <glyph glyph-name="Korea1.290" unicode="&#xff1b;" 
d="M375 152q0 -31 19.5 -52t53.5 -23q0 -65 -91 -97l12 -45q70 10 115.5 56.5t45.5 136.5q0 47 -21.5 73t-58.5 26q-32 0 -53.5 -20.5t-21.5 -54.5zM375 602q0 -34 21.5 -54.5t53.5 -20.5t53.5 20.5t21.5 54.5t-21.5 54.5t-53.5 20.5t-53.5 -20.5t-21.5 -54.5z" />
    <glyph glyph-name="Korea1.291" unicode="&#xff1c;" 
d="M654 612v99l-406 -288v-81l406 -289v101l-320 231z" />
    <glyph glyph-name="Korea1.292" unicode="&#xff1d;" 
d="M239 573v-83h422v83h-422zM239 307v-83h422v83h-422z" />
    <glyph glyph-name="Korea1.293" unicode="&#xff1e;" 
d="M247 711v-99l320 -227l-320 -231v-101l406 289v81z" />
    <glyph glyph-name="Korea1.294" unicode="&#xff1f;" 
d="M480 167v41q0 52 19 92.5t58 85.5q103 117 103 210q0 83 -55 138.5t-163 55.5q-82 0 -182 -58l29 -69l20 8t21 8.5t19 7.5t21.5 7t20.5 4.5t24.5 3.5t25.5 1q50 0 78 -30.5t28 -76.5q0 -68 -79 -157q-47 -54 -72 -106.5t-25 -121.5v-44h109zM350 12q0 -34 21.5 -54.5
t53.5 -20.5t53.5 20.5t21.5 54.5t-21.5 54.5t-53.5 20.5t-53.5 -20.5t-21.5 -54.5z" />
    <glyph glyph-name="Korea1.295" unicode="&#xff20;" 
d="M568 505l-40 -265q-60 -37 -126 -37q-90 0 -90 106t44 165t121 59q53 0 91 -28zM513 -82l13 54q-427 31 -427 382q0 171 100 283.5t258 112.5q167 0 255 -90t88 -242q0 -31 -8.5 -68t-25 -75t-47 -63t-68.5 -25q-21 0 -31.5 8t-10 19t1.5 23l50 297q-37 32 -86.5 51.5
t-95.5 19.5q-121 0 -188 -81.5t-67 -213.5q0 -86 45 -132t130 -46q34 0 74.5 14.5t67.5 35.5q27 -59 104 -59q115 0 179.5 86.5t64.5 209.5q0 182 -117.5 288t-314.5 106q-189 0 -318 -131t-129 -328q0 -201 136.5 -317.5t366.5 -118.5z" />
    <glyph glyph-name="Korea1.296" unicode="&#xff21;" 
d="M232 0q9 27 32.5 105t37.5 118h295q14 -41 38.5 -121t31.5 -102h116q-153 498 -286 752h-95q-132 -252 -286 -752h116zM449 626q16 -35 33 -79.5t28 -76t29 -85.5t27 -78h-233q85 250 116 319z" />
    <glyph glyph-name="Korea1.297" unicode="&#xff22;" 
d="M598 413q43 18 71.5 61t28.5 97q0 93 -70.5 145.5t-183.5 52.5q-94 0 -218 -50v-705q112 -19 214 -19q150 0 222 61.5t72 168.5q0 71 -38 122t-98 66zM618 228q0 -76 -44 -111t-119 -35q-58 0 -117 8v271h115q68 0 116.5 -34t48.5 -99zM434 445h-96v219q57 19 108 19
q55 0 95.5 -31.5t40.5 -84.5q0 -55 -43 -88.5t-105 -33.5z" />
    <glyph glyph-name="Korea1.298" unicode="&#xff23;" 
d="M520 682q75 0 189 -30l17 76q-123 41 -207 41q-165 0 -256.5 -106t-91.5 -272q0 -90 19.5 -161.5t61 -128t114 -87.5t170.5 -31q96 0 212 49l-19 74q-124 -36 -190 -36q-252 0 -252 319q0 131 62.5 212t170.5 81z" />
    <glyph glyph-name="Korea1.299" unicode="&#xff24;" 
d="M171 713v-699q129 -19 250 -19q182 0 275 99t93 283t-94 288t-274 104q-99 0 -250 -56zM283 90v566q76 26 138 26q130 0 191 -81.5t61 -224.5q0 -294 -252 -294q-77 0 -138 8z" />
    <glyph glyph-name="Korea1.300" unicode="&#xff25;" 
d="M673 16v71h-265q-68 0 -68 57v208h304v84h-304v232h320v84h-434v-609q0 -148 183 -143q145 2 264 16z" />
    <glyph glyph-name="Korea1.301" unicode="&#xff26;" 
d="M362 0v358q45 9 78 9h216v84h-199q-54 0 -95 -18v235h310v84h-424v-752h114z" />
    <glyph glyph-name="Korea1.302" unicode="&#xff27;" 
d="M499 682q16 0 30.5 -0.5t30.5 -2.5t24.5 -3.5t27 -5.5t23.5 -5t27 -6.5l26 -6.5l17 76q-121 41 -207 41q-165 0 -256 -106t-91 -272q0 -90 19.5 -161.5t61 -128t113.5 -87.5t170 -31q108 0 233 58v335h-112v-290q-65 -16 -118 -16q-251 0 -251 319q0 131 62 212t170 81z
" />
    <glyph glyph-name="Korea1.303" unicode="&#xff28;" 
d="M283 445v307h-112v-752h112v358h334v-358h112v752h-112v-307h-334z" />
    <glyph glyph-name="Korea1.304" unicode="&#xff29;" 
d="M506 0v752h-113v-752h113z" />
    <glyph glyph-name="Korea1.305" unicode="&#xff2a;" 
d="M312 73q-41 0 -108 12v-84q45 -17 113 -17q108 0 163.5 63t55.5 170v535h-114v-530q0 -71 -28.5 -110t-81.5 -39z" />
    <glyph glyph-name="Korea1.306" unicode="&#xff2b;" 
d="M332 0v752h-112v-752h112zM344 404l320 -404h136l-319 402q137 159 272 350h-129q-88 -128 -280 -348z" />
    <glyph glyph-name="Korea1.307" unicode="&#xff2c;" 
d="M405 752h-114v-609q0 -148 183 -143q133 2 254 16v72h-255q-68 0 -68 55v609z" />
    <glyph glyph-name="Korea1.308" unicode="&#xff2d;" 
d="M617 752l-161 -575h-1q-64 350 -196 575h-122l-111 -752h109l88 593q98 -189 168 -563h124l158 558q32 -94 58.5 -273t35.5 -315h107q-26 435 -141 752h-116z" />
    <glyph glyph-name="Korea1.309" unicode="&#xff2e;" 
d="M598 0h138v752h-112v-577q-60 141 -153 302t-174 275h-134v-752h112v594q152 -212 323 -594z" />
    <glyph glyph-name="Korea1.310" unicode="&#xff2f;" 
d="M243 376q0 147 54 227t153 80t153 -80t54 -227t-54 -227t-153 -80t-153 80t-54 227zM773 376q0 182 -85 287.5t-238 105.5t-238 -105.5t-85 -287.5t85 -287.5t238 -105.5t238 105.5t85 287.5z" />
    <glyph glyph-name="Korea1.311" unicode="&#xff30;" 
d="M241 0h113v267q70 -17 124 -17q119 0 189.5 73t70.5 184q0 122 -76 192t-185 70q-87 0 -236 -49v-720zM626 512q0 -75 -39.5 -124.5t-113.5 -49.5q-59 0 -119 18v309q81 18 121 18q67 0 109 -48.5t42 -122.5z" />
    <glyph glyph-name="Korea1.312" unicode="&#xff31;" 
d="M589 -50l-37 48q106 32 163.5 131t57.5 247q0 182 -85 287.5t-238 105.5t-238 -105.5t-85 -287.5q0 -174 78 -278.5t220 -113.5l97 -105q34 -37 74 -51t97 -21l19 52q-82 39 -123 91zM243 376q0 147 54 227t153 80t153 -80t54 -227t-54 -227t-153 -80t-153 80t-54 227z
" />
    <glyph glyph-name="Korea1.313" unicode="&#xff32;" 
d="M628 0h116q-88 229 -175 327q57 28 89.5 81.5t32.5 118.5q0 121 -73 181.5t-185 60.5q-95 0 -218 -49v-720h113v300h105q29 0 48 -19q37 -42 80.5 -126.5t66.5 -154.5zM579 532q0 -70 -42 -107t-104 -37h-105v276q61 18 105 18q69 0 107.5 -38.5t38.5 -111.5z" />
    <glyph glyph-name="Korea1.314" unicode="&#xff33;" 
d="M232 98l-13 -77q38 -15 95 -26.5t100 -11.5q128 0 197.5 55.5t69.5 152.5q0 69 -35 117t-101 89q-145 91 -146 92q-60 46 -60 95q0 45 28.5 71t86.5 26q63 0 184 -19l11 76q-116 31 -199 31q-107 0 -167.5 -48.5t-60.5 -138.5q0 -94 96 -164q30 -21 166 -106
q43 -27 61.5 -54.5t18.5 -68.5q0 -52 -36.5 -85t-115.5 -33q-72 0 -180 27z" />
    <glyph glyph-name="Korea1.315" unicode="&#xff34;" 
d="M710 665v87h-521v-87h205v-665h114v665h202z" />
    <glyph glyph-name="Korea1.316" unicode="&#xff35;" 
d="M729 752h-112v-655q-83 -27 -171 -27q-82 0 -122.5 39t-40.5 135v508h-112v-511q0 -258 272 -258q66 0 147 22.5t139 52.5v694z" />
    <glyph glyph-name="Korea1.317" unicode="&#xff36;" 
d="M245 752h-118q129 -461 254 -752h131q99 131 166.5 326t93.5 426h-109q-29 -201 -82.5 -369t-124.5 -280q-107 261 -211 649z" />
    <glyph glyph-name="Korea1.318" unicode="&#xff37;" 
d="M451 551l119 -551h129q57 133 111.5 346t79.5 406h-115q-18 -144 -57.5 -321t-80.5 -290l-126 581h-121l-125 -579q-13 44 -27.5 98t-24 95t-24.5 109.5t-21 99t-22 109.5t-20 98h-115q86 -449 187 -752h133z" />
    <glyph glyph-name="Korea1.319" unicode="&#xff38;" 
d="M388 389l-232 -389h124l171 290l172 -290h120l-234 391l208 361h-118l-149 -262l-149 262h-123z" />
    <glyph glyph-name="Korea1.320" unicode="&#xff39;" 
d="M511 0v286q83 93 142.5 217t78.5 249h-103q-19 -102 -67 -207.5t-101 -163.5q-43 65 -94.5 170.5t-86.5 200.5h-112q45 -116 110 -243.5t124 -221.5v-287h109z" />
    <glyph glyph-name="Korea1.321" unicode="&#xff3a;" 
d="M194 752v-84h353q-268 -322 -371 -626v-42h548v84h-417q25 75 66.5 155t101 166t106.5 148.5t121 155.5l-20 43h-488z" />
    <glyph glyph-name="Korea1.322" unicode="&#xff3b;" 
d="M644 844v-974h237v71h-134v832h134v71h-237z" />
    <glyph glyph-name="Korea1.323" unicode="&#xffe6;" 
d="M507 722h-115q-42 -227 -59 -312h-119q-30 150 -61 342h-109q27 -166 65 -342h-88v-83h106q35 -159 88 -327h126q49 241 65 327h88q36 -198 64 -327h123q61 156 99 327h98v83h-81q28 134 58 342h-109q-13 -144 -54 -342h-125zM622 131l-38 196h90q-23 -102 -52 -196z
M278 133q-24 94 -46 194h85q-8 -38 -21 -104.5t-18 -89.5zM450 576q27 -152 29 -166h-58q7 38 29 166z" />
    <glyph glyph-name="Korea1.324" unicode="&#xff3d;" 
d="M257 -130v974h-237v-71h134v-832h-134v-71h237z" />
    <glyph glyph-name="Korea1.325" unicode="&#xff3e;" 
d="M336 576l113 191l114 -191h98l-179 294h-65l-179 -294h98z" />
    <glyph glyph-name="Korea1.326" unicode="&#xff3f;" 
d="M900 -12h-900v-83h900v83z" />
    <glyph glyph-name="Korea1.327" unicode="&#xff40;" 
d="M537 615l-93 215h-94l126 -215h61z" />
    <glyph glyph-name="Korea1.328" unicode="&#xff41;" 
d="M558 256v-174q-66 -17 -130 -17q-47 0 -76.5 29t-29.5 77t29.5 77t76.5 29q48 0 130 -21zM559 364v-33q-76 27 -140 27q-94 0 -149.5 -52t-55.5 -135t55.5 -135t149.5 -52q107 0 247 55v312q0 207 -215 207q-67 0 -171 -23l8 -69q125 10 155 10q58 0 87 -29.5t29 -82.5z
" />
    <glyph glyph-name="Korea1.329" unicode="&#xff42;" 
d="M242 772v-759q112 -18 235 -18q105 0 172 73.5t67 207.5q0 129 -66.5 205.5t-169.5 76.5q-55 0 -130 -30v254zM350 85v363q56 29 116 29q67 0 104.5 -56t37.5 -144q0 -91 -38.5 -145t-106.5 -54q-48 0 -113 7z" />
    <glyph glyph-name="Korea1.330" unicode="&#xff43;" 
d="M352 272q0 205 128 205q77 0 165 -39l24 72q-99 48 -204 48q-107 0 -165.5 -74.5t-58.5 -211.5t58.5 -212.5t165.5 -75.5q115 0 214 48l-23 71q-89 -38 -176 -38q-128 0 -128 207z" />
    <glyph glyph-name="Korea1.331" unicode="&#xff44;" 
d="M656 54v728l-108 -10v-244q-75 30 -131 30q-102 0 -168.5 -78.5t-66.5 -208.5q0 -133 64.5 -210t170.5 -77q80 0 239 70zM548 448v-352q-60 -29 -117 -29q-70 0 -105.5 57t-35.5 148q0 89 37 147t104 58q61 0 117 -29z" />
    <glyph glyph-name="Korea1.332" unicode="&#xff45;" 
d="M479 66q-45 0 -75 13.5t-45 39.5t-20.5 54t-5.5 67h344q2 49 1 77q-2 45 -12.5 83.5t-33.5 76t-69 59.5t-110 22q-232 0 -232 -289q0 -285 247 -285q86 0 187 38l-17 72q-82 -28 -159 -28zM333 321q3 77 31 116.5t89 39.5q113 0 118 -156h-238z" />
    <glyph glyph-name="Korea1.333" unicode="&#xff46;" 
d="M384 0h110v448h107v82h-107v73q0 49 17 74t61 25q18 0 54 -4l13 70q-41 13 -81 13q-78 0 -126 -45t-48 -129v-77h-60v-82h60v-448z" />
    <glyph glyph-name="Korea1.334" unicode="&#xff47;" 
d="M656 -9v497q-164 70 -240 70q-103 0 -168.5 -75t-65.5 -207t65.5 -207t168.5 -75q57 0 132 30v-40q0 -42 -19.5 -74.5t-47 -50.5t-70 -30.5t-75.5 -17.5t-76 -8l7 -76q389 0 389 264zM548 446v-342q-56 -29 -118 -29q-68 0 -104 52t-36 148q0 97 37.5 148.5t102.5 51.5
q62 0 118 -29z" />
    <glyph glyph-name="Korea1.335" unicode="&#xff48;" 
d="M246 0h108v450q83 25 135 25q50 0 73.5 -21t23.5 -81v-373h108v376q0 182 -192 182q-39 0 -148 -34v258l-108 -10v-772z" />
    <glyph glyph-name="Korea1.336" unicode="&#xff49;" 
d="M375 703q0 -34 21.5 -54.5t53.5 -20.5t53.5 20.5t21.5 54.5t-21.5 54.5t-53.5 20.5t-53.5 -20.5t-21.5 -54.5zM394 0h110v540h-110v-540z" />
    <glyph glyph-name="Korea1.337" unicode="&#xff4a;" 
d="M304 -208l52 -53q148 81 148 299v502h-110v-499q0 -77 -19 -137.5t-71 -111.5zM375 703q0 -34 21.5 -54.5t53.5 -20.5t53.5 20.5t21.5 54.5t-21.5 54.5t-53.5 20.5t-53.5 -20.5t-21.5 -54.5z" />
    <glyph glyph-name="Korea1.338" unicode="&#xff4b;" 
d="M409 306l213 -306h120l-209 302q62 72 174 238h-114q-95 -144 -184 -234zM405 0v772l-108 -10v-762h108z" />
    <glyph glyph-name="Korea1.339" unicode="&#xff4c;" 
d="M560 -18l26 73q-82 23 -82 112v605l-110 -10v-598q0 -84 43 -127t123 -55z" />
    <glyph glyph-name="Korea1.340" unicode="&#xff4d;" 
d="M68 0h108v453q86 22 129 22q50 0 71.5 -21t21.5 -81v-373h108v378q0 33 -11 72q97 25 137 25q49 0 70 -21t21 -81v-373h108v376q0 182 -186 182q-78 0 -191 -39q-45 39 -136 39q-94 0 -250 -60v-498z" />
    <glyph glyph-name="Korea1.341" unicode="&#xff4e;" 
d="M231 0h108v453q86 22 140 22q51 0 76.5 -21.5t25.5 -80.5v-373h108v376q0 87 -49 134.5t-148 47.5q-105 0 -261 -60v-498z" />
    <glyph glyph-name="Korea1.342" unicode="&#xff4f;" 
d="M610 270q0 -96 -40.5 -152t-119.5 -56t-119.5 56t-40.5 152q0 94 42 150.5t118 56.5t118 -56.5t42 -150.5zM719 270q0 138 -73.5 213t-195.5 75q-121 0 -195 -75.5t-74 -212.5q0 -138 74 -213.5t195 -75.5q122 0 195.5 75.5t73.5 213.5z" />
    <glyph glyph-name="Korea1.343" unicode="&#xff50;" 
d="M242 488v-724h108v250q75 -30 132 -30q103 0 168.5 77t65.5 210q0 132 -65.5 209.5t-168.5 77.5q-77 0 -240 -70zM350 94v352q56 29 118 29q69 0 104.5 -53t35.5 -152q0 -89 -36.5 -147t-103.5 -58q-62 0 -118 29z" />
    <glyph glyph-name="Korea1.344" unicode="&#xff51;" 
d="M656 -236v765q-112 18 -239 18q-104 0 -169.5 -74.5t-65.5 -206.5q0 -129 66 -205.5t169 -76.5q56 0 131 30v-250h108zM548 457v-363q-56 -29 -117 -29q-67 0 -104 56t-37 144q0 89 37 144t104 55q52 0 117 -7z" />
    <glyph glyph-name="Korea1.345" unicode="&#xff52;" 
d="M375 0h109v436q49 31 152 31h48v83h-50q-97 0 -159 -47q-6 23 -15 37h-85v-540z" />
    <glyph glyph-name="Korea1.346" unicode="&#xff53;" 
d="M437 -17q97 0 151.5 41.5t54.5 113.5q0 97 -95 146l-48 24t-57.5 29t-41.5 23q-35 23 -35 57q0 61 70 61q66 0 167 -18l12 70q-106 28 -180 28q-79 0 -128.5 -39t-49.5 -102q0 -78 91 -130q20 -12 131 -67q33 -17 44 -36.5t11 -46.5q0 -34 -25.5 -54t-74.5 -20
q-67 0 -162 19l-11 -71q107 -28 176 -28z" />
    <glyph glyph-name="Korea1.347" unicode="&#xff54;" 
d="M504 692l-109 -11v-151h-79v-82h79v-299q0 -77 49 -122.5t122 -45.5q45 0 95 18l-14 71q-51 -7 -64 -7q-36 0 -57.5 23t-21.5 67v295h135v82h-135v162z" />
    <glyph glyph-name="Korea1.348" unicode="&#xff55;" 
d="M674 540h-108v-453q-82 -21 -135 -21q-51 0 -74 20t-23 79v375h-108v-375q0 -182 192 -182q100 0 256 60v497z" />
    <glyph glyph-name="Korea1.349" unicode="&#xff56;" 
d="M408 0h94q76 97 126 247t66 293h-99q-14 -122 -52 -242.5t-83 -187.5q-92 227 -146 430h-109q113 -378 203 -540z" />
    <glyph glyph-name="Korea1.350" unicode="&#xff57;" 
d="M563 0h121q105 215 149 540h-102q-34 -265 -105 -441l-115 431h-122l-115 -431q-54 145 -106 441h-102q59 -334 141 -540h131l112 420z" />
    <glyph glyph-name="Korea1.351" unicode="&#xff58;" 
d="M449 198l127 -198h117l-187 283l169 257h-114l-112 -174l-111 174h-114l168 -258l-186 -282h115z" />
    <glyph glyph-name="Korea1.352" unicode="&#xff59;" 
d="M657 -8v548h-108v-443q-82 -21 -138 -21q-51 0 -75.5 21.5t-24.5 80.5v362h-108v-365q0 -88 48.5 -135t146.5 -47q56 0 151 28v-36q0 -42 -19 -74.5t-45.5 -51t-68 -31t-74 -17.5t-75.5 -8l8 -76q382 0 382 265z" />
    <glyph glyph-name="Korea1.353" unicode="&#xff5a;" 
d="M652 0v84h-284q70 163 265 414l-20 42h-355v-83h237q-77 -95 -145 -208t-102 -208v-41h404z" />
    <glyph glyph-name="Korea1.354" unicode="&#xff5b;" 
d="M771 301l-62 55v11l62 55q30 26 30 63v216q0 42 24 71t60 31v42q-83 0 -135 -41.5t-52 -96.5v-222q0 -36 -31 -63l-52 -45v-31l52 -45q31 -27 31 -63v-231q0 -55 52 -96.5t135 -41.5v42q-36 2 -60 31t-24 71v225q0 37 -30 63z" />
    <glyph glyph-name="Korea1.355" unicode="&#xff5c;" 
d="M405 812v-902h90v902h-90z" />
    <glyph glyph-name="Korea1.356" unicode="&#xff5d;" 
d="M191 356l-62 -55q-30 -26 -30 -63v-225q0 -42 -24 -71t-60 -31v-42q83 0 135 41.5t52 96.5v231q0 36 31 63l52 45v31l-52 45q-31 27 -31 63v222q0 55 -52 96.5t-135 41.5v-42q36 -2 60 -31t24 -71v-216q0 -37 30 -63l62 -55v-11z" />
    <glyph glyph-name="Korea1.357" unicode="&#xffe3;" 
d="M900 800h-900v-73h900v73z" />
    <glyph glyph-name="Korea1.358" unicode="&#x3131;" 
d="M679 618h-533v-79h460v-389h107v433q0 35 -34 35z" />
    <glyph glyph-name="Korea1.359" unicode="&#x3132;" 
d="M435 151v432q0 35 -35 35h-310v-79h240v-388h105zM736 618h-277v-79h206v-388h105v432q0 35 -34 35z" />
    <glyph glyph-name="Korea1.360" unicode="&#x3133;" 
d="M479 141q60 45 125 140q23 35 27 44q57 -62 133 -178l53 38q12 10 2 29q-71 126 -152 211q9 37 9 75v118h-105v-117q0 -92 -43 -162q-51 -82 -111 -141zM394 151v432q0 35 -35 35h-296v-79h224v-388h107z" />
    <glyph glyph-name="Korea1.361" unicode="&#x3134;" 
d="M301 618h-108v-300q0 -79 42 -120.5t123 -41.5q262 0 437 18v75q-200 -11 -417 -11q-39 0 -58 17.5t-19 58.5v304z" />
    <glyph glyph-name="Korea1.362" unicode="&#x3135;" 
d="M479 141q60 45 125 140q23 35 27 44q57 -62 133 -178l53 38q12 10 2 29q-71 126 -152 211q9 37 9 75v39h137v79h-383v-79h141v-38q0 -92 -43 -162q-51 -82 -110 -140l-6 44q-73 -11 -172 -11h-12q-16 0 -22.5 8t-6.5 26v352h-105v-366q0 -99 108 -99h45q113 0 175 23
l-3 20z" />
    <glyph glyph-name="Korea1.363" unicode="&#x3136;" 
d="M553 281q0 35 23.5 59t59.5 24t59.5 -24t23.5 -59t-23.5 -59t-59.5 -24t-59.5 24t-23.5 59zM427 463h418v79h-171q26 20 26 58v51h-107v-58q0 -36 -13 -51h-153v-79zM818 281q0 70 -53.5 113.5t-128.5 43.5t-128.5 -43.5t-53.5 -113.5t53.5 -113.5t128.5 -43.5
t128.5 43.5t53.5 113.5zM435 176l-10 67q-73 -11 -172 -11h-12q-16 0 -22.5 8t-6.5 26v352h-105v-366q0 -99 108 -99h45q113 0 175 23z" />
    <glyph glyph-name="Korea1.364" unicode="&#x3137;" 
d="M159 618v-300q0 -79 42 -120.5t123 -41.5q263 0 438 18v75q-200 -11 -418 -11q-39 0 -58 17.5t-19 58.5v224h483v80h-591z" />
    <glyph glyph-name="Korea1.365" unicode="&#x3138;" 
d="M445 618v-314q0 -30 4 -50q-98 -20 -159 -20q-33 0 -45 13.5t-12 47.5v243h174v80h-282v-328q0 -73 36.5 -105.5t113.5 -32.5q94 0 207 37q35 -32 113 -32q94 0 205 18v75q-114 -11 -189 -11q-36 0 -47 13t-11 50v236h235v80h-343z" />
    <glyph glyph-name="Korea1.366" unicode="&#x3139;" 
d="M742 374v220q0 35 -34 35h-543v-80h467v-117h-472v-135q0 -75 43.5 -116.5t124.5 -41.5q271 0 446 18v75q-196 -11 -427 -11q-39 0 -58 17.5t-19 58.5v55h450q22 0 22 22z" />
    <glyph glyph-name="Korea1.367" unicode="&#x313a;" 
d="M785 153v438q0 27 -29 27h-267v-78h193v-387h103zM435 367v224q0 27 -29 27h-287v-77h213v-114h-218v-216q0 -32 14 -45t48 -13h158q75 0 161 20l-9 68q-80 -11 -149 -11h-109q-11 0 -11 12v108h201q17 0 17 17z" />
    <glyph glyph-name="Korea1.368" unicode="&#x313b;" 
d="M412 367v224q0 27 -29 27h-282v-77h208v-114h-213v-216q0 -32 14 -45t48 -13h113q75 0 161 20l-9 68q-80 -11 -149 -11h-64q-11 0 -11 12v108h196q17 0 17 17zM703 231h-113q-18 0 -18 18v291h131v-309zM774 618h-302v-400q0 -34 16.5 -49.5t52.5 -15.5h262v438
q0 27 -29 27z" />
    <glyph glyph-name="Korea1.369" unicode="&#x313c;" 
d="M803 618h-100v-156h-131v156h-100v-400q0 -34 16.5 -49.5t52.5 -15.5h262v465zM412 367v224q0 27 -29 27h-282v-77h208v-114h-213v-216q0 -32 14 -45t48 -13h113q75 0 161 20l-9 68q-80 -11 -149 -11h-64q-11 0 -11 12v108h196q17 0 17 17zM703 231h-113q-18 0 -18 18
v135h131v-153z" />
    <glyph glyph-name="Korea1.370" unicode="&#x313d;" 
d="M509 141q60 45 125 140q23 35 27 44q57 -62 133 -178l53 38q12 10 2 29q-71 126 -152 211q9 37 9 75v118h-105v-117q0 -92 -43 -162q-43 -69 -92 -122l-3 24q-80 -11 -149 -11h-74q-11 0 -11 12v108h196q17 0 17 17v224q0 27 -29 27h-282v-77h208v-114h-213v-216
q0 -32 14 -45t48 -13h123q75 0 161 20l-1 2z" />
    <glyph glyph-name="Korea1.371" unicode="&#x313e;" 
d="M477 618v-400q0 -34 16.5 -49.5t52.5 -15.5h267v78h-215q-18 0 -18 18v101h213v78h-213v112h223v78h-326zM417 367v224q0 27 -29 27h-287v-77h213v-114h-218v-216q0 -32 14 -45t48 -13h118q75 0 161 20l-9 68q-80 -11 -149 -11h-69q-11 0 -11 12v108h201q17 0 17 17z" />
    <glyph glyph-name="Korea1.372" unicode="&#x313f;" 
d="M410 367v224q0 27 -29 27h-287v-77h213v-114h-218v-216q0 -32 14 -45t48 -13h118q75 0 161 20l-9 68q-80 -11 -149 -11h-69q-11 0 -11 12v108h201q17 0 17 17zM453 236v-78h388v78h-92q30 51 30 97v176h-99v-175q0 -47 -16 -98h-55v273h-99v-273h-57zM457 540h377v78
h-377v-78z" />
    <glyph glyph-name="Korea1.373" unicode="&#x3140;" 
d="M412 367v224q0 27 -29 27h-287v-77h213v-114h-218v-216q0 -32 14 -45t48 -13h118q75 0 161 20l-9 68q-80 -11 -149 -11h-69q-11 0 -11 12v108h201q17 0 17 17zM556 284q0 34 24 56t61 22t61 -22t24 -56t-24 -56t-61 -22t-61 22t-24 56zM444 463h394v79h-159q26 20 26 58
v51h-107v-58q0 -36 -13 -51h-141v-79zM457 291q0 -69 54 -110.5t130 -41.5t130 41.5t54 110.5t-54 110.5t-130 41.5t-130 -41.5t-54 -110.5z" />
    <glyph glyph-name="Korea1.374" unicode="&#x3141;" 
d="M746 169v408q0 41 -44 41h-548v-316q0 -156 165 -156q227 0 427 23zM261 302v236h378v-307q-146 -5 -301 -5q-39 0 -58 17.5t-19 58.5z" />
    <glyph glyph-name="Korea1.375" unicode="&#x3142;" 
d="M639 624v-148h-378v148h-107v-333q0 -145 155 -145q251 0 437 24v454h-107zM322 226q-33 0 -47 15.5t-14 49.5v105h378v-164q-117 -6 -317 -6z" />
    <glyph glyph-name="Korea1.376" unicode="&#x3143;" 
d="M419 618h-92v-156h-121v156h-98v-378q0 -89 110 -89q39 0 105 10t96 20v437zM590 151q39 0 105 10t96 20v437h-98v-156h-121v156h-92v-378q0 -89 110 -89zM600 229q-28 0 -28 24v131h121v-151q-36 -4 -93 -4zM234 229q-28 0 -28 24v131h121v-151q-36 -4 -93 -4z" />
    <glyph glyph-name="Korea1.377" unicode="&#x3144;" 
d="M499 141q60 45 125 140q23 35 27 44q57 -62 133 -178l53 38q12 10 2 29q-71 126 -152 211q9 37 9 75v119h-105v-118q0 -92 -43 -162q-49 -78 -105 -136v415h-100v-156h-126v156h-100v-400q0 -34 16.5 -49.5t52.5 -15.5h257v39zM343 231h-108q-18 0 -18 18v135h126v-153z
" />
    <glyph glyph-name="Korea1.378" unicode="&#x3145;" 
d="M148 131q45 22 112 60.5t106 67.5q61 47 91 88q92 -51 287 -212l46 42q19 19 4 34q-90 90 -297 234q4 34 4 54v129h-109v-128q0 -89 -80 -156q-73 -60 -214 -140z" />
    <glyph glyph-name="Korea1.379" unicode="&#x3146;" 
d="M666 493v126h-106v-128q0 -64 -56 -152q-30 -47 -44 -63q-87 114 -120 148q8 28 8 69v126h-106v-128q0 -70 -57 -152q-70 -101 -110 -144l65 -56q78 67 159 185q52 -53 134 -163q18 -23 48 1q50 41 130 156q67 -62 152 -175l53 41q15 11 4 28q-72 109 -165 198
q11 35 11 83z" />
    <glyph glyph-name="Korea1.380" unicode="&#x3147;" 
d="M643 387q0 -79 -53.5 -136.5t-139.5 -57.5q-87 0 -140 57t-53 137t53 137t140 57q86 0 139.5 -57.5t53.5 -136.5zM748 387q0 115 -85 193.5t-213 78.5q-126 0 -212 -78.5t-86 -193.5t86 -193.5t212 -78.5q128 0 213 78.5t85 193.5z" />
    <glyph glyph-name="Korea1.381" unicode="&#x3148;" 
d="M162 131q71 30 211 135q59 45 86 83q34 -21 77.5 -54.5t67.5 -53.5t73 -62t51 -44l46 42q19 19 4 34q-131 131 -282 237q3 22 3 51v39h245v80h-594v-80h241v-38q0 -51 -19.5 -85t-60.5 -69q-120 -100 -197 -141z" />
    <glyph glyph-name="Korea1.382" unicode="&#x3149;" 
d="M656 493v45h131v80h-674v-80h139v-47q0 -64 -56 -152q-57 -87 -107 -145l66 -55q67 57 154 185q26 -28 71 -90t53 -73q18 -23 48 1q15 12 32.5 33t28 35.5t32 46.5t27.5 41q50 -47 147 -175l53 41q15 11 4 28q-81 122 -160 198q11 35 11 83zM350 424q8 28 8 69v45h192
v-47q0 -73 -47 -152q-25 -43 -43 -63q-8 11 -30.5 44t-41.5 58.5t-38 45.5z" />
    <glyph glyph-name="Korea1.383" unicode="&#x314a;" 
d="M747 560h-273q30 25 30 76v54h-110v-61q0 -47 -12 -69h-239v-79h246v-21q0 -36 -22.5 -70t-44.5 -51.5t-62 -44.5q-66 -44 -154 -85l45 -77q72 29 158 80q89 54 146 119q130 -73 285 -197l43 43q19 19 4 32q-107 96 -293 212q3 22 3 33v27h250v79z" />
    <glyph glyph-name="Korea1.384" unicode="&#x314b;" 
d="M679 618h-533v-79h460v-131q-81 -18 -193 -18h-276v-80h276q109 0 193 29v-199h107v443q0 35 -34 35z" />
    <glyph glyph-name="Korea1.385" unicode="&#x314c;" 
d="M768 158v75q-196 -11 -427 -11q-39 0 -58 17.5t-19 58.5v49h467v80h-467v111h482v80h-592v-316q0 -78 43 -120t125 -42q271 0 446 18z" />
    <glyph glyph-name="Korea1.386" unicode="&#x314d;" 
d="M777 239h-147q35 51 35 152v100h-107v-99q0 -100 -19 -153h-189v252h-107v-252h-121v-80h655v80zM141 539h618v80h-618v-80z" />
    <glyph glyph-name="Korea1.387" unicode="&#x314e;" 
d="M507 690h-110v-73q0 -43 -13 -58h-258v-79h135q-61 -53 -61 -140q0 -96 70.5 -156.5t178.5 -60.5t179 60.5t71 156.5q0 84 -61 140h135v79h-292q26 19 26 63v68zM305 340q0 60 40 99t105 39q64 0 104 -39t40 -99t-40 -99t-105 -39q-64 0 -104 39t-40 99z" />
    <glyph glyph-name="Korea1.388" unicode="&#x314f;" 
d="M360 813v-856h106v440h211v80h-211v336h-106z" />
    <glyph glyph-name="Korea1.389" unicode="&#x3150;" 
d="M513 -44h105v857h-105v-349h-128v339h-104v-837h104v418h128v-428z" />
    <glyph glyph-name="Korea1.390" unicode="&#x3151;" 
d="M360 813v-856h106v281h211v81h-211v223h211v81h-211v190h-106z" />
    <glyph glyph-name="Korea1.391" unicode="&#x3152;" 
d="M513 -44h105v857h-105v-190h-128v180h-104v-837h104v272h128v-282zM513 543v-225h-128v225h128z" />
    <glyph glyph-name="Korea1.392" unicode="&#x3153;" 
d="M530 -43v856h-106v-309h-214v-80h214v-467h106z" />
    <glyph glyph-name="Korea1.393" unicode="&#x3154;" 
d="M165 504v-80h165v-458h105v837h-105v-299h-165zM513 813v-857h105v857h-105z" />
    <glyph glyph-name="Korea1.394" unicode="&#x3155;" 
d="M424 813v-192h-216v-80h216v-182q-31 -11 -85 -11h-131v-80h122q56 0 94 18v-329h106v856h-106z" />
    <glyph glyph-name="Korea1.395" unicode="&#x3156;" 
d="M435 -34v837h-105v-182h-162v-80h162v-179q-32 -14 -91 -14h-71v-80h72q52 0 90 21v-323h105zM513 813v-857h105v857h-105z" />
    <glyph glyph-name="Korea1.396" unicode="&#x3157;" 
d="M859 187v80h-356v392h-107v-392h-356v-80h819z" />
    <glyph glyph-name="Korea1.397" unicode="&#x3158;" 
d="M636 813v-535q-110 -28 -277 -39v319h-107v-321h-232v-80h258q87 0 187.5 16.5t170.5 38.5v-255h106v431h131v80h-131v345h-106z" />
    <glyph glyph-name="Korea1.398" unicode="&#x3159;" 
d="M30 157h218q163 0 275 37v-228h104v438h78v-448h105v857h-105v-329h-78v319h-104v-545q-84 -14 -205 -20v315h-105v-316h-183v-80z" />
    <glyph glyph-name="Korea1.399" unicode="&#x315a;" 
d="M40 157h298q182 0 348 58v-258h106v856h-106v-532q-125 -36 -297 -43v315h-107v-316h-242v-80z" />
    <glyph glyph-name="Korea1.400" unicode="&#x315b;" 
d="M849 267h-221q33 38 33 112v274h-106v-282q0 -81 -22 -104h-207v386h-106v-386h-190v-80h819v80z" />
    <glyph glyph-name="Korea1.401" unicode="&#x315c;" 
d="M396 -16h107v390h356v80h-819v-80h356v-390z" />
    <glyph glyph-name="Korea1.402" unicode="&#x315d;" 
d="M505 286v-80h191v-249h106v856h-106v-527h-191zM250 -11l89 -21q42 86 42 222v175q168 10 264 45l-10 64q-152 -32 -350 -32h-235v-80h225v-172q0 -105 -25 -201z" />
    <glyph glyph-name="Korea1.403" unicode="&#x315e;" 
d="M395 281v-80h137v-235h105v837h-105v-522h-137zM715 813v-857h105v857h-105zM170 -1l89 -21q42 86 42 222v175q116 7 191 31l-10 65q-144 -19 -287 -19h-165v-80h165v-172q0 -105 -25 -201z" />
    <glyph glyph-name="Korea1.404" unicode="&#x315f;" 
d="M265 -11l89 -21q42 86 42 222v174q163 10 300 59v-466h106v856h-106v-324q-68 -21 -173 -34t-183 -13h-290v-80h240v-172q0 -105 -25 -201z" />
    <glyph glyph-name="Korea1.405" unicode="&#x3160;" 
d="M213 -5l89 -21q38 78 38 202v198h220v-390h106v390h193v80h-819v-80h194v-198q0 -100 -21 -181z" />
    <glyph glyph-name="Korea1.406" unicode="&#x3161;" 
d="M859 374v80h-819v-80h819z" />
    <glyph glyph-name="Korea1.407" unicode="&#x3162;" 
d="M44 122h298q182 0 348 58v-223h106v856h-106v-567q-69 -19 -170 -31.5t-176 -12.5h-300v-80z" />
    <glyph glyph-name="Korea1.408" unicode="&#x3163;" 
d="M397 813v-856h106v856h-106z" />
    <glyph glyph-name="Korea1.409" unicode="&#x3165;" 
d="M458 176l-10 67q-73 -11 -172 -11h-17q-16 0 -22.5 8t-6.5 26v352h-105v-366q0 -99 108 -99h50q113 0 175 23zM804 153v79h-185q-16 0 -22.5 8t-6.5 26v352h-105v-366q0 -99 108 -99h211z" />
    <glyph glyph-name="Korea1.410" unicode="&#x3166;" 
d="M461 176l-10 67q-73 -11 -172 -11h-20q-16 0 -22.5 8t-6.5 26v352h-105v-366q0 -99 108 -99h53q113 0 175 23zM571 538h228v80h-333v-366q0 -99 108 -99h237v79h-211q-16 0 -22.5 8t-6.5 26v272z" />
    <glyph glyph-name="Korea1.411" unicode="&#x3167;" 
d="M489 141q60 45 125 140q23 35 27 44q57 -62 133 -178l53 38q12 10 2 29q-71 126 -152 211q9 37 9 75v118h-105v-117q0 -92 -43 -162q-44 -72 -96 -126l-4 30q-73 -11 -172 -11h-15q-16 0 -22.5 8t-6.5 26v352h-107v-366q0 -99 108 -99h50q113 0 175 23l-1 3z" />
    <glyph glyph-name="Korea1.412" unicode="&#x3168;" 
d="M450 153h387l-194 516zM643 454l79 -228h-157zM443 176l-10 67q-73 -11 -172 -11h-9q-16 0 -22.5 8t-6.5 26v352h-108v-366q0 -99 108 -99h45q113 0 175 23z" />
    <glyph glyph-name="Korea1.413" unicode="&#x3169;" 
d="M610 141q52 52 97 129q11 20 21 42q40 -51 94 -163l54 33q13 8 7 27q-17 44 -51.5 106t-72.5 106q7 47 7 79v118h-105v-117q0 -44 -10 -97t-26 -85q-27 -51 -70 -115v387q0 27 -29 27h-197v-78h125v-387h101v33zM305 367v224q0 27 -29 27h-217v-77h144v-114h-149v-216
q0 -32 14 -45t48 -13h88q75 0 161 20l-9 68q-80 -11 -149 -11h-40q-11 0 -11 12v108h132q17 0 17 17z" />
    <glyph glyph-name="Korea1.414" unicode="&#x316a;" 
d="M437 367v224q0 27 -29 27h-287v-77h213v-114h-218v-216q0 -32 14 -45t48 -13h118q75 0 161 20l-9 68q-80 -11 -149 -11h-69q-11 0 -11 12v108h201q17 0 17 17zM601 538h208v80h-313v-366q0 -99 108 -99h217v79h-191q-16 0 -22.5 8t-6.5 26v272z" />
    <glyph glyph-name="Korea1.415" unicode="&#x316b;" 
d="M632 142q47 47 88 128q14 31 18 42q11 -14 20.5 -29t19 -33t15.5 -29.5t18 -36t17 -35.5l53 33q13 8 7 27q-18 48 -50.5 109t-69.5 104q7 38 7 78v118h-103v-117q0 -112 -32 -182q-18 -40 -59 -105v404h-95v-156h-81v156h-95v-400q0 -34 16.5 -49.5t52.5 -15.5h202v29z
M265 367v224q0 27 -29 27h-197v-77h127v-114h-132v-216q0 -32 14 -45t48 -13h58q65 0 151 20l-9 68q-80 -11 -129 -11h-23q-11 0 -11 12v108h115q17 0 17 17zM486 231h-63q-18 0 -18 18v135h81v-153z" />
    <glyph glyph-name="Korea1.416" unicode="&#x316c;" 
d="M460 153h387l-194 516zM653 454l79 -228h-157zM430 367v224q0 27 -29 27h-287v-77h213v-114h-218v-216q0 -32 14 -45t48 -13h118q75 0 161 20l-9 68q-80 -11 -149 -11h-69q-11 0 -11 12v108h201q17 0 17 17z" />
    <glyph glyph-name="Korea1.417" unicode="&#x316d;" 
d="M463 530h346v78h-346v-78zM420 367v224q0 27 -29 27h-277v-77h203v-114h-208v-216q0 -32 14 -45t48 -13h108q75 0 161 20l-9 68q-80 -11 -149 -11h-59q-11 0 -11 12v108h191q17 0 17 17zM563 311q0 36 19.5 59.5t53.5 23.5t53.5 -23.5t19.5 -59.5t-19.5 -59.5
t-53.5 -23.5t-53.5 23.5t-19.5 59.5zM808 311q0 70 -49.5 113.5t-122.5 43.5t-122.5 -43.5t-49.5 -113.5t49.5 -113.5t122.5 -43.5t122.5 43.5t49.5 113.5z" />
    <glyph glyph-name="Korea1.418" unicode="&#x316e;" 
d="M805 618h-100v-156h-126v156h-100v-400q0 -34 16.5 -49.5t52.5 -15.5h257v465zM705 231h-108q-18 0 -18 18v135h126v-153zM319 231h-108q-18 0 -18 18v291h126v-309zM390 618h-297v-400q0 -34 16.5 -49.5t52.5 -15.5h257v438q0 27 -29 27z" />
    <glyph glyph-name="Korea1.419" unicode="&#x316f;" 
d="M415 618h-297v-400q0 -34 16.5 -49.5t52.5 -15.5h257v438q0 27 -29 27zM509 141q60 45 125 140q23 35 27 44q57 -62 133 -178l53 38q12 10 2 29q-71 126 -152 211q9 37 9 75v118h-105v-117q0 -92 -43 -162q-51 -82 -111 -141zM344 231h-108q-18 0 -18 18v291h126v-309z
" />
    <glyph glyph-name="Korea1.420" unicode="&#x3170;" 
d="M334 231h-108q-18 0 -18 18v291h126v-309zM405 618h-297v-400q0 -34 16.5 -49.5t52.5 -15.5h257v438q0 27 -29 27zM460 153h387l-194 516zM653 454l79 -228h-157z" />
    <glyph glyph-name="Korea1.421" unicode="&#x3171;" 
d="M450 10q85 0 140 44.5t55 112.5t-55 112t-140 44t-140 -44t-55 -112t55 -112.5t140 -44.5zM450 85q-42 0 -67 23.5t-25 58.5t25 58t67 23t67 -23t25 -58t-25 -58.5t-67 -23.5zM706 412v301q0 41 -44 41h-488v-198q0 -79 42 -120.5t123 -41.5q192 0 367 18zM280 549v126
h320v-197q-146 -5 -243 -5q-39 0 -58 17.5t-19 58.5z" />
    <glyph glyph-name="Korea1.422" unicode="&#x3172;" 
d="M786 153v438q0 27 -29 27h-267v-78h193v-387h103zM450 618h-100v-156h-136v156h-100v-400q0 -34 16.5 -49.5t52.5 -15.5h267v465zM350 231h-118q-18 0 -18 18v135h136v-153z" />
    <glyph glyph-name="Korea1.423" unicode="&#x3173;" 
d="M621 538h208v80h-313v-366q0 -99 108 -99h217v79h-191q-16 0 -22.5 8t-6.5 26v272zM450 618h-100v-156h-136v156h-100v-400q0 -34 16.5 -49.5t52.5 -15.5h267v465zM350 231h-118q-18 0 -18 18v135h136v-153z" />
    <glyph glyph-name="Korea1.424" unicode="&#x3174;" 
d="M404 142q47 47 88 128q14 31 18 42q11 -14 20.5 -29t19 -33t15.5 -29.5t18 -36t17 -35.5l53 33q13 8 7 27q-18 48 -50.5 109t-69.5 104q7 38 7 78v118h-103v-117q0 -112 -32 -182q-18 -40 -59 -105v404h-96v-156h-99v156h-96v-400q0 -34 16.5 -49.5t52.5 -15.5h222v29z
M837 153v438q0 27 -29 27h-197v-78h125v-387h101zM257 231h-81q-18 0 -18 18v135h99v-153z" />
    <glyph glyph-name="Korea1.425" unicode="&#x3175;" 
d="M748 538h132v80h-234v-380q-49 114 -108 184q7 38 7 78v118h-103v-117q0 -112 -32 -182q-25 -52 -62 -109v408h-96v-156h-99v156h-96v-400q0 -34 16.5 -49.5t52.5 -15.5h222v31l54 -42q47 47 88 128q14 31 18 42q11 -14 20.5 -29t19 -33t15.5 -29.5t18 -36t17 -35.5
l53 33q7 4 9 11q24 -40 94 -40h138v79h-115q-16 0 -22.5 8t-6.5 26v272zM252 231h-81q-18 0 -18 18v135h99v-153z" />
    <glyph glyph-name="Korea1.426" unicode="&#x3176;" 
d="M433 618h-100v-156h-126v156h-100v-400q0 -34 16.5 -49.5t52.5 -15.5h257v465zM519 141q66 65 115 140q11 18 25 45q61 -68 125 -179l53 34q11 9 2 29q-60 127 -143 215q10 42 10 75v39h127v79h-363v-79h131v-38q0 -89 -43 -162q-37 -62 -101 -141zM333 231h-108
q-18 0 -18 18v135h126v-153z" />
    <glyph glyph-name="Korea1.427" unicode="&#x3177;" 
d="M432 618h-100v-146h-141v146h-100v-378q0 -89 110 -89q42 0 122 10t109 20v437zM496 618v-400q0 -34 16.5 -49.5t52.5 -15.5h267v78h-215q-18 0 -18 18v101h213v78h-213v112h223v78h-326zM219 229q-28 0 -28 24v141h141v-161q-36 -4 -113 -4z" />
    <glyph glyph-name="Korea1.428" unicode="&#x3178;" 
d="M450 10q85 0 140 44.5t55 112.5t-55 112t-140 44t-140 -44t-55 -112t55 -112.5t140 -44.5zM450 85q-42 0 -67 23.5t-25 58.5t25 58t67 23t67 -23t25 -58t-25 -58.5t-67 -23.5zM601 764v-100h-322v100h-105v-241q0 -72 33.5 -104.5t113.5 -32.5q222 0 385 21v357h-105z
M332 463q-32 0 -42.5 13.5t-10.5 43.5v67h322v-118q-117 -6 -269 -6z" />
    <glyph glyph-name="Korea1.429" unicode="&#x3179;" 
d="M419 764h-90v-101h-115v101h-96v-292q0 -89 110 -89q39 0 100 9.5t91 20.5v351zM590 383q39 0 100 9.5t91 20.5v351h-96v-101h-115v101h-90v-292q0 -89 110 -89zM598 460q-28 0 -28 24v102h115v-122q-36 -4 -87 -4zM242 460q-28 0 -28 24v102h115v-122q-36 -4 -87 -4z
M450 10q85 0 140 44.5t55 112.5t-55 112t-140 44t-140 -44t-55 -112t55 -112.5t140 -44.5zM450 85q-42 0 -67 23.5t-25 58.5t25 58t67 23t67 -23t25 -58t-25 -58.5t-67 -23.5z" />
    <glyph glyph-name="Korea1.430" unicode="&#x317a;" 
d="M149 141q60 45 125 140q22 35 27 44q57 -62 133 -178l53 38q12 10 2 29q-71 126 -152 211q9 37 9 75v118h-105v-117q0 -92 -43 -162q-51 -82 -111 -141zM774 151v432q0 35 -35 35h-296v-79h225v-388h106z" />
    <glyph glyph-name="Korea1.431" unicode="&#x317b;" 
d="M139 141q60 45 125 140q22 35 27 44q57 -62 133 -178l53 38q12 10 2 29q-71 126 -152 211q9 37 9 75v118h-105v-117q0 -92 -43 -162q-51 -82 -111 -141zM844 153v79h-187q-16 0 -22.5 8t-6.5 26v352h-103v-366q0 -99 108 -99h211z" />
    <glyph glyph-name="Korea1.432" unicode="&#x317c;" 
d="M576 538h228v80h-333v-366q0 -99 108 -99h237v79h-211q-16 0 -22.5 8t-6.5 26v272zM119 141q60 45 125 140q23 35 27 44q57 -62 133 -178l53 38q12 10 2 29q-71 126 -152 211q9 37 9 75v118h-105v-117q0 -92 -43 -162q-51 -82 -111 -141z" />
    <glyph glyph-name="Korea1.433" unicode="&#x317d;" 
d="M793 618h-100v-156h-131v156h-100v-400q0 -34 16.5 -49.5t52.5 -15.5h262v465zM99 141q60 45 125 140q22 35 27 44q57 -62 133 -178l53 38q12 10 2 29q-71 126 -152 211q9 37 9 75v118h-105v-117q0 -92 -43 -162q-51 -82 -111 -141zM693 231h-113q-18 0 -18 18v135h131
v-153z" />
    <glyph glyph-name="Korea1.434" unicode="&#x317e;" 
d="M843 618h-383v-79h141v-38q0 -92 -43 -162q-47 -75 -98 -128v1l-1 2q-71 126 -152 211q9 37 9 75v118h-105v-117q0 -92 -43 -162q-51 -82 -111 -141l62 -57q60 45 125 140q23 35 27 44q57 -62 133 -178l53 38q1 1 2 1l50 -45q60 45 125 140q23 35 27 44q57 -62 133 -178
l53 38q12 10 2 29q-71 126 -152 211q9 37 9 75v39h137v79z" />
    <glyph glyph-name="Korea1.435" unicode="&#x317f;" 
d="M190 144h519l-260 543zM449 485l122 -265h-243z" />
    <glyph glyph-name="Korea1.436" unicode="&#x3180;" 
d="M242 604q-87 0 -134.5 -64.5t-47.5 -172.5t47.5 -172.5t134.5 -64.5q89 0 137 64t48 173q0 108 -48 172.5t-137 64.5zM242 204q-42 0 -64 45.5t-22 117.5q0 70 22.5 115.5t63.5 45.5t65 -45.5t24 -115.5t-24 -116.5t-65 -46.5zM656 604q-88 0 -135.5 -64.5t-47.5 -172.5
t47.5 -172.5t135.5 -64.5q89 0 136.5 64t47.5 173q0 108 -47.5 172.5t-136.5 64.5zM656 204q-42 0 -64.5 45.5t-22.5 117.5q0 70 23 115.5t64 45.5t64.5 -45.5t23.5 -115.5q0 -71 -23.5 -117t-64.5 -46z" />
    <glyph glyph-name="Korea1.437" unicode="&#x3181;" 
d="M449 117q130 0 202 71t72 167q0 85 -58 152.5t-162 81.5v84h-107v-84q-105 -14 -162.5 -81.5t-57.5 -152.5q0 -96 72 -167t201 -71zM449 195q-75 0 -121.5 46.5t-46.5 113.5q0 68 46.5 114t121.5 46q77 0 123 -46t46 -114q0 -67 -46 -113.5t-123 -46.5z" />
    <glyph glyph-name="Korea1.438" unicode="&#x3182;" 
d="M277 149q89 0 142.5 62t53.5 154q0 74 -37 131t-101 77v84h-105v-81q-69 -18 -108.5 -75.5t-39.5 -135.5q0 -92 53.5 -154t141.5 -62zM509 141q60 45 125 140q23 35 27 44q57 -62 133 -178l53 38q12 10 2 29q-71 126 -152 211q9 37 9 75v118h-105v-117q0 -92 -43 -162
q-51 -82 -111 -141zM277 223q-46 0 -70.5 39.5t-24.5 102.5t24.5 102t70.5 39q47 0 71 -39t24 -102t-24 -102.5t-71 -39.5z" />
    <glyph glyph-name="Korea1.439" unicode="&#x3183;" 
d="M460 153h387l-194 516zM653 454l79 -228h-157zM277 149q89 0 142.5 62t53.5 154q0 74 -37 131t-101 77v84h-105v-81q-69 -18 -108.5 -75.5t-39.5 -135.5q0 -92 53.5 -154t141.5 -62zM277 223q-46 0 -70.5 39.5t-24.5 102.5t24.5 102t70.5 39q47 0 71 -39t24 -102
t-24 -102.5t-71 -39.5z" />
    <glyph glyph-name="Korea1.440" unicode="&#x3184;" 
d="M450 10q85 0 140 44.5t55 112.5t-55 112t-140 44t-140 -44t-55 -112t55 -112.5t140 -44.5zM747 474h-124q32 41 32 92v70h-107v-69q0 -50 -16 -93h-172v162h-107v-162h-101v-80h595v80zM171 674h558v80h-558v-80zM450 85q-42 0 -67 23.5t-25 58.5t25 58t67 23t67 -23
t25 -58t-25 -58.5t-67 -23.5z" />
    <glyph glyph-name="Korea1.441" unicode="&#x3185;" 
d="M567 281q0 35 21 59t56 24q34 0 55.5 -24t21.5 -59t-21.5 -59t-55.5 -24q-35 0 -56 24t-21 59zM459 463h369v79h-148q25 20 25 58v51h-102v-58q0 -35 -12 -51h-132v-79zM815 281q0 70 -50 113.5t-121 43.5t-121 -43.5t-50 -113.5t50 -113.5t121 -43.5t121 43.5t50 113.5z
M178 281q0 35 21.5 59t55.5 24q35 0 56 -24t21 -59t-21 -59t-56 -24q-34 0 -55.5 24t-21.5 59zM71 463h369v79h-149q25 20 25 58v51h-102v-58q0 -37 -12 -51h-131v-79zM426 281q0 70 -50 113.5t-121 43.5t-121 -43.5t-50 -113.5t50 -113.5t121 -43.5t121 43.5t50 113.5z" />
    <glyph glyph-name="Korea1.442" unicode="&#x3186;" 
d="M738 538v80h-576v-80h576zM715 300q0 76 -67.5 131t-197.5 55t-197.5 -55t-67.5 -131t67.5 -131t197.5 -55t197.5 55t67.5 131zM290 300q0 43 38.5 76t121.5 33t121.5 -33t38.5 -76t-38.5 -76t-121.5 -33t-121.5 33t-38.5 76z" />
    <glyph glyph-name="Korea1.443" unicode="&#x3187;" 
d="M636 813v-535q-87 -21 -197 -32v312h-105v-320q-20 -1 -54 -1h-63v321h-105v-321h-92v-80h258q87 0 187.5 16.5t170.5 38.5v-255h106v331h131v80h-131v180h131v80h-131v185h-106z" />
    <glyph glyph-name="Korea1.444" unicode="&#x3188;" 
d="M30 157h218q163 0 275 37v-228h104v323h78v-333h105v857h-105v-189h-78v179h-104v-545q-34 -6 -115 -14v309h-102v-315q-22 -1 -56 -1h-36v316h-102v-316h-82v-80zM705 544v-175h-78v175h78z" />
    <glyph glyph-name="Korea1.445" unicode="&#x3189;" 
d="M40 157h298q182 0 348 58v-258h106v856h-106v-532q-76 -22 -179 -33v305h-107v-315q-22 -1 -60 -1h-73v316h-107v-316h-120v-80z" />
    <glyph glyph-name="Korea1.446" unicode="&#x318a;" 
d="M363 -23h105v395q107 13 177 38l-10 64q-152 -32 -350 -32h-235v-80h102v-172q0 -105 -25 -201l89 -21q42 86 42 222v172h25q53 0 80 2v-387zM525 146v-80h171v-109h106v856h-106v-507h-171v-80h171v-80h-171z" />
    <glyph glyph-name="Korea1.447" unicode="&#x318b;" 
d="M276 -23h102v404q69 8 121 25l-10 65q-144 -19 -287 -19h-172v-80h75v-172q0 -105 -25 -201l84 -21q42 86 42 222v172q43 0 70 1v-396zM430 78h117v-112h102v837h-102v-482h-117v-80h117v-83h-117v-80zM718 813v-857h102v857h-102z" />
    <glyph glyph-name="Korea1.448" unicode="&#x318c;" 
d="M428 -23h105v404q96 18 163 42v-466h106v856h-106v-324q-68 -21 -173 -34t-183 -13h-290v-80h135v-172q0 -105 -25 -201l88 -21q42 86 42 222v172h48q50 0 90 4v-389z" />
    <glyph glyph-name="Korea1.449" unicode="&#x318d;" 
d="M375 426q0 -34 21.5 -54.5t53.5 -20.5t53.5 20.5t21.5 54.5t-21.5 54.5t-53.5 20.5t-53.5 -20.5t-21.5 -54.5z" />
    <glyph glyph-name="Korea1.450" unicode="&#x318e;" 
d="M560 813v-856h106v856h-106zM182 426q0 -34 21.5 -54.5t53.5 -20.5t53.5 20.5t21.5 54.5t-21.5 54.5t-53.5 20.5t-53.5 -20.5t-21.5 -54.5z" />
    <glyph glyph-name="Korea1.451" unicode="&#x2170;" 
d="M394 0h110v540h-110v-540zM375 703q0 -34 21.5 -54.5t53.5 -20.5t53.5 20.5t21.5 54.5t-21.5 54.5t-53.5 20.5t-53.5 -20.5t-21.5 -54.5z" />
    <glyph glyph-name="Korea1.452" unicode="&#x2171;" 
d="M512 0h108v540h-108v-540zM278 0h108v540h-108v-540zM258 703q0 -34 21.5 -54.5t53.5 -20.5t53.5 20.5t21.5 54.5t-21.5 54.5t-53.5 20.5t-53.5 -20.5t-21.5 -54.5zM492 703q0 -34 21.5 -54.5t53.5 -20.5t53.5 20.5t21.5 54.5t-21.5 54.5t-53.5 20.5t-53.5 -20.5
t-21.5 -54.5z" />
    <glyph glyph-name="Korea1.453" unicode="&#x2172;" 
d="M169 0h108v540h-108v-540zM394 0h108v540h-108v-540zM149 703q0 -34 21.5 -54.5t53.5 -20.5t53.5 20.5t21.5 54.5t-21.5 54.5t-53.5 20.5t-53.5 -20.5t-21.5 -54.5zM374 703q0 -34 21.5 -54.5t53.5 -20.5t53.5 20.5t21.5 54.5t-21.5 54.5t-53.5 20.5t-53.5 -20.5
t-21.5 -54.5zM620 0h108v540h-108v-540zM600 703q0 -34 21.5 -54.5t53.5 -20.5t53.5 20.5t21.5 54.5t-21.5 54.5t-53.5 20.5t-53.5 -20.5t-21.5 -54.5z" />
    <glyph glyph-name="Korea1.454" unicode="&#x2173;" 
d="M155 0h108v540h-108v-540zM540 0h94q75 95 120.5 242.5t61.5 297.5h-99q-15 -128 -48.5 -246.5t-76.5 -183.5q-93 229 -136 430h-109q38 -144 90.5 -296.5t102.5 -243.5zM135 703q0 -34 21.5 -54.5t53.5 -20.5t53.5 20.5t21.5 54.5t-21.5 54.5t-53.5 20.5t-53.5 -20.5
t-21.5 -54.5z" />
    <glyph glyph-name="Korea1.455" unicode="&#x2174;" 
d="M408 0h94q76 97 126 247t66 293h-99q-14 -122 -52 -242.5t-83 -187.5q-92 227 -146 430h-109q113 -378 203 -540z" />
    <glyph glyph-name="Korea1.456" unicode="&#x2175;" 
d="M649 0h108v540h-108v-540zM290 0h94q75 95 120.5 242.5t61.5 297.5h-99q-15 -128 -48.5 -246.5t-76.5 -183.5q-93 229 -136 430h-109q38 -144 90.5 -296.5t102.5 -243.5zM629 703q0 -34 21.5 -54.5t53.5 -20.5t53.5 20.5t21.5 54.5t-21.5 54.5t-53.5 20.5t-53.5 -20.5
t-21.5 -54.5z" />
    <glyph glyph-name="Korea1.457" unicode="&#x2176;" 
d="M539 0h106v540h-106v-540zM225 0h94q137 175 177 540h-99q-15 -132 -46.5 -249.5t-73.5 -180.5q-83 203 -131 430h-109q100 -380 188 -540zM730 0h106v540h-106v-540zM519 703q0 -34 21.5 -54.5t52.5 -20.5t52 20.5t21 54.5t-21 54.5t-52 20.5t-52.5 -20.5t-21.5 -54.5z
M710 703q0 -34 21.5 -54.5t52.5 -20.5t52 20.5t21 54.5t-21 54.5t-52 20.5t-52.5 -20.5t-21.5 -54.5z" />
    <glyph glyph-name="Korea1.458" unicode="&#x2177;" 
d="M437 0h102v540h-102v-540zM178 0h92q46 60 75.5 164.5t39 184t16.5 191.5h-97q-17 -325 -75 -430q-54 146 -96 430h-107q58 -368 152 -540zM595 0h102v540h-102v-540zM752 0h102v540h-102v-540zM419 703q0 -34 20.5 -54.5t49.5 -20.5t49 20.5t20 54.5t-20 54.5t-49 20.5
t-49.5 -20.5t-20.5 -54.5zM577 703q0 -34 20.5 -54.5t49.5 -20.5t49 20.5t20 54.5t-20 54.5t-49 20.5t-49.5 -20.5t-20.5 -54.5zM734 703q0 -34 20.5 -54.5t49.5 -20.5t49 20.5t20 54.5t-20 54.5t-49 20.5t-49.5 -20.5t-20.5 -54.5z" />
    <glyph glyph-name="Korea1.459" unicode="&#x2178;" 
d="M155 0h108v540h-108v-540zM569 198l127 -198h117l-187 283l169 257h-114l-112 -174l-111 174h-114l168 -258l-186 -282h115zM135 703q0 -34 21.5 -54.5t53.5 -20.5t53.5 20.5t21.5 54.5t-21.5 54.5t-53.5 20.5t-53.5 -20.5t-21.5 -54.5z" />
    <glyph glyph-name="Korea1.460" unicode="&#x2179;" 
d="M449 198l127 -198h117l-187 283l169 257h-114l-112 -174l-111 174h-114l168 -258l-186 -282h115z" />
    <glyph glyph-name="Korea1.461" unicode="&#x2160;" 
d="M506 0v752h-113v-752h113z" />
    <glyph glyph-name="Korea1.462" unicode="&#x2161;" 
d="M364 0v752h-109v-752h109zM645 0v752h-109v-752h109z" />
    <glyph glyph-name="Korea1.463" unicode="&#x2162;" 
d="M253 0v752h-109v-752h109zM504 0v752h-109v-752h109zM755 0v752h-109v-752h109z" />
    <glyph glyph-name="Korea1.464" unicode="&#x2163;" 
d="M191 0v752h-109v-752h109zM367 752h-112q122 -473 236 -752h125q93 130 155 324.5t87 427.5h-104q-58 -428 -191 -649q-91 232 -196 649z" />
    <glyph glyph-name="Korea1.465" unicode="&#x2164;" 
d="M245 752h-118q129 -461 254 -752h131q99 131 166.5 326t93.5 426h-109q-29 -201 -82.5 -369t-124.5 -280q-107 261 -211 649z" />
    <glyph glyph-name="Korea1.466" unicode="&#x2165;" 
d="M831 0v752h-109v-752h109zM147 752h-112q134 -500 236 -752h125q93 130 155 324.5t87 427.5h-104q-58 -428 -191 -649q-84 213 -196 649z" />
    <glyph glyph-name="Korea1.467" unicode="&#x2166;" 
d="M663 0v752h-106v-752h106zM128 752h-110q33 -203 90 -426t96 -326h119q79 122 124 331t52 421h-102q-20 -426 -122 -649q-33 101 -75.5 287.5t-71.5 361.5zM842 0v752h-106v-752h106z" />
    <glyph glyph-name="Korea1.468" unicode="&#x2167;" 
d="M554 0v752h-97v-752h97zM115 752h-105q17 -184 59 -400.5t92 -351.5h113q65 104 99.5 319t37.5 433h-97q-7 -373 -85 -649q-30 97 -63.5 291.5t-50.5 357.5zM701 0v752h-97v-752h97zM849 0v752h-97v-752h97z" />
    <glyph glyph-name="Korea1.469" unicode="&#x2168;" 
d="M193 0v752h-109v-752h109zM520 389l-232 -389h124l171 290l172 -290h120l-234 391l208 361h-118l-149 -262l-149 262h-123z" />
    <glyph glyph-name="Korea1.470" unicode="&#x2169;" 
d="M388 389l-232 -389h124l171 290l172 -290h120l-234 391l208 361h-118l-149 -262l-149 262h-123z" />
    <glyph glyph-name="Korea1.471" unicode="&#x391;" horiz-adv-x="700" 
d="M132 0q9 27 32.5 105t37.5 118h295q14 -41 38.5 -121t31.5 -102h116q-153 498 -286 752h-95q-132 -252 -286 -752h116zM349 626q16 -35 33 -79.5t28 -76t29 -85.5t27 -78h-233q85 250 116 319z" />
    <glyph glyph-name="Korea1.472" unicode="&#x392;" horiz-adv-x="610" 
d="M443 413q43 18 71.5 61t28.5 97q0 93 -70.5 145.5t-183.5 52.5q-94 0 -218 -50v-705q112 -19 214 -19q150 0 222 61.5t72 168.5q0 71 -38 122t-98 66zM463 228q0 -76 -44 -111t-119 -35q-58 0 -117 8v271h115q68 0 116.5 -34t48.5 -99zM279 445h-96v219q57 19 108 19
q55 0 95.5 -31.5t40.5 -84.5q0 -55 -43 -88.5t-105 -33.5z" />
    <glyph glyph-name="Korea1.473" unicode="&#x393;" horiz-adv-x="520" 
d="M185 0v668h310v84h-424v-752h114z" />
    <glyph glyph-name="Korea1.474" unicode="&#x394;" horiz-adv-x="650" 
d="M14 0h622l-262 752h-101zM160 85l163 505l168 -505h-331z" />
    <glyph glyph-name="Korea1.475" unicode="&#x395;" horiz-adv-x="560" 
d="M518 16v71h-265q-68 0 -68 57v208h304v84h-304v232h320v84h-434v-609q0 -148 183 -143q145 2 264 16z" />
    <glyph glyph-name="Korea1.476" unicode="&#x396;" horiz-adv-x="590" 
d="M41 752v-84h353q-268 -322 -371 -626v-42h548v84h-417q25 75 66.5 155t101 166t106.5 148.5t121 155.5l-20 43h-488z" />
    <glyph glyph-name="Korea1.477" unicode="&#x397;" horiz-adv-x="700" 
d="M183 445v307h-112v-752h112v358h334v-358h112v752h-112v-307h-334z" />
    <glyph glyph-name="Korea1.478" unicode="&#x398;" horiz-adv-x="720" 
d="M201 417v-87h318v87h-318zM153 376q0 147 54 227t153 80t153 -80t54 -227t-54 -227t-153 -80t-153 80t-54 227zM683 376q0 182 -85 287.5t-238 105.5t-238 -105.5t-85 -287.5t85 -287.5t238 -105.5t238 105.5t85 287.5z" />
    <glyph glyph-name="Korea1.479" unicode="&#x399;" horiz-adv-x="270" 
d="M191 0v752h-113v-752h113z" />
    <glyph glyph-name="Korea1.480" unicode="&#x39a;" horiz-adv-x="645" 
d="M183 0v752h-112v-752h112zM195 404l320 -404h136l-319 402q137 159 272 350h-129q-88 -128 -280 -348z" />
    <glyph glyph-name="Korea1.481" unicode="&#x39b;" horiz-adv-x="700" 
d="M349 626q115 -290 218 -626h116q-153 498 -286 752h-95q-132 -252 -286 -752h116q15 46 60.5 189t80.5 242t76 195z" />
    <glyph glyph-name="Korea1.482" unicode="&#x39c;" horiz-adv-x="890" 
d="M602 752l-161 -575h-1q-64 350 -196 575h-122l-111 -752h109l88 593q98 -189 168 -563h124l158 558q32 -94 58.5 -273t35.5 -315h107q-26 435 -141 752h-116z" />
    <glyph glyph-name="Korea1.483" unicode="&#x39d;" horiz-adv-x="715" 
d="M506 0h138v752h-112v-577q-60 141 -153 302t-174 275h-134v-752h112v594q152 -212 323 -594z" />
    <glyph glyph-name="Korea1.484" unicode="&#x39e;" horiz-adv-x="600" 
d="M98 335h406v84h-406v-84zM59 668h484v84h-484v-84zM562 84h-521v-84h521v84z" />
    <glyph glyph-name="Korea1.485" unicode="&#x39f;" horiz-adv-x="720" 
d="M153 376q0 147 54 227t153 80t153 -80t54 -227t-54 -227t-153 -80t-153 80t-54 227zM683 376q0 182 -85 287.5t-238 105.5t-238 -105.5t-85 -287.5t85 -287.5t238 -105.5t238 105.5t85 287.5z" />
    <glyph glyph-name="Korea1.486" unicode="&#x3a0;" horiz-adv-x="700" 
d="M71 752v-752h112v668h334v-668h112v752h-558z" />
    <glyph glyph-name="Korea1.487" unicode="&#x3a1;" horiz-adv-x="615" 
d="M71 0h113v267q70 -17 124 -17q119 0 189.5 73t70.5 184q0 122 -76 192t-185 70q-87 0 -236 -49v-720zM456 512q0 -75 -39.5 -124.5t-113.5 -49.5q-59 0 -119 18v309q81 18 121 18q67 0 109 -48.5t42 -122.5z" />
    <glyph glyph-name="Korea1.488" unicode="&#x3a3;" horiz-adv-x="590" 
d="M439 368l-254 299h364v85h-505v-84l254 -300l-254 -286v-82h512v85h-368z" />
    <glyph glyph-name="Korea1.489" unicode="&#x3a4;" horiz-adv-x="580" 
d="M550 665v87h-521v-87h205v-665h114v665h202z" />
    <glyph glyph-name="Korea1.490" unicode="&#x3a5;" horiz-adv-x="610" 
d="M366 0v286q83 93 142.5 217t78.5 249h-103q-19 -102 -67 -207.5t-101 -163.5q-43 65 -94.5 170.5t-86.5 200.5h-112q45 -116 110 -243.5t124 -221.5v-287h109z" />
    <glyph glyph-name="Korea1.491" unicode="&#x3a6;" horiz-adv-x="640" 
d="M374 0v140q101 6 166 68.5t65 165.5q0 104 -64.5 166.5t-166.5 67.5v144h-109v-144q-101 -6 -164.5 -68t-63.5 -166q0 -102 64 -164.5t164 -69.5v-140h109zM496 374q0 -61 -36 -105.5t-86 -47.5v307q51 -4 86.5 -48t35.5 -106zM146 374q0 61 34.5 104.5t84.5 48.5v-306
q-50 5 -84.5 49t-34.5 104z" />
    <glyph glyph-name="Korea1.492" unicode="&#x3a7;" horiz-adv-x="620" 
d="M248 389l-232 -389h124l171 290l172 -290h120l-234 391l208 361h-118l-149 -262l-149 262h-123z" />
    <glyph glyph-name="Korea1.493" unicode="&#x3a8;" horiz-adv-x="740" 
d="M315 752v-475q-58 8 -99 57t-41 118v300h-109v-301q0 -107 74.5 -180t174.5 -80v-191h109v191q100 7 175 80t75 180v301h-109v-300q0 -69 -41 -118t-100 -57v475h-109z" />
    <glyph glyph-name="Korea1.494" unicode="&#x3a9;" horiz-adv-x="730" 
d="M365 683q100 0 156 -72.5t56 -174.5q0 -79 -43 -150t-133 -101v-185h273v85h-161v60q81 41 130.5 117t49.5 174q0 145 -94.5 239t-233.5 94t-233.5 -94t-94.5 -239q0 -98 49.5 -174t130.5 -117v-60h-161v-85h273v185q-90 30 -133 101t-43 150q0 102 56 174.5t156 72.5z
" />
    <glyph glyph-name="Korea1.495" unicode="&#x3b1;" horiz-adv-x="665" 
d="M592 -19q38 0 73 21l-10 68q-29 -8 -57 -8q-25 0 -36.5 37.5t-17.5 112.5q5 20 11 48q28 118 33 279h-104q-2 -49 -5 -96q-65 117 -197 117q-116 0 -180.5 -82t-64.5 -221q0 -135 62.5 -205.5t172.5 -70.5q139 0 202 92q30 -92 118 -92zM275 62q-129 0 -129 195
q0 223 143 223q63 0 103 -63.5t55 -160.5q-30 -194 -172 -194z" />
    <glyph glyph-name="Korea1.496" unicode="&#x3b2;" horiz-adv-x="565" 
d="M182 -235v278q53 -22 120 -22q101 0 172.5 62.5t71.5 170.5q0 58 -35.5 114t-93.5 81q35 21 56.5 57t21.5 77q0 78 -63.5 132t-147.5 54q-90 0 -151.5 -51t-61.5 -130v-823h111zM439 253q0 -70 -42 -110.5t-103 -40.5q-59 0 -112 24v461q0 44 26 72.5t76 28.5t76 -29.5
t26 -75.5q0 -47 -33.5 -76.5t-81.5 -29.5h-43v-83h53q70 0 114 -38.5t44 -102.5z" />
    <glyph glyph-name="Korea1.497" unicode="&#x3b3;" horiz-adv-x="580" 
d="M475 535l-152 -306l-54 228q-12 53 -41 77t-84 24q-77 0 -133 -103l59 -46q43 69 68 69q21 0 28 -31l78 -334q-28 -48 -44 -77.5t-35.5 -82t-19.5 -90.5q0 -62 38.5 -96t93.5 -34q57 0 95.5 40t38.5 93q0 61 -50 218l206 404zM276 -181q-27 0 -27 41q0 38 36 131
q22 -101 22 -127q0 -20 -9 -32.5t-22 -12.5z" />
    <glyph glyph-name="Korea1.498" unicode="&#x3b4;" horiz-adv-x="610" 
d="M575 271q0 138 -73.5 214t-195.5 76q-38 0 -48 3q-38 11 -38 54q0 33 20.5 51.5t59.5 18.5q70 0 132 -36l34 60q-80 57 -167 57q-91 0 -139.5 -42.5t-48.5 -113.5q0 -54 44 -92q-118 -85 -118 -250q0 -138 74 -214t195 -76q122 0 195.5 76t73.5 214zM466 271
q0 -96 -40.5 -152.5t-119.5 -56.5t-119.5 56.5t-40.5 152.5q0 94 42 151.5t118 57.5t118 -57.5t42 -151.5z" />
    <glyph glyph-name="Korea1.499" unicode="&#x3b5;" horiz-adv-x="500" 
d="M43 156q0 -81 55.5 -128t150.5 -47q72 0 128 26.5t111 81.5l-54 62q-92 -89 -184 -89q-44 0 -69.5 24t-25.5 69q0 37 20.5 60t53.5 23h96v79h-96q-25 0 -42.5 21.5t-17.5 60.5t23 60t65 21q75 0 153 -60l46 64q-98 77 -199 77q-96 0 -148.5 -44.5t-52.5 -119.5t65 -116
q-78 -38 -78 -125z" />
    <glyph glyph-name="Korea1.500" unicode="&#x3b6;" horiz-adv-x="575" 
d="M374 57q-109 14 -167.5 94t-58.5 205q0 55 16.5 117.5t52.5 114.5t83 58q104 13 127 19v86q-84 -21 -185 -21q-118 0 -207 24v-87q32 -9 92 -17q-41 -49 -68 -137t-27 -156q0 -167 85.5 -273t246.5 -121q63 -5 63 -56q0 -35 -38.5 -52.5t-124.5 -21.5v-84q279 3 279 158
q0 67 -47 105t-122 45z" />
    <glyph glyph-name="Korea1.501" unicode="&#x3b7;" horiz-adv-x="580" 
d="M61 0h108v452q86 22 140 22q51 0 76.5 -21.5t25.5 -80.5v-608h108v611q0 87 -49 134.5t-148 47.5q-105 0 -261 -60v-497z" />
    <glyph glyph-name="Korea1.502" unicode="&#x3b8;" horiz-adv-x="610" 
d="M305 -17q132 0 200 107t68 286t-68 286t-200 107t-200 -107t-68 -286t68 -286t200 -107zM305 69q-71 0 -109 69t-43 197h304q-11 -266 -152 -266zM305 683q71 0 109 -69t43 -196h-304q5 127 43 196t109 69z" />
    <glyph glyph-name="Korea1.503" unicode="&#x3b9;" horiz-adv-x="325" 
d="M182 540h-110v-422q0 -137 147 -137q46 0 81 21l-10 69q-29 -8 -61 -8q-47 0 -47 62v415z" />
    <glyph glyph-name="Korea1.504" unicode="&#x3ba;" horiz-adv-x="515" 
d="M174 0v540h-108v-540h108zM302 302l98 142q30 44 88 44l-5 70q-61 0 -100 -12t-63 -45l-142 -195l213 -306h120z" />
    <glyph glyph-name="Korea1.505" unicode="&#x3bb;" horiz-adv-x="660" 
d="M77 770l-31 -86q117 -28 162 -174l-190 -510h115l136 369l111 -290q40 -98 136 -98q83 0 142 92l-64 54q-44 -66 -73 -66q-11 0 -21 10.5t-13.5 18t-9.5 24.5l-154 411q-37 100 -94 162t-152 83z" />
    <glyph glyph-name="Korea1.506" unicode="&#x3bc;" horiz-adv-x="585" 
d="M411 0h108v540h-108v-361q0 -55 -37 -85.5t-87 -30.5q-45 0 -76.5 29.5t-31.5 81.5v366h-108v-776h108v253q43 -36 109 -36q34 0 68.5 13t54.5 36v-30z" />
    <glyph glyph-name="Korea1.507" unicode="&#x3bd;" horiz-adv-x="545" 
d="M235 0h102q178 232 178 424q0 55 -11 116h-112q15 -63 15 -119q0 -141 -108 -306l-178 425h-114z" />
    <glyph glyph-name="Korea1.508" unicode="&#x3be;" horiz-adv-x="600" 
d="M49 751v-83q33 -10 91 -19q-29 -46 -29 -91q0 -63 49 -104q-49 -28 -80 -84t-31 -123q0 -105 69.5 -176t215.5 -71h45q69 0 69 -55q0 -33 -42.5 -54t-125.5 -25v-82q150 2 217 47.5t67 114.5q0 139 -177 139h-55q-85 0 -126.5 44.5t-41.5 117.5q0 70 40.5 116.5
t89.5 46.5h154v86h-169q-25 0 -38.5 20.5t-13.5 46.5q0 28 15.5 55t32.5 27q91 0 173 19v83q-87 -20 -188 -20q-109 0 -211 24z" />
    <glyph glyph-name="Korea1.509" unicode="&#x3bf;" horiz-adv-x="610" 
d="M466 270q0 -96 -40.5 -152t-119.5 -56t-119.5 56t-40.5 152q0 94 42 150.5t118 56.5t118 -56.5t42 -150.5zM575 270q0 138 -73.5 213t-195.5 75q-121 0 -195 -75.5t-74 -212.5q0 -138 74 -213.5t195 -75.5q122 0 195.5 75.5t73.5 213.5z" />
    <glyph glyph-name="Korea1.510" unicode="&#x3c0;" horiz-adv-x="640" 
d="M24 540v-83h100v-291q0 -82 -88 -144l62 -70q66 42 100 91.5t34 122.5v291h134v-346q0 -67 41.5 -98.5t103.5 -31.5q29 0 62 13.5t57 35.5l-29 61q-49 -29 -85 -29q-43 0 -43 49v346h120v83h-569z" />
    <glyph glyph-name="Korea1.511" unicode="&#x3c1;" horiz-adv-x="645" 
d="M610 266q0 138 -74.5 215t-195.5 77t-195 -77t-74 -215v-502h108v269q27 -26 71 -41.5t90 -15.5q122 0 196 76t74 214zM501 266q0 -95 -41 -152t-120 -57t-119.5 56.5t-40.5 152.5q0 95 42 153t118 58t118.5 -58.5t42.5 -152.5z" />
    <glyph glyph-name="Korea1.512" unicode="&#x3c3;" horiz-adv-x="615" 
d="M575 261q0 126 -67 196h84v83h-293q-119 0 -190.5 -72t-71.5 -207q0 -137 73.5 -208.5t195.5 -71.5q123 0 196 71.5t73 208.5zM466 261q0 -94 -40.5 -146.5t-119.5 -52.5t-119.5 52.5t-40.5 146.5q0 93 41.5 145.5t118.5 52.5t118.5 -52.5t41.5 -145.5z" />
    <glyph glyph-name="Korea1.513" unicode="&#x3c4;" horiz-adv-x="500" 
d="M192 457v-339q0 -137 147 -137q46 0 81 21l-10 69q-29 -8 -61 -8q-49 0 -49 62v332h170v83h-441v-83h163z" />
    <glyph glyph-name="Korea1.514" unicode="&#x3c5;" horiz-adv-x="575" 
d="M169 540h-108v-368q0 -89 60 -140t166 -51q52 0 95 15t80 49t57.5 97t20.5 150q0 71 -27 148.5t-73 127.5l-86 -56q35 -38 56 -100t21 -120q0 -101 -38 -165.5t-106 -64.5q-57 0 -87.5 29.5t-30.5 80.5v368z" />
    <glyph glyph-name="Korea1.515" unicode="&#x3c6;" horiz-adv-x="675" 
d="M412 558q-58 0 -92.5 -31.5t-34.5 -90.5v-367q-67 19 -103.5 71.5t-36.5 131.5q0 64 28.5 119.5t71.5 87.5l-62 68q-63 -41 -104.5 -114t-41.5 -161q0 -107 64.5 -189t183.5 -99v-220h107v220q121 16 184.5 92.5t63.5 192.5q0 137 -62.5 213t-165.5 76zM392 69v374
q0 16 7.5 25t18.5 9q50 0 82.5 -59.5t32.5 -148.5q0 -165 -141 -200z" />
    <glyph glyph-name="Korea1.516" unicode="&#x3c7;" horiz-adv-x="640" 
d="M468 540l-154 -270l-84 169q-32 65 -62 92t-89 27q-40 0 -72 -19l15 -75q25 9 48 9q19 0 31 -14t27 -45l124 -252l-227 -398h124l159 283l90 -181q30 -61 66.5 -90t95.5 -29q40 0 72 19l-15 73q-25 -7 -51 -7q-23 0 -35.5 14t-27.5 45l-133 266l216 383h-118z" />
    <glyph glyph-name="Korea1.517" unicode="&#x3c8;" horiz-adv-x="740" 
d="M315 540v-475q-58 8 -99 57t-41 118v300h-109v-301q0 -107 74 -179.5t175 -80.5v-215h109v215q100 7 175 80t75 180v301h-109v-300q0 -69 -41 -118t-100 -57v475h-109z" />
    <glyph glyph-name="Korea1.518" unicode="&#x3c9;" horiz-adv-x="700" 
d="M406 189v136h-110v-136q0 -47 -19.5 -87.5t-50.5 -40.5q-78 0 -78 197q0 212 101 221v79q-58 -2 -100.5 -28t-66 -69.5t-34.5 -93.5t-11 -109q0 -277 185 -277q40 0 75.5 22t52.5 54q20 -31 56.5 -53.5t75.5 -22.5q183 0 183 277q0 59 -11 109t-35 93.5t-66.5 69.5
t-100.5 28v-79q102 -9 102 -221q0 -197 -78 -197q-33 0 -51.5 40t-18.5 88z" />
    <glyph glyph-name="Korea1.519" unicode="&#x2500;" 
d="M0 271h900v64h-900v-64z" />
    <glyph glyph-name="Korea1.520" unicode="&#x2502;" 
d="M409 -200h81v1000h-81v-1000z" />
    <glyph glyph-name="Korea1.521" unicode="&#x250c;" 
d="M490 271h410v64h-491v-535h81v471z" />
    <glyph glyph-name="Korea1.522" unicode="&#x2510;" 
d="M409 -200h81v535h-490v-64h409v-471z" />
    <glyph glyph-name="Korea1.523" unicode="&#x2518;" 
d="M0 271h490v529h-81v-465h-409v-64z" />
    <glyph glyph-name="Korea1.524" unicode="&#x2514;" 
d="M409 271h491v64h-410v465h-81v-529z" />
    <glyph glyph-name="Korea1.525" unicode="&#x251c;" 
d="M490 271h410v64h-410v465h-81v-1000h81v471z" />
    <glyph glyph-name="Korea1.526" unicode="&#x252c;" 
d="M490 271h410v64h-900v-64h409v-471h81v471z" />
    <glyph glyph-name="Korea1.527" unicode="&#x2524;" 
d="M409 -200h81v1000h-81v-465h-409v-64h409v-471z" />
    <glyph glyph-name="Korea1.528" unicode="&#x2534;" 
d="M0 271h900v64h-410v465h-81v-465h-409v-64z" />
    <glyph glyph-name="Korea1.529" unicode="&#x253c;" 
d="M490 271h410v64h-410v465h-81v-465h-409v-64h409v-471h81v471z" />
    <glyph glyph-name="Korea1.530" unicode="&#x2501;" 
d="M0 250h900v100h-900v-100z" />
    <glyph glyph-name="Korea1.531" unicode="&#x2503;" 
d="M393 -200h114v1000h-114v-1000z" />
    <glyph glyph-name="Korea1.532" unicode="&#x250f;" 
d="M507 250h393v100h-507v-550h114v450z" />
    <glyph glyph-name="Korea1.533" unicode="&#x2513;" 
d="M393 -200h114v550h-507v-100h393v-450z" />
    <glyph glyph-name="Korea1.534" unicode="&#x251b;" 
d="M0 250h507v550h-114v-450h-393v-100z" />
    <glyph glyph-name="Korea1.535" unicode="&#x2517;" 
d="M393 250h507v100h-393v450h-114v-550z" />
    <glyph glyph-name="Korea1.536" unicode="&#x2523;" 
d="M507 250h393v100h-393v450h-114v-1000h114v450z" />
    <glyph glyph-name="Korea1.537" unicode="&#x2533;" 
d="M507 250h393v100h-900v-100h393v-450h114v450z" />
    <glyph glyph-name="Korea1.538" unicode="&#x252b;" 
d="M393 -200h114v1000h-114v-450h-393v-100h393v-450z" />
    <glyph glyph-name="Korea1.539" unicode="&#x253b;" 
d="M0 250h900v100h-393v450h-114v-450h-393v-100z" />
    <glyph glyph-name="Korea1.540" unicode="&#x254b;" 
d="M507 250h393v100h-393v450h-114v-450h-393v-100h393v-450h114v450z" />
    <glyph glyph-name="Korea1.541" unicode="&#x2520;" 
d="M507 271h393v64h-393v465h-114v-1000h114v471z" />
    <glyph glyph-name="Korea1.542" unicode="&#x252f;" 
d="M490 250h410v100h-900v-100h409v-450h81v450z" />
    <glyph glyph-name="Korea1.543" unicode="&#x2528;" 
d="M393 -200h114v1000h-114v-465h-393v-64h393v-471z" />
    <glyph glyph-name="Korea1.544" unicode="&#x2537;" 
d="M0 250h900v100h-410v450h-81v-450h-409v-100z" />
    <glyph glyph-name="Korea1.545" unicode="&#x253f;" 
d="M490 250h410v100h-410v450h-81v-450h-409v-100h409v-450h81v450z" />
    <glyph glyph-name="Korea1.546" unicode="&#x251d;" 
d="M490 250h410v100h-410v450h-81v-1000h81v450z" />
    <glyph glyph-name="Korea1.547" unicode="&#x2530;" 
d="M507 271h393v64h-900v-64h393v-471h114v471z" />
    <glyph glyph-name="Korea1.548" unicode="&#x2525;" 
d="M409 -200h81v1000h-81v-450h-409v-100h409v-450z" />
    <glyph glyph-name="Korea1.549" unicode="&#x2538;" 
d="M0 271h900v64h-393v465h-114v-465h-393v-64z" />
    <glyph glyph-name="Korea1.550" unicode="&#x2542;" 
d="M507 271h393v64h-393v465h-114v-465h-393v-64h393v-471h114v471z" />
    <glyph glyph-name="Korea1.551" unicode="&#x2512;" 
d="M393 -200h114v535h-507v-64h393v-471z" />
    <glyph glyph-name="Korea1.552" unicode="&#x2511;" 
d="M409 -200h81v550h-490v-100h409v-450z" />
    <glyph glyph-name="Korea1.553" unicode="&#x251a;" 
d="M0 271h507v529h-114v-465h-393v-64z" />
    <glyph glyph-name="Korea1.554" unicode="&#x2519;" 
d="M0 250h490v550h-81v-450h-409v-100z" />
    <glyph glyph-name="Korea1.555" unicode="&#x2516;" 
d="M393 271h507v64h-393v465h-114v-529z" />
    <glyph glyph-name="Korea1.556" unicode="&#x2515;" 
d="M409 250h491v100h-410v450h-81v-550z" />
    <glyph glyph-name="Korea1.557" unicode="&#x250e;" 
d="M507 271h393v64h-507v-535h114v471z" />
    <glyph glyph-name="Korea1.558" unicode="&#x250d;" 
d="M490 250h410v100h-491v-550h81v450z" />
    <glyph glyph-name="Korea1.559" unicode="&#x251e;" 
d="M490 271h410v64h-393v465h-114v-529h16v-471h81v471z" />
    <glyph glyph-name="Korea1.560" unicode="&#x251f;" 
d="M507 271h393v64h-410v465h-81v-465h-16v-535h114v471z" />
    <glyph glyph-name="Korea1.561" unicode="&#x2521;" 
d="M490 250h410v100h-393v450h-114v-550h16v-450h81v450z" />
    <glyph glyph-name="Korea1.562" unicode="&#x2522;" 
d="M507 250h393v100h-410v450h-81v-450h-16v-550h114v450z" />
    <glyph glyph-name="Korea1.563" unicode="&#x2526;" 
d="M490 271h17v529h-114v-465h-393v-64h409v-471h81v471z" />
    <glyph glyph-name="Korea1.564" unicode="&#x2527;" 
d="M393 -200h114v535h-17v465h-81v-465h-409v-64h393v-471z" />
    <glyph glyph-name="Korea1.565" unicode="&#x2529;" 
d="M490 250h17v550h-114v-450h-393v-100h409v-450h81v450z" />
    <glyph glyph-name="Korea1.566" unicode="&#x252a;" 
d="M393 -200h114v550h-17v450h-81v-450h-409v-100h393v-450z" />
    <glyph glyph-name="Korea1.567" unicode="&#x252d;" 
d="M490 271h410v64h-419v15h-481v-100h409v-450h81v471z" />
    <glyph glyph-name="Korea1.568" unicode="&#x252e;" 
d="M490 250h410v100h-491v-15h-409v-64h409v-471h81v450z" />
    <glyph glyph-name="Korea1.569" unicode="&#x2531;" 
d="M507 271h393v64h-393v15h-507v-100h393v-450h114v471z" />
    <glyph glyph-name="Korea1.570" unicode="&#x2532;" 
d="M507 250h393v100h-507v-15h-393v-64h393v-471h114v450z" />
    <glyph glyph-name="Korea1.571" unicode="&#x2535;" 
d="M490 271h410v64h-410v465h-81v-450h-409v-100h490v21z" />
    <glyph glyph-name="Korea1.572" unicode="&#x2536;" 
d="M409 250h491v100h-410v450h-81v-465h-409v-64h409v-21z" />
    <glyph glyph-name="Korea1.573" unicode="&#x2539;" 
d="M507 271h393v64h-393v465h-114v-450h-393v-100h507v21z" />
    <glyph glyph-name="Korea1.574" unicode="&#x253a;" 
d="M393 250h507v100h-393v450h-114v-465h-393v-64h393v-21z" />
    <glyph glyph-name="Korea1.575" unicode="&#x253d;" 
d="M490 271h410v64h-410v465h-81v-450h-409v-100h409v-450h81v471z" />
    <glyph glyph-name="Korea1.576" unicode="&#x253e;" 
d="M490 250h410v100h-410v450h-81v-465h-409v-64h409v-471h81v450z" />
    <glyph glyph-name="Korea1.577" unicode="&#x2540;" 
d="M490 271h410v64h-393v465h-114v-465h-393v-64h409v-471h81v471z" />
    <glyph glyph-name="Korea1.578" unicode="&#x2541;" 
d="M507 271h393v64h-410v465h-81v-465h-409v-64h393v-471h114v471z" />
    <glyph glyph-name="Korea1.579" unicode="&#x2543;" 
d="M490 271h410v64h-393v465h-114v-450h-393v-100h409v-450h81v471z" />
    <glyph glyph-name="Korea1.580" unicode="&#x2544;" 
d="M490 250h410v100h-393v450h-114v-465h-393v-64h409v-471h81v450z" />
    <glyph glyph-name="Korea1.581" unicode="&#x2545;" 
d="M507 271h393v64h-410v465h-81v-450h-409v-100h393v-450h114v471z" />
    <glyph glyph-name="Korea1.582" unicode="&#x2546;" 
d="M507 250h393v100h-410v450h-81v-465h-409v-64h393v-471h114v450z" />
    <glyph glyph-name="Korea1.583" unicode="&#x2547;" 
d="M490 250h410v100h-393v450h-114v-450h-393v-100h409v-450h81v450z" />
    <glyph glyph-name="Korea1.584" unicode="&#x2548;" 
d="M507 250h393v100h-410v450h-81v-450h-409v-100h393v-450h114v450z" />
    <glyph glyph-name="Korea1.585" unicode="&#x2549;" 
d="M507 271h393v64h-393v465h-114v-450h-393v-100h393v-450h114v471z" />
    <glyph glyph-name="Korea1.586" unicode="&#x254a;" 
d="M507 250h393v100h-393v450h-114v-465h-393v-64h393v-471h114v450z" />
    <glyph glyph-name="Korea1.587" unicode="&#x3395;" horiz-adv-x="920" 
d="M486 49l-46 36q-21 -28 -36 -28q-9 0 -13.5 7t-2.5 15l107 434h-98l-104 -414q-4 -17 -19 -27t-32 -10q-33 0 -50 29l102 422h-99l-188 -738h100l60 235q31 -27 79 -27q56 0 91 31q17 -31 59 -31q53 0 90 66zM499 93l24 -75q54 3 110 23q36 -54 107 -54q44 0 87 32t71 80
l-56 43q-52 -75 -93 -75q-19 0 -32 22q41 42 75 125t52 184q7 41 7 92t-9 107.5t-41 94.5t-83 38q-74 0 -121.5 -93.5t-57.5 -228.5q-12 -160 47 -292q-35 -12 -87 -23zM720 645q18 0 26.5 -32t7 -78t-4 -79.5t-5.5 -52.5q-23 -166 -76 -237q-41 103 -30 244
q8 104 30.5 169.5t51.5 65.5z" />
    <glyph glyph-name="Korea1.588" unicode="&#x3396;" horiz-adv-x="920" 
d="M509 93l24 -75q54 3 110 23q36 -54 107 -54q44 0 87 32t71 80l-56 43q-52 -75 -93 -75q-19 0 -32 22q41 42 75 125t52 184q7 41 7 92t-9 107.5t-41 94.5t-83 38q-74 0 -121.5 -93.5t-57.5 -228.5q-12 -160 47 -292q-35 -12 -87 -23zM318 0v410q0 17 -3 32q24 8 49 8
q35 0 35 -40v-410h93v416q0 54 -29 83.5t-79 29.5q-51 0 -103 -25q-28 25 -81 25q-47 0 -150 -39v-490h93v439q34 11 51 11q32 0 32 -41v-409h92zM730 645q18 0 26.5 -32t7 -78t-4 -79.5t-5.5 -52.5q-23 -166 -76 -237q-41 103 -30 244q8 104 30.5 169.5t51.5 65.5z" />
    <glyph glyph-name="Korea1.589" unicode="&#x3397;" horiz-adv-x="920" 
d="M472 44v698l-102 -9v-227q-65 23 -110 23q-95 0 -150.5 -73.5t-55.5 -198.5q0 -129 54 -201t152 -72q33 0 74 10.5t65.5 20t72.5 29.5zM370 430v-346q-58 -21 -97 -21q-117 0 -117 195q0 87 28.5 140.5t88.5 53.5q48 0 97 -22zM499 93l24 -75q54 3 110 23q36 -54 107 -54
q44 0 87 32t71 80l-56 43q-52 -75 -93 -75q-19 0 -32 22q41 42 75 125t52 184q7 41 7 92t-9 107.5t-41 94.5t-83 38q-74 0 -121.5 -93.5t-57.5 -228.5q-12 -160 47 -292q-35 -12 -87 -23zM720 645q18 0 26.5 -32t7 -78t-4 -79.5t-5.5 -52.5q-23 -166 -76 -237
q-41 103 -30 244q8 104 30.5 169.5t51.5 65.5z" />
    <glyph glyph-name="Korea1.590" unicode="&#x2113;" horiz-adv-x="570" 
d="M74 93l22 -78q58 1 128 24q44 -56 115 -56q46 0 91.5 32.5t73.5 81.5l-66 52q-53 -79 -93 -79q-19 0 -31 20q72 87 110.5 210.5t38.5 229.5q0 84 -39 142t-111 58q-90 0 -143.5 -100.5t-53.5 -269.5q0 -135 58 -248q-23 -8 -100 -19zM315 644q17 0 28 -33.5t11 -80.5
q0 -81 -24.5 -185t-71.5 -171q-33 89 -33 188q0 111 27 196.5t63 85.5z" />
    <glyph glyph-name="Korea1.591" unicode="&#x3398;" horiz-adv-x="920" 
d="M204 291l172 -291h114l-169 287q11 18 39.5 59.5t56 84.5t50.5 83h-109q-19 -33 -42 -66.5t-57 -80t-55 -76.5zM200 0v734l-103 -10v-724h103zM479 93l24 -75q54 3 110 23q36 -54 107 -54q44 0 87 32t71 80l-56 43q-52 -75 -93 -75q-19 0 -32 22q41 42 75 125t52 184
q7 41 7 92t-9 107.5t-41 94.5t-83 38q-74 0 -121.5 -93.5t-57.5 -228.5q-12 -160 47 -292q-35 -12 -87 -23zM700 645q18 0 26.5 -32t7 -78t-4 -79.5t-5.5 -52.5q-23 -166 -76 -237q-41 103 -30 244q8 104 30.5 169.5t51.5 65.5z" />
    <glyph glyph-name="Korea1.592" unicode="&#x33c4;" horiz-adv-x="920" 
d="M172 258q0 95 26.5 145t90.5 50q65 0 152 -37l23 68q-97 46 -189 46q-101 0 -154.5 -70.5t-53.5 -201.5t53.5 -202.5t154.5 -71.5q104 0 198 46l-22 67q-87 -36 -162 -36q-63 0 -90 51t-27 146zM567 258q0 95 26.5 145t90.5 50q65 0 152 -37l23 68q-97 46 -189 46
q-101 0 -154.5 -70.5t-53.5 -201.5t53.5 -202.5t154.5 -71.5q104 0 198 46l-22 67q-87 -36 -162 -36q-63 0 -90 51t-27 146z" />
    <glyph glyph-name="Korea1.593" unicode="&#x33a3;" horiz-adv-x="920" 
d="M292 0v410q0 18 -3 33q21 7 35 7q33 0 33 -40v-410h86v416q0 54 -27 83.5t-74 29.5q-39 0 -85 -24q-27 24 -75 24q-35 0 -131 -39v-490h87v440q32 10 38 10q29 0 29 -41v-409h87zM727 0v410q0 18 -3 33q21 7 35 7q33 0 33 -40v-410h87v416q0 54 -27 83.5t-74 29.5
q-40 0 -86 -24q-27 24 -75 24q-34 0 -130 -39v-490h86v440q35 10 38 10q29 0 29 -41v-409h87zM811 599q-21 0 -58 8l-6 -42q37 -11 63 -11q45 0 74 22t29 61q0 32 -16.5 50t-46.5 18l48 76l-12 12h-126v-44h66l-42 -70l14 -11q18 6 26 6q35 0 35 -34q0 -41 -48 -41z" />
    <glyph glyph-name="Korea1.594" unicode="&#x33a4;" horiz-adv-x="920" 
d="M692 0v410q0 17 -3 32q24 8 49 8q35 0 35 -40v-410h93v416q0 54 -29 83.5t-79 29.5q-51 0 -103 -25q-28 25 -81 25q-47 0 -150 -39v-490h93v439q34 11 51 11q32 0 32 -41v-409h92zM142 258q0 95 28 145t74 50q68 0 122 -21l23 65q-75 33 -159 33t-138.5 -70.5
t-54.5 -201.5q0 -140 55.5 -207t142.5 -67q85 0 163 36l-22 67q-72 -26 -131 -26q-103 0 -103 197zM811 599q-21 0 -58 8l-6 -42q37 -11 63 -11q45 0 74 22t29 61q0 32 -16.5 50t-46.5 18l48 76l-12 12h-126v-44h66l-42 -70l14 -11q18 6 26 6q35 0 35 -34q0 -41 -48 -41z
" />
    <glyph glyph-name="Korea1.595" unicode="&#x33a5;" horiz-adv-x="920" 
d="M90 0h103v429q78 21 112 21q46 0 62.5 -19.5t16.5 -77.5v-353h102v358q0 30 -10 68q88 24 120 24q45 0 60.5 -19t15.5 -78v-353h103v356q0 86 -37.5 129.5t-129.5 43.5q-64 0 -171 -37q-43 37 -119 37q-81 0 -228 -57v-472zM761 599q-21 0 -58 8l-6 -42q37 -11 63 -11
q45 0 74 22t29 61q0 32 -16.5 50t-46.5 18l48 76l-12 12h-126v-44h66l-42 -70l14 -11q18 6 26 6q35 0 35 -34q0 -41 -48 -41z" />
    <glyph glyph-name="Korea1.596" unicode="&#x33a6;" horiz-adv-x="920" 
d="M702 0v410q0 17 -3 32q24 8 49 8q35 0 35 -40v-410h93v416q0 54 -29 83.5t-79 29.5q-51 0 -103 -25q-28 25 -81 25q-47 0 -150 -39v-480l-155 277q87 136 138 227h-109q-52 -90 -144 -223l162 -291h201v439q34 11 51 11q32 0 32 -41v-409h92zM160 0v734l-103 -10v-724
h103zM811 599q-21 0 -58 8l-6 -42q37 -11 63 -11q45 0 74 22t29 61q0 32 -16.5 50t-46.5 18l48 76l-12 12h-126v-44h66l-42 -70l14 -11q18 6 26 6q35 0 35 -34q0 -41 -48 -41z" />
    <glyph glyph-name="Korea1.597" unicode="&#x3399;" horiz-adv-x="920" 
d="M651 0v410q0 17 -3 32q24 8 49 8q35 0 35 -40v-410h93v416q0 54 -29 83.5t-79 29.5q-51 0 -103 -25q-28 25 -81 25q-47 0 -150 -39v-490h93v439q34 11 51 11q32 0 32 -41v-409h92zM139 0h104v425h102v78h-102v69q0 46 16 70t58 24q27 0 52 -3l12 66q-36 12 -77 12
q-74 0 -119.5 -43t-45.5 -122v-73h-57v-78h57v-425z" />
    <glyph glyph-name="Korea1.598" unicode="&#x339a;" horiz-adv-x="920" 
d="M702 0v410q0 17 -3 32q24 8 49 8q35 0 35 -40v-410h93v416q0 54 -29 83.5t-79 29.5q-51 0 -103 -25q-28 25 -81 25q-47 0 -150 -39v-490h93v439q34 11 51 11q32 0 32 -41v-409h92zM43 0h103v436q43 14 78 14q29 0 40.5 -13.5t11.5 -47.5v-389h103v389q0 70 -32 105
t-116 35q-63 0 -188 -49v-480z" />
    <glyph glyph-name="Korea1.599" unicode="&#x339b;" horiz-adv-x="920" 
d="M740 0v410q0 18 -3 33q25 7 41 7q34 0 34 -40v-410h88v416q0 54 -27.5 83.5t-75.5 29.5q-46 0 -92 -24q-28 24 -77 24q-40 0 -138 -39v-490h88v440q35 10 44 10q30 0 30 -41v-409h88zM455 49l-44 36q-19 -28 -34 -28q-9 0 -13 7t-2 15l101 434h-93l-99 -414
q-8 -37 -42 -37q-24 0 -41 29l97 422h-94l-178 -738h95l57 235q25 -27 68 -27q57 0 91 31q17 -31 55 -31q41 0 76 66z" />
    <glyph glyph-name="Korea1.600" unicode="&#x339c;" horiz-adv-x="920" 
d="M292 0v410q0 18 -3 33q21 7 35 7q33 0 33 -40v-410h86v416q0 54 -27 83.5t-74 29.5q-39 0 -85 -24q-27 24 -75 24q-35 0 -131 -39v-490h87v440q32 10 38 10q29 0 29 -41v-409h87zM727 0v410q0 18 -3 33q21 7 35 7q33 0 33 -40v-410h87v416q0 54 -27 83.5t-74 29.5
q-40 0 -86 -24q-27 24 -75 24q-34 0 -130 -39v-490h86v440q35 10 38 10q29 0 29 -41v-409h87z" />
    <glyph glyph-name="Korea1.601" unicode="&#x339d;" horiz-adv-x="920" 
d="M692 0v410q0 17 -3 32q24 8 49 8q35 0 35 -40v-410h93v416q0 54 -29 83.5t-79 29.5q-51 0 -103 -25q-28 25 -81 25q-47 0 -150 -39v-490h93v439q34 11 51 11q32 0 32 -41v-409h92zM142 258q0 95 28 145t74 50q68 0 122 -21l23 65q-75 33 -159 33t-138.5 -70.5
t-54.5 -201.5q0 -140 55.5 -207t142.5 -67q85 0 163 36l-22 67q-72 -26 -131 -26q-103 0 -103 197z" />
    <glyph glyph-name="Korea1.602" unicode="&#x339e;" horiz-adv-x="920" 
d="M702 0v410q0 17 -3 32q24 8 49 8q35 0 35 -40v-410h93v416q0 54 -29 83.5t-79 29.5q-51 0 -103 -25q-28 25 -81 25q-47 0 -150 -39v-480l-155 277q87 136 138 227h-109q-52 -90 -144 -223l162 -291h201v439q34 11 51 11q32 0 32 -41v-409h92zM160 0v734l-103 -10v-724
h103z" />
    <glyph glyph-name="Korea1.603" unicode="&#x339f;" horiz-adv-x="920" 
d="M292 0v410q0 18 -3 33q21 7 35 7q33 0 33 -40v-410h86v416q0 54 -27 83.5t-74 29.5q-39 0 -85 -24q-27 24 -75 24q-35 0 -131 -39v-490h87v440q32 10 38 10q29 0 29 -41v-409h87zM727 0v410q0 18 -3 33q21 7 35 7q33 0 33 -40v-410h87v416q0 54 -27 83.5t-74 29.5
q-40 0 -86 -24q-27 24 -75 24q-34 0 -130 -39v-490h86v440q35 10 38 10q29 0 29 -41v-409h87zM822 605v4l54 65q25 30 25 61q0 29 -21.5 47t-68.5 18q-34 0 -64 -13l9 -39q30 8 47 8q36 0 36 -28q0 -17 -14 -34l-71 -86q-11 -13 -11 -24v-23h160v44h-81z" />
    <glyph glyph-name="Korea1.604" unicode="&#x33a0;" horiz-adv-x="920" 
d="M692 0v410q0 17 -3 32q24 8 49 8q35 0 35 -40v-410h93v416q0 54 -29 83.5t-79 29.5q-51 0 -103 -25q-28 25 -81 25q-47 0 -150 -39v-490h93v439q34 11 51 11q32 0 32 -41v-409h92zM142 258q0 95 28 145t74 50q68 0 122 -21l23 65q-75 33 -159 33t-138.5 -70.5
t-54.5 -201.5q0 -140 55.5 -207t142.5 -67q85 0 163 36l-22 67q-72 -26 -131 -26q-103 0 -103 197zM822 605v4l54 65q25 30 25 61q0 29 -21.5 47t-68.5 18q-34 0 -64 -13l9 -39q30 8 47 8q36 0 36 -28q0 -17 -14 -34l-71 -86q-11 -13 -11 -24v-23h160v44h-81z" />
    <glyph glyph-name="Korea1.605" unicode="&#x33a1;" horiz-adv-x="920" 
d="M90 0h103v429q78 21 112 21q46 0 62.5 -19.5t16.5 -77.5v-353h102v358q0 30 -10 68q88 24 120 24q45 0 60.5 -19t15.5 -78v-353h103v356q0 86 -37.5 129.5t-129.5 43.5q-64 0 -171 -37q-43 37 -119 37q-81 0 -228 -57v-472zM772 605v4l54 65q25 30 25 61q0 29 -21.5 47
t-68.5 18q-34 0 -64 -13l9 -39q30 8 47 8q36 0 36 -28q0 -17 -14 -34l-71 -86q-11 -13 -11 -24v-23h160v44h-81z" />
    <glyph glyph-name="Korea1.606" unicode="&#x33a2;" horiz-adv-x="920" 
d="M702 0v410q0 17 -3 32q24 8 49 8q35 0 35 -40v-410h93v416q0 54 -29 83.5t-79 29.5q-51 0 -103 -25q-28 25 -81 25q-47 0 -150 -39v-480l-155 277q87 136 138 227h-109q-52 -90 -144 -223l162 -291h201v439q34 11 51 11q32 0 32 -41v-409h92zM160 0v734l-103 -10v-724
h103zM822 605v4l54 65q25 30 25 61q0 29 -21.5 47t-68.5 18q-34 0 -64 -13l9 -39q30 8 47 8q36 0 36 -28q0 -17 -14 -34l-71 -86q-11 -13 -11 -24v-23h160v44h-81z" />
    <glyph glyph-name="Korea1.607" unicode="&#x33ca;" horiz-adv-x="920" 
d="M57 0h103v429q73 21 108 21q44 0 58 -18.5t14 -78.5v-353h103v356q0 87 -36 130t-127 43q-46 0 -120 -28v241l-103 -9v-733zM775 248v-174q-53 -13 -103 -13q-81 0 -81 101q0 50 23.5 75.5t62.5 25.5q37 0 98 -15zM776 345v-26q-60 21 -108 21q-77 0 -128.5 -48.5
t-51.5 -129.5q0 -92 47 -135t128 -43q94 0 215 48v301q0 103 -43.5 150t-141.5 47q-40 0 -142 -22l8 -66q15 1 37.5 4t42.5 4.5t47 1.5q53 0 71.5 -26.5t18.5 -80.5z" />
    <glyph glyph-name="Korea1.608" unicode="&#x338d;" horiz-adv-x="920" 
d="M507 49l-42 30q-23 -25 -37 -25q-12 0 -17 8t-2 17l107 434h-101l-104 -414q-4 -17 -22 -27t-36 -10q-43 0 -60 29l102 422h-100l-188 -738h101l60 235q31 -27 89 -27q66 0 101 31q17 -31 59 -31q53 0 90 66zM884 -20v497q-100 41 -175 41q-94 0 -143.5 -73.5
t-49.5 -207.5q0 -127 50.5 -191t137.5 -64q34 0 78 19v-28q0 -91 -49 -127.5t-143 -44.5l7 -72q287 0 287 251zM782 431v-357q-30 -15 -65 -15q-99 0 -99 177q0 203 104 203q26 0 60 -8z" />
    <glyph glyph-name="Korea1.609" unicode="&#x338e;" horiz-adv-x="920" 
d="M884 -20v497q-100 41 -175 41q-94 0 -143.5 -73.5t-49.5 -207.5q0 -127 50.5 -191t137.5 -64q34 0 78 19v-28q0 -91 -49 -127.5t-143 -44.5l7 -72q287 0 287 251zM308 0v410q0 17 -3 32q24 8 49 8q35 0 35 -40v-410h93v416q0 54 -29 83.5t-79 29.5q-51 0 -103 -25
q-28 25 -81 25q-47 0 -150 -39v-490h93v439q34 11 51 11q32 0 32 -41v-409h92zM782 431v-357q-30 -15 -65 -15q-99 0 -99 177q0 203 104 203q26 0 60 -8z" />
    <glyph glyph-name="Korea1.610" unicode="&#x338f;" horiz-adv-x="920" 
d="M864 -20v497q-97 41 -195 41q-96 0 -154.5 -75.5t-58.5 -205.5q0 -125 59.5 -190t148.5 -65q54 0 98 19v-28q0 -91 -49 -127.5t-143 -44.5l7 -72q287 0 287 251zM762 431v-357q-30 -15 -85 -15q-53 0 -86 45t-33 132q0 86 33 144.5t91 58.5q28 0 80 -8zM184 289l192 -289
h110l-188 287q79 108 159 227h-109q-86 -131 -164 -225zM180 0v734l-103 -10v-724h103z" />
    <glyph glyph-name="Korea1.611" unicode="&#x33cf;" horiz-adv-x="920" 
d="M234 291l172 -291h114l-169 287q11 18 39.5 59.5t56 84.5t50.5 83h-109q-19 -33 -42 -66.5t-57 -80t-55 -76.5zM230 0v734l-103 -10v-724h103zM682 656l-103 -10v-144h-75v-78h75v-282q0 -72 46.5 -115.5t115.5 -43.5q46 0 90 17l-13 67q-42 -6 -61 -6q-34 0 -54.5 22
t-20.5 63v278h128v78h-128v154z" />
    <glyph glyph-name="Korea1.612" unicode="&#x3388;" horiz-adv-x="920" 
d="M127 258q0 195 92 195q58 0 112 -21l23 65q-75 33 -149 33q-83 0 -133 -69.5t-50 -202.5q0 -142 51.5 -208t136.5 -66q75 0 153 36l-22 67q-72 -26 -121 -26q-51 0 -72 50.5t-21 146.5zM626 254v-178q-41 -15 -90 -15q-37 0 -59.5 27.5t-22.5 73.5q0 52 23 76.5t57 24.5
q48 0 92 -9zM627 375v-50q-36 15 -102 15q-76 0 -120.5 -49.5t-44.5 -128.5q0 -84 42 -131t125 -47q37 0 96.5 16t96.5 33v350q0 73 -36.5 110t-118.5 37q-56 0 -142 -22l9 -66q17 1 35.5 4t36 4.5t44.5 1.5q44 0 61.5 -17t17.5 -60zM882 -18l37 60q-23 16 -32 36.5t-9 58.5
v594l-100 -10v-587q0 -65 21.5 -99t82.5 -53z" />
    <glyph glyph-name="Korea1.613" unicode="&#x3389;" horiz-adv-x="920" 
d="M475 158q0 -74 33.5 -124t95.5 -50q65 0 143 41v376q0 128 -124 128q-36 0 -101 -23l10 -64q70 11 78 11q47 0 47 -46v-72q-35 5 -45 5q-137 0 -137 -182zM300 0l-94 289q23 57 85 225h-85q-23 -66 -73 -199v418l-90 -8v-725h90v263l85 -263h82zM657 263v-199
q-21 -6 -43 -6q-27 0 -42 27.5t-15 73.5q0 107 58 107q31 0 42 -3zM505 14l-21 58q-33 -13 -64 -13q-68 0 -68 196q0 104 15.5 151.5t48.5 47.5q23 0 64 -9l9 65q-57 19 -91 19q-63 0 -98.5 -69.5t-35.5 -205.5q0 -128 37 -199t107 -71q53 0 97 30zM877 -18l37 60
q-23 16 -32 36.5t-9 58.5v594l-90 -10v-587q0 -68 17 -101t77 -51z" />
    <glyph glyph-name="Korea1.614" unicode="&#x33c8;" horiz-adv-x="920" 
d="M775 392q40 17 66.5 60.5t26.5 95.5q0 87 -55.5 135t-156.5 48q-54 0 -168 -42v-678q98 -16 164 -16q126 0 187.5 59t61.5 160q0 67 -35.5 115t-90.5 63zM793 217q0 -70 -39 -104.5t-91 -34.5q-29 0 -72 5v260h53q63 0 106 -32t43 -94zM646 423h-55v214q39 12 67 12
q49 0 75.5 -27t26.5 -78q0 -54 -32 -87.5t-82 -33.5zM432 36v706l-102 -9v-223q-54 19 -108 19q-95 0 -149.5 -73t-54.5 -199q0 -129 53 -201t151 -72q91 0 210 52zM330 435v-358q-36 -14 -95 -14q-64 0 -89.5 51.5t-25.5 143.5q0 194 115 194q51 0 95 -17z" />
    <glyph glyph-name="Korea1.615" unicode="&#x33a7;" horiz-adv-x="920" 
d="M282 313v330q0 18 -3 33q21 7 35 7q33 0 33 -40v-330h86v336q0 54 -27 83.5t-74 29.5q-39 0 -85 -24q-27 24 -75 24q-35 0 -131 -39v-410h87v360q32 10 38 10q29 0 29 -41v-329h87zM737 -17q79 0 127 32.5t48 101.5q0 30 -16 56t-33.5 40t-47.5 34q-3 2 -82 57
q-34 24 -34 56q0 23 16 36t45 13q35 0 114 -15l12 66q-79 25 -125 25q-72 0 -118.5 -33.5t-46.5 -91.5q0 -62 74 -113q7 -5 39 -27.5t51 -34.5q28 -18 38.5 -32.5t10.5 -35.5q0 -58 -75 -58q-31 0 -124 18l-11 -67q83 -27 138 -27zM668 714h-84l-198 -714h85z" />
    <glyph glyph-name="Korea1.616" unicode="&#x33a8;" horiz-adv-x="920" 
d="M282 313v330q0 18 -3 33q21 7 35 7q33 0 33 -40v-330h86v336q0 54 -27 83.5t-74 29.5q-39 0 -85 -24q-27 24 -75 24q-35 0 -131 -39v-410h87v360q32 10 38 10q29 0 29 -41v-329h87zM737 -17q79 0 127 32.5t48 101.5q0 30 -16 56t-33.5 40t-47.5 34q-3 2 -82 57
q-34 24 -34 56q0 23 16 36t45 13q35 0 114 -15l12 66q-79 25 -125 25q-72 0 -118.5 -33.5t-46.5 -91.5q0 -62 74 -113q7 -5 39 -27.5t51 -34.5q28 -18 38.5 -32.5t10.5 -35.5q0 -58 -75 -58q-31 0 -124 18l-11 -67q83 -27 138 -27zM668 714h-84l-198 -714h85zM815 553v3
l46 58q25 32 25 62q0 59 -83 59q-29 0 -61 -13l9 -39q30 8 47 8q26 0 26 -21q0 -19 -14 -36l-61 -76q-11 -13 -11 -26v-21h150v42h-73z" />
    <glyph glyph-name="Korea1.617" unicode="&#x33b0;" horiz-adv-x="920" 
d="M79 473v-698h102v228q53 -19 96 -19q88 0 140 72.5t52 199.5t-52 200t-140 73q-62 0 -198 -56zM181 79v354q47 17 83 17q56 0 79.5 -48.5t23.5 -145.5q0 -195 -103 -195q-43 0 -83 18zM662 -17q91 0 140.5 39.5t49.5 109.5q0 85 -97 140q-83 47 -114 69q-37 25 -37 54
q0 28 16 43.5t44 15.5q50 0 150 -17l12 66q-104 27 -163 27q-74 0 -118 -37t-44 -98q0 -41 23.5 -68.5t66.5 -54.5q38 -24 106 -63q52 -29 52 -77q0 -73 -90 -73q-51 0 -144 18l-11 -67q108 -27 158 -27z" />
    <glyph glyph-name="Korea1.618" unicode="&#x33b1;" horiz-adv-x="920" 
d="M672 -17q91 0 140.5 39.5t49.5 109.5q0 85 -97 140q-83 47 -114 69q-37 25 -37 54q0 28 16 43.5t44 15.5q50 0 150 -17l12 66q-104 27 -163 27q-74 0 -118 -37t-44 -98q0 -41 23.5 -68.5t66.5 -54.5q38 -24 106 -63q52 -29 52 -77q0 -73 -90 -73q-51 0 -144 18l-11 -67
q108 -27 158 -27zM71 0h103v431q59 19 98 19q45 0 63.5 -18t18.5 -63v-369h103v370q0 72 -41.5 115.5t-131.5 43.5q-77 0 -213 -54v-475z" />
    <glyph glyph-name="Korea1.619" unicode="&#x33b2;" horiz-adv-x="920" 
d="M692 -17q91 0 140.5 39.5t49.5 109.5q0 85 -97 140q-83 47 -114 69q-37 25 -37 54q0 28 16 43.5t44 15.5q50 0 150 -17l12 66q-104 27 -163 27q-74 0 -118 -37t-44 -98q0 -41 23.5 -68.5t66.5 -54.5q38 -24 106 -63q52 -29 52 -77q0 -73 -90 -73q-51 0 -144 18l-11 -67
q108 -27 158 -27zM506 49l-46 36q-21 -28 -36 -28q-9 0 -13.5 7t-2.5 15l107 434h-98l-104 -414q-4 -17 -23 -27t-38 -10q-43 0 -60 29l102 422h-99l-188 -738h100l60 235q31 -27 89 -27q66 0 101 31q17 -31 59 -31q53 0 90 66z" />
    <glyph glyph-name="Korea1.620" unicode="&#x33b3;" horiz-adv-x="920" 
d="M323 0v410q0 17 -3 32q24 8 49 8q35 0 35 -40v-410h93v416q0 54 -29 83.5t-79 29.5q-51 0 -103 -25q-28 25 -81 25q-47 0 -150 -39v-490h93v439q34 11 51 11q32 0 32 -41v-409h92zM692 -17q91 0 140.5 39.5t49.5 109.5q0 85 -97 140q-83 47 -114 69q-37 25 -37 54
q0 28 16 43.5t44 15.5q50 0 150 -17l12 66q-104 27 -163 27q-74 0 -118 -37t-44 -98q0 -41 23.5 -68.5t66.5 -54.5q38 -24 106 -63q52 -29 52 -77q0 -73 -90 -73q-51 0 -144 18l-11 -67q108 -27 158 -27z" />
    <glyph glyph-name="Korea1.621" unicode="&#x33b4;" horiz-adv-x="920" 
d="M64 473v-698h102v228q53 -19 99 -19q89 0 142 72.5t53 199.5t-53 200t-142 73q-65 0 -201 -56zM166 79v354q47 17 86 17q56 0 81 -49t25 -145q0 -88 -25.5 -141.5t-80.5 -53.5q-46 0 -86 18zM525 714h-112q90 -466 176 -714h125q81 118 126.5 304.5t55.5 409.5h-104
q-4 -179 -36.5 -344t-94.5 -272q-72 236 -136 616z" />
    <glyph glyph-name="Korea1.622" unicode="&#x33b5;" horiz-adv-x="920" 
d="M525 714h-112q90 -466 176 -714h125q81 118 126.5 304.5t55.5 409.5h-104q-4 -179 -36.5 -344t-94.5 -272q-72 236 -136 616zM51 0h103v431q59 19 93 19q44 0 60.5 -18t16.5 -63v-369h103v370q0 159 -168 159q-72 0 -208 -54v-475z" />
    <glyph glyph-name="Korea1.623" unicode="&#x33b6;" horiz-adv-x="920" 
d="M575 714h-112q17 -114 34 -201h-80l-104 -414q-4 -17 -23 -27t-38 -10q-43 0 -60 29l102 422h-99l-188 -738h100l60 235q31 -27 89 -27q66 0 101 31q17 -31 59 -31q53 0 90 66l-46 36q-21 -28 -36 -28q-9 0 -13.5 7t-2.5 15l97 393q40 -214 114 -472h125q146 232 162 714
h-104q-3 -152 -29.5 -328.5t-81.5 -287.5q-79 297 -116 616z" />
    <glyph glyph-name="Korea1.624" unicode="&#x33b7;" horiz-adv-x="920" 
d="M312 0v410q0 17 -3 32q24 8 49 8q35 0 35 -40v-410h93v416q0 54 -29 83.5t-79 29.5q-51 0 -103 -25q-28 25 -81 25q-47 0 -150 -39v-490h93v439q34 11 51 11q32 0 32 -41v-409h92zM575 714h-112q58 -370 156 -714h125q146 232 162 714h-104q-3 -152 -29.5 -328.5
t-81.5 -287.5q-79 297 -116 616z" />
    <glyph glyph-name="Korea1.625" unicode="&#x33b8;" horiz-adv-x="920" 
d="M525 714h-112q12 -66 40 -200h-105q-86 -131 -164 -225l192 -289h110l-188 287q86 118 156 223q69 -319 135 -510h125q81 118 126.5 304.5t55.5 409.5h-104q-4 -179 -36.5 -344t-94.5 -272q-72 236 -136 616zM180 0v734l-103 -10v-724h103z" />
    <glyph glyph-name="Korea1.626" unicode="&#x33b9;" horiz-adv-x="920" 
d="M595 714h-112q62 -445 146 -714h125q136 215 152 714h-104q-8 -429 -101 -616q-74 281 -106 616zM315 714l-51 -565h-3q-3 65 -7.5 127t-12.5 128.5t-12.5 104t-14.5 112t-13 93.5h-143l-34 -714h89l23 595q33 -181 63 -565h129l52 546q39 -381 39 -576h88q0 263 -59 714
h-133z" />
    <glyph glyph-name="Korea1.627" unicode="&#x3380;" horiz-adv-x="920" 
d="M49 473v-698h102v228q53 -19 96 -19q88 0 140 72.5t52 199.5t-52 200t-140 73q-62 0 -198 -56zM529 0q11 81 39 212h198q19 -91 40 -212h108q-83 454 -201 714h-91q-70 -149 -122.5 -346.5t-78.5 -367.5h108zM151 79v354q47 17 83 17q56 0 79.5 -48.5t23.5 -145.5
q0 -195 -103 -195q-43 0 -83 18zM667 594q48 -160 81 -303h-163q44 186 82 303z" />
    <glyph glyph-name="Korea1.628" unicode="&#x3381;" horiz-adv-x="920" 
d="M529 0q11 81 39 212h198q19 -91 40 -212h108q-83 454 -201 714h-91q-70 -149 -122.5 -346.5t-78.5 -367.5h108zM42 0h103v431q59 19 93 19q35 0 51 -15.5t16 -53.5v-381h103v384q0 145 -163 145q-67 0 -203 -54v-475zM667 594q48 -160 81 -303h-163q44 186 82 303z" />
    <glyph glyph-name="Korea1.629" unicode="&#x3382;" horiz-adv-x="920" 
d="M576 0q19 138 32 212h167q5 -32 16.5 -102.5t17.5 -109.5h103q-88 510 -176 714h-87q-101 -229 -168 -661l-41 32q-21 -28 -36 -28q-9 0 -13.5 7t-2.5 15l107 434h-98l-104 -414q-4 -17 -19 -27t-32 -10q-33 0 -50 29l102 422h-99l-188 -738h100l60 235q31 -27 79 -27
q56 0 91 31q17 -31 59 -31q48 0 82 52q-4 -24 -5 -35h103zM692 594q39 -140 69 -303h-139q32 179 70 303z" />
    <glyph glyph-name="Korea1.630" unicode="&#x3383;" horiz-adv-x="920" 
d="M308 0v410q0 17 -3 32q24 8 49 8q35 0 35 -40v-410h187q19 138 32 212h167q5 -32 16.5 -102.5t17.5 -109.5h103q-88 510 -176 714h-87q-101 -229 -167 -655v357q0 54 -29 83.5t-79 29.5q-51 0 -103 -25q-28 25 -81 25q-47 0 -150 -39v-490h93v439q34 11 51 11
q32 0 32 -41v-409h92zM692 594q39 -140 69 -303h-139q32 179 70 303z" />
    <glyph glyph-name="Korea1.631" unicode="&#x3384;" horiz-adv-x="920" 
d="M184 291l172 -291h173q11 81 39 212h198q19 -91 40 -212h108q-83 454 -201 714h-91q-119 -253 -191 -649l-130 222q11 18 39.5 59.5t56 84.5t50.5 83h-109q-19 -33 -42 -66.5t-57 -80t-55 -76.5zM180 0v734l-103 -10v-724h103zM667 594q48 -160 81 -303h-163
q44 186 82 303z" />
    <glyph glyph-name="Korea1.632" unicode="&#x33ba;" horiz-adv-x="920" 
d="M39 476v-701h102v226q42 -17 86 -17q87 0 134.5 71.5t47.5 200.5t-47.5 201t-134.5 72q-59 0 -188 -53zM141 77v359q38 14 73 14q55 0 74 -46.5t19 -147.5q0 -93 -20 -144t-73 -51q-38 0 -73 16zM658 504l57 -504h110q72 304 91 714h-94q-7 -264 -56 -591l-50 571h-118
l-50 -569q-40 353 -55 589h-96q29 -318 91 -714h113z" />
    <glyph glyph-name="Korea1.633" unicode="&#x33bb;" horiz-adv-x="920" 
d="M658 504l57 -504h110q72 304 91 714h-94q-7 -264 -56 -591l-56 571h-106l-56 -569q-40 353 -55 589h-96q29 -318 91 -714h113zM41 0h103v432q44 18 87 18q39 0 53.5 -18.5t14.5 -60.5v-371h103v372q0 70 -37.5 113.5t-121.5 43.5q-68 0 -202 -53v-476z" />
    <glyph glyph-name="Korea1.634" unicode="&#x33bc;" horiz-adv-x="920" 
d="M658 504l57 -504h110q72 304 91 714h-94q-7 -264 -56 -591l-56 571h-106l-56 -569q-40 353 -55 589h-96q7 -84 20 -201h-65l-99 -414q-8 -37 -37 -37q-26 0 -41 20l102 431h-94l-178 -738h95l57 232q29 -24 63 -24q52 0 86 31q17 -31 55 -31q41 0 76 66l-44 36
q-19 -28 -34 -28q-9 0 -13 7t-2 15l82 355q23 -187 62 -434h113z" />
    <glyph glyph-name="Korea1.635" unicode="&#x33bd;" horiz-adv-x="920" 
d="M678 504l47 -504h110q66 279 81 714h-91q-8 -321 -49 -591l-50 571h-98l-50 -569q-43 382 -49 589h-92q33 -436 81 -714h113zM292 0v410q0 18 -3 33q21 7 35 7q33 0 33 -40v-410h86v416q0 54 -27 83.5t-74 29.5q-39 0 -85 -24q-27 24 -75 24q-35 0 -131 -39v-490h87v440
q32 10 38 10q29 0 29 -41v-409h87z" />
    <glyph glyph-name="Korea1.636" unicode="&#x33be;" horiz-adv-x="920" 
d="M658 504l57 -504h110q72 304 91 714h-94q-7 -264 -56 -591l-50 571h-118l-50 -569q-40 353 -55 589h-96q7 -84 20 -200h-99q-52 -90 -144 -223l162 -291h114l-161 287q90 142 130 212q25 -223 69 -499h113zM170 0v734l-103 -10v-724h103z" />
    <glyph glyph-name="Korea1.637" unicode="&#x33bf;" horiz-adv-x="920" 
d="M289 714l-48 -565h-3q-3 80 -10.5 169.5t-12 131.5t-18 149t-14.5 115h-132l-32 -714h82l22 595q29 -172 58 -565h119l49 546q36 -396 36 -576h81q0 260 -54 714h-123zM678 504l45 -504h104q64 283 77 714h-86q-8 -324 -47 -591l-47 571h-93l-48 -569q-41 383 -46 589
h-88q31 -435 77 -714h107z" />
    <glyph glyph-name="Korea1.638" unicode="&#x3390;" horiz-adv-x="920" 
d="M206 423v291h-106v-714h106v340h168v-340h106v714h-106v-291h-168zM871 0v80h-216q6 27 14.5 53.5t24.5 59.5t24.5 52.5t32.5 60.5t31 52.5t37 60.5t34 55l-26 39h-285v-78h175q-73 -95 -114 -189t-71 -207v-39h339z" />
    <glyph glyph-name="Korea1.639" unicode="&#x3391;" horiz-adv-x="920" 
d="M143 0v733l-96 -8v-725h96zM461 423v291h-99v-714h99v340h86v-340h98v714h-98v-291h-86zM905 0v80h-138q30 192 121 404l-30 29h-182v-78h96q-69 -153 -106 -396v-39h239zM153 289l107 -289h90l-103 288q63 140 94 226h-90q-19 -51 -98 -225z" />
    <glyph glyph-name="Korea1.640" unicode="&#x3392;" horiz-adv-x="920" 
d="M680 0v714h-89v-291h-61v291h-91v-714h91v340h61v-340h89zM910 0v80h-114q8 112 97 404l-30 29h-152v-78h75q-71 -211 -85 -396v-39h209zM250 714l-34 -565h-3q-7 222 -44 565h-129l-29 -714h81l20 595q7 -48 13 -99.5t11.5 -121t8 -106.5t8 -127.5t6.5 -110.5h113
l35 546q29 -365 29 -576h80q0 294 -45 714h-121z" />
    <glyph glyph-name="Korea1.641" unicode="&#x3393;" horiz-adv-x="920" 
d="M223 649q45 0 88 -16l15 71q-63 26 -104 26q-49 0 -82.5 -16t-54 -42.5t-31.5 -74t-14.5 -98.5t-3.5 -128q0 -187 15 -253q25 -113 113 -131q18 -3 39 -3q80 0 162 41v332h-100v-286q-40 -6 -49 -6q-47 0 -61.5 69t-14.5 235q0 158 16.5 219t66.5 61zM501 423v291h-99
v-714h99v340h66v-340h98v714h-98v-291h-66zM915 0v80h-132q34 214 115 404l-30 29h-176v-78h90q-60 -133 -100 -396v-39h233z" />
    <glyph glyph-name="Korea1.642" unicode="&#x3394;" horiz-adv-x="920" 
d="M117 0h101v631h94v83h-288v-83h93v-631zM445 423v291h-99v-714h99v340h92v-340h98v714h-98v-291h-92zM901 0v80h-138q30 192 121 404l-30 29h-182v-78h96q-69 -153 -106 -396v-39h239z" />
    <glyph glyph-name="Korea1.643" unicode="&#x2126;" horiz-adv-x="700" 
d="M350 684q87 0 148.5 -66.5t61.5 -176.5q0 -99 -47 -154t-130 -90v-197h279v87h-168v64q178 101 178 290q0 140 -88.5 234t-233.5 94t-233.5 -94t-88.5 -234q0 -189 178 -290v-64h-168v-87h279v197q-83 35 -130 90t-47 154q0 110 61.5 176.5t148.5 66.5z" />
    <glyph glyph-name="Korea1.644" unicode="&#x33c0;" horiz-adv-x="920" 
d="M666 649q63 0 96.5 -64.5t33.5 -169.5q0 -197 -100 -227v-188h184v81h-95v66q116 66 116 268q0 141 -63.5 228t-171.5 87t-171.5 -87t-63.5 -228q0 -202 116 -268v-66h-95v-81h184v188q-100 30 -100 227q0 105 33.5 169.5t96.5 64.5zM164 291l162 -291h110l-160 287
q107 168 141 227h-109q-52 -90 -144 -223zM160 0v734l-103 -10v-724h103z" />
    <glyph glyph-name="Korea1.645" unicode="&#x33c1;" horiz-adv-x="920" 
d="M699 652q51 0 77 -66t26 -166q0 -207 -86 -231v-189h175v81h-86v63q95 55 95 276q0 143 -51 226t-150 83q-100 0 -151 -82.5t-51 -226.5q0 -220 95 -276v-63h-86v-81h175v189q-86 24 -86 231q0 100 26.5 166t77.5 66zM291 714l-50 -565h-3q-3 65 -7.5 127.5t-12 127.5
t-12 105.5t-14 110.5t-12.5 94h-139l-33 -714h86l23 595q30 -171 61 -565h125l51 546q38 -393 38 -576h85q0 265 -57 714h-129z" />
    <glyph glyph-name="Korea1.646" unicode="&#x338a;" horiz-adv-x="920" 
d="M69 473v-698h102v228q53 -19 96 -19q88 0 140 72.5t52 199.5t-52 200t-140 73q-62 0 -198 -56zM634 0v340q38 8 74 8h145v80h-129q-54 0 -90 -17v223h234v80h-342v-714h108zM171 79v354q47 17 83 17q56 0 79.5 -48.5t23.5 -145.5q0 -195 -103 -195q-43 0 -83 18z" />
    <glyph glyph-name="Korea1.647" unicode="&#x338b;" horiz-adv-x="920" 
d="M71 0h103v431q59 19 98 19q45 0 63.5 -18t18.5 -63v-369h103v370q0 72 -41.5 115.5t-131.5 43.5q-77 0 -213 -54v-475zM644 0v340q38 8 74 8h145v80h-129q-54 0 -90 -17v223h234v80h-342v-714h108z" />
    <glyph glyph-name="Korea1.648" unicode="&#x338c;" horiz-adv-x="920" 
d="M516 49l-46 36q-21 -28 -36 -28q-9 0 -13.5 7t-2.5 15l107 434h-98l-104 -414q-4 -17 -23 -27t-38 -10q-43 0 -60 29l102 422h-99l-188 -738h100l60 235q31 -27 89 -27q66 0 101 31q17 -31 59 -31q53 0 90 66zM654 0v340q38 8 74 8h145v80h-129q-54 0 -90 -17v223h234v80
h-335v-714h101z" />
    <glyph glyph-name="Korea1.649" unicode="&#x33d6;" horiz-adv-x="920" 
d="M276 0v410q0 18 -3 33q21 7 34 7q33 0 33 -40v-410h84v416q0 54 -26.5 83.5t-72.5 29.5q-40 0 -83 -24q-27 24 -74 24q-34 0 -128 -39v-490h85v440q32 10 37 10q29 0 29 -41v-409h85zM737 257q0 53 -2.5 90t-11 74.5t-23 60t-40.5 36.5t-62 14q-45 0 -74 -19.5t-43 -60
t-18.5 -84.5t-4.5 -111q0 -53 2.5 -90.5t11 -75t23.5 -60t41 -36.5t62 -14t62 14t40.5 36.5t23 60.5t11 75t2.5 90zM895 -17l23 69q-28 11 -36.5 30.5t-8.5 65.5v585l-100 -9v-578q0 -78 27 -115.5t95 -47.5zM641 257q0 -136 -8 -165q-9 -34 -35 -34q-31 0 -37.5 41.5
t-6.5 157.5q0 109 8 154t36 45t35.5 -44.5t7.5 -154.5z" />
    <glyph glyph-name="Korea1.650" unicode="&#x33c5;" horiz-adv-x="920" 
d="M153 258q0 100 25 147.5t89 47.5q26 0 51 -5.5t39 -11t49 -20.5l23 68q-97 46 -176 46q-205 0 -205 -272q0 -134 52 -204t153 -70q91 0 185 46l-22 67q-87 -36 -149 -36q-64 0 -89 47.5t-25 149.5zM842 36v706l-102 -9v-223q-54 19 -108 19q-95 0 -149.5 -73t-54.5 -199
q0 -129 53 -201t151 -72q91 0 210 52zM740 435v-358q-36 -14 -95 -14q-64 0 -89.5 51.5t-25.5 143.5q0 194 115 194q51 0 95 -17z" />
    <glyph glyph-name="Korea1.651" unicode="&#x33ad;" horiz-adv-x="920" 
d="M29 0h103v417q40 26 85 26h34v79h-36q-48 0 -91 -41q-4 16 -15 32h-80v-513zM438 252v-180q-49 -11 -74 -11q-65 0 -65 101t68 101q26 0 71 -11zM439 405v-83q-46 18 -81 18q-76 0 -116 -48.5t-40 -129.5q0 -82 38.5 -130t114.5 -48q66 0 181 48v381q0 55 -38.5 86
t-104.5 31q-43 0 -122 -22l8 -66q75 10 98 10q31 0 46.5 -9t15.5 -38zM889 15v727l-96 -9v-214q-24 10 -66 10q-73 0 -114.5 -70.5t-41.5 -201.5q0 -273 156 -273q87 0 162 31zM793 445v-377q-23 -5 -48 -5q-77 0 -77 195q0 194 72 194q32 0 53 -7z" />
    <glyph glyph-name="Korea1.652" unicode="&#x33ae;" horiz-adv-x="920" 
d="M706 714h-66l-84 -714h68zM16 200h86v340q18 20 44 20h16v64h-27q-12 0 -19 -6.5t-21 -26.5q-1 12 -10 26h-69v-417zM260 416v-166q-12 -5 -24 -5q-18 0 -28 24.5t-10 62.5q0 86 41 86q9 0 21 -2zM260 542v-71q-12 5 -28 5q-53 0 -81.5 -39.5t-28.5 -104.5
q0 -145 107 -145q37 0 107 36v323q0 44 -19 64t-59 20q-16 0 -28 -2t-31 -8.5t-23 -7.5l8 -50q35 8 49 8q13 0 20 -5.5t7 -22.5zM569 213v590l-74 -8v-171q-22 6 -39 6q-52 0 -74.5 -49.5t-22.5 -171.5q0 -125 19 -173.5t78 -48.5q58 0 113 26zM495 564v-310q-12 -3 -25 -3
q-26 0 -32.5 29.5t-5.5 99.5v29q0 110 6 131q8 27 29 27q13 0 28 -3zM780 -17q60 0 93.5 26t33.5 78q0 35 -18.5 62.5t-63.5 73.5l-15 15q-15 14 -20 19.5t-15 18t-14 23t-4 20.5q0 40 41 40q34 0 84 -10l9 56q-53 19 -97 19q-56 0 -89 -28.5t-33 -80.5q0 -11 2 -21.5t8 -21
l10 -17.5t14 -18t15 -16l17 -17l16 -16q41 -41 54.5 -59t13.5 -34q0 -47 -59 -47q-26 0 -86 15l-9 -57q69 -23 112 -23z" />
    <glyph glyph-name="Korea1.653" unicode="&#x33af;" horiz-adv-x="920" 
d="M16 200h86v340q18 20 44 20h16v64h-27q-12 0 -19 -6.5t-21 -26.5q-1 12 -10 26h-69v-417zM260 416v-166q-12 -5 -24 -5q-18 0 -28 24.5t-10 62.5q0 86 41 86q9 0 21 -2zM260 542v-71q-12 5 -28 5q-53 0 -81.5 -39.5t-28.5 -104.5q0 -145 107 -145q37 0 107 36v323
q0 44 -19 64t-59 20q-16 0 -28 -2t-31 -8.5t-23 -7.5l8 -50q35 8 49 8q13 0 20 -5.5t7 -22.5zM569 213v590l-74 -8v-171q-22 6 -39 6q-52 0 -74.5 -49.5t-22.5 -171.5q0 -125 19 -173.5t78 -48.5q58 0 113 26zM495 564v-310q-12 -3 -25 -3q-26 0 -32.5 29.5t-5.5 99.5v29
q0 110 6 131q8 27 29 27q13 0 28 -3zM697 714h-66l-67 -714h68zM835 493v3l46 58q25 32 25 62q0 59 -83 59q-29 0 -61 -13l9 -39q30 8 47 8q26 0 26 -21q0 -19 -14 -36l-61 -76q-11 -13 -11 -26v-21h150v42h-73zM780 -17q60 0 93.5 26t33.5 78q0 35 -18.5 62.5t-63.5 73.5
l-15 15q-15 14 -20 19.5t-15 18t-14 23t-4 20.5q0 40 41 40q34 0 84 -10l9 56q-53 19 -97 19q-56 0 -89 -28.5t-33 -80.5q0 -11 2 -21.5t8 -21l10 -17.5t14 -18t15 -16l17 -17l16 -16q41 -41 54.5 -59t13.5 -34q0 -47 -59 -47q-26 0 -86 15l-9 -57q69 -23 112 -23z" />
    <glyph glyph-name="Korea1.654" unicode="&#x33db;" horiz-adv-x="920" 
d="M312 -17q91 0 140.5 39.5t49.5 109.5q0 85 -97 140q-83 47 -114 69q-37 25 -37 54q0 28 16 43.5t44 15.5q50 0 150 -17l12 66q-104 27 -163 27q-74 0 -118 -37t-44 -98q0 -41 23.5 -68.5t66.5 -54.5q38 -24 106 -63q52 -29 52 -77q0 -73 -90 -73q-51 0 -144 18l-11 -67
q108 -27 158 -27zM549 0h103v414q46 29 145 29h35v79h-37q-92 0 -151 -44q-6 21 -15 35h-80v-513z" />
    <glyph glyph-name="Korea1.655" unicode="&#x33a9;" horiz-adv-x="920" 
d="M88 0h108v254q10 -2 24 -6.5t20 -5.5t17.5 -2.5t26.5 -1.5q104 0 160.5 68.5t56.5 175.5q0 117 -62 183t-156 66q-20 0 -37.5 -1.5t-39 -7.5t-32 -9t-42 -14t-44.5 -15v-684zM394 487q0 -166 -115 -166q-15 0 -25.5 1.5t-16.5 3t-18.5 5.5t-22.5 7v294q11 3 24.5 8t26 7
t34.5 2q55 0 84 -44.5t29 -117.5zM743 249v-177q-55 -11 -103 -11q-37 0 -59 27.5t-22 73.5q0 50 21.5 75.5t59.5 25.5q42 0 103 -14zM744 345v-26q-57 21 -113 21q-81 0 -128 -49.5t-47 -128.5q0 -80 47 -129t128 -49q94 0 215 48v301q0 103 -43.5 150t-141.5 47
q-40 0 -142 -22l8 -66q15 1 37.5 4t42.5 4.5t47 1.5q53 0 71.5 -26.5t18.5 -80.5z" />
    <glyph glyph-name="Korea1.656" unicode="&#x33aa;" horiz-adv-x="920" 
d="M601 158q0 -76 37 -125t100 -49q73 0 143 38v379q0 128 -129 128q-41 0 -92 -18q-3 104 -39 162t-120 58q-48 0 -156 -37v-694h102v244q24 -6 56 -6q74 0 112.5 55t44.5 149q64 11 80 11q53 0 53 -46v-71q-24 4 -47 4q-73 0 -109 -49.5t-36 -132.5zM138 0v733l-101 -8
v-725h101zM148 289l92 -289h95l-86 288q14 31 39.5 112t37.5 114h-95q-8 -21 -36 -102t-47 -123zM560 487q0 -73 -15.5 -119.5t-47.5 -46.5q-31 0 -50 6v315q33 7 52 7q61 0 61 -162zM793 263v-199q-18 -6 -44 -6q-56 0 -56 101q0 107 57 107q25 0 43 -3z" />
    <glyph glyph-name="Korea1.657" unicode="&#x33ab;" horiz-adv-x="920" 
d="M655 158q0 -78 31 -126t87 -48q60 0 125 38v379q0 128 -112 128q-32 0 -76 -17q-2 68 -13 113t-42.5 75.5t-83.5 30.5q-36 0 -136 -37v-694h93v244q21 -6 44 -6q127 0 137 204q55 11 66 11q43 0 43 -46v-72q-35 5 -37 5q-126 0 -126 -182zM250 714l-34 -565h-3
q-7 222 -44 565h-129l-29 -714h81l20 595q7 -48 13 -99.5t11.5 -121t8 -106.5t8 -127.5t6.5 -110.5h113l35 546q29 -365 29 -576h80q0 294 -45 714h-121zM618 487q0 -166 -51 -166q-21 0 -39 6v315q30 7 41 7q49 0 49 -162zM818 263v-199q-21 -6 -35 -6q-44 0 -44 101
q0 33 2 52.5t12.5 37t30.5 17.5q24 0 34 -3z" />
    <glyph glyph-name="Korea1.658" unicode="&#x33ac;" horiz-adv-x="920" 
d="M645 158q0 -77 33 -125.5t90 -48.5q65 0 130 38v379q0 128 -117 128q-32 0 -82 -18q-3 104 -35 162t-108 58q-41 0 -141 -37v-694h93v244q21 -6 49 -6q67 0 101.5 55t40.5 149q57 11 71 11q48 0 48 -46v-72q-35 5 -42 5q-67 0 -99 -49.5t-32 -132.5zM228 649q50 0 93 -16
l15 71q-63 26 -109 26q-49 0 -83 -15.5t-55 -43t-33 -74t-16 -99t-4 -127.5q0 -58 0.5 -91t4 -80t10 -73.5t19 -57.5t31 -47t45.5 -27t62 -11q81 0 163 41v332h-100v-286q-27 -6 -50 -6q-47 0 -64 71t-17 233q0 155 18.5 217.5t69.5 62.5zM608 487q0 -166 -56 -166
q-26 0 -44 6v315q30 7 46 7q54 0 54 -162zM818 263v-199q-21 -6 -40 -6q-49 0 -49 101q0 107 50 107q29 0 39 -3z" />
    <glyph glyph-name="Korea1.659" unicode="&#x33dd;" horiz-adv-x="920" 
d="M246 504l45 -504h104q64 283 77 714h-86q-8 -324 -47 -591l-47 571h-93l-48 -569q-41 383 -46 589h-88q31 -435 77 -714h107zM513 733v-721q101 -17 190 -17q94 0 143 70.5t49 196.5q0 121 -48.5 194.5t-140.5 73.5q-42 0 -91 -18v230zM615 80v359q42 14 78 14
q52 0 72.5 -50t20.5 -140q0 -93 -21 -141t-75 -48q-30 0 -75 6z" />
    <glyph glyph-name="Korea1.660" unicode="&#x33d0;" horiz-adv-x="920" 
d="M642 0v410q0 14 -3 27q39 13 69 13q55 0 55 -50v-400h93v406q0 55 -35 89t-93 34t-124 -31q-37 31 -100 31q-67 0 -170 -39v-490h93v439q34 11 71 11q24 0 38 -13.5t14 -37.5v-399h92zM263 -17l25 69q-78 22 -78 106v575l-104 -9v-568q0 -150 157 -173z" />
    <glyph glyph-name="Korea1.661" unicode="&#x33d3;" horiz-adv-x="920" 
d="M323 -17l25 69q-78 22 -78 106v575l-104 -9v-568q0 -150 157 -173zM601 189l121 -189h111l-178 269l161 244h-109l-106 -165l-105 165h-109l160 -245l-177 -268h109z" />
    <glyph glyph-name="Korea1.662" unicode="&#x33c3;" horiz-adv-x="920" 
d="M355 392q40 17 66.5 60.5t26.5 95.5q0 87 -55.5 135t-156.5 48q-54 0 -168 -42v-678q98 -16 164 -16q126 0 187.5 59t61.5 160q0 67 -35.5 115t-90.5 63zM373 217q0 -70 -39 -104.5t-91 -34.5q-29 0 -72 5v260h53q63 0 106 -32t43 -94zM226 423h-55v214q39 12 67 12
q49 0 75.5 -27t26.5 -78q0 -54 -32 -87.5t-82 -33.5zM876 -225v728q-123 15 -188 15q-80 0 -131 -71t-51 -196q0 -123 51 -195t131 -72q34 0 89 21v-230h99zM777 435v-354q-40 -20 -76 -20q-47 0 -71 52.5t-24 137.5q0 86 24 137.5t71 51.5q31 0 76 -5z" />
    <glyph glyph-name="Korea1.663" unicode="&#x33c9;" horiz-adv-x="920" 
d="M273 649q55 0 126 -21l18 72q-84 30 -145 30q-70 0 -116.5 -26.5t-70.5 -78t-33.5 -111.5t-9.5 -143q0 -74 4 -125t18 -104.5t39 -85t69 -52t106 -20.5q81 0 175 47v326h-102v-282q-37 -10 -71 -10q-27 0 -48 8t-34.5 20t-23 36t-14.5 44t-7.5 58t-3 64t-0.5 74t1 78.5
t5 66.5t12 57.5t21.5 41t34.5 28t50 8.5zM872 -8v521h-101v-421q-8 -2 -24 -7t-23.5 -7t-21 -4t-26.5 -2q-40 0 -52.5 15t-12.5 46v380h-101v-380q0 -140 145 -140q40 0 116 27v-35q0 -50 -15 -84t-45.5 -51.5t-62 -25.5t-78.5 -11l7 -73q68 0 117 10t91.5 36.5t64.5 78
t22 127.5z" />
    <glyph glyph-name="Korea1.664" unicode="&#x33dc;" horiz-adv-x="920" 
d="M71 93l-12 -73q35 -14 89.5 -25t95.5 -11q121 0 187 52.5t66 144.5q0 66 -33 111.5t-96 84.5q-132 83 -138 87q-57 43 -57 91q0 43 27 67.5t82 24.5q49 0 175 -18l10 72q-110 29 -189 29q-102 0 -159.5 -45.5t-57.5 -131.5q0 -89 92 -156q24 -18 157 -101
q41 -25 58.5 -51.5t17.5 -65.5q0 -50 -34.5 -81t-109.5 -31q-65 0 -171 26zM637 0h87q65 94 110.5 237t59.5 276h-93q-13 -115 -44.5 -225.5t-71.5 -182.5q-67 171 -126 408h-102q101 -367 180 -513z" />
    <glyph glyph-name="Korea1.665" unicode="&#x33c6;" horiz-adv-x="920" 
d="M248 327l-20 58q-32 -13 -61 -13q-36 0 -48 32t-12 124q0 69 5.5 103t16.5 45t34 11q21 0 61 -9l11 64q-56 20 -89 20q-63 0 -95 -52t-32 -183q0 -123 33.5 -176.5t103.5 -53.5q49 0 92 30zM619 0l-89 289q32 84 80 225h-80q-20 -62 -70 -199v418l-85 -8v-725h85v263
l81 -263h78zM890 -20v501q-75 37 -146 37q-80 0 -115 -71.5t-35 -209.5q0 -255 145 -255q26 0 60 17v-26q0 -97 -24.5 -131t-96.5 -41l7 -72q110 0 157.5 56t47.5 195zM799 434v-362q-22 -13 -49 -13q-39 0 -52 40.5t-13 136.5q0 52 2 84.5t9 62t21 43t37 13.5q19 0 45 -5z
M357 714h-78l-28 -714h79z" />
    <glyph glyph-name="Korea1.666" unicode="&#xc6;" 
d="M863 16v71h-235q-68 0 -68 57v208h274v84h-274v232h290v84h-462q-95 -157 -196.5 -360t-179.5 -392h116q40 101 100 223h218v-80q0 -143 183 -143q100 0 234 16zM262 307q73 168 184 350v-350h-184z" />
    <glyph glyph-name="Korea1.667" unicode="&#xd0;" horiz-adv-x="800" 
d="M19 421v-84h122v-323q129 -19 250 -19q182 0 275 99t93 283t-94 288t-274 104q-99 0 -250 -56v-292h-122zM253 90v247h168v84h-168v235q76 26 138 26q130 0 191 -81.5t61 -224.5q0 -294 -252 -294q-77 0 -138 8z" />
    <glyph glyph-name="Korea1.668" unicode="&#xaa;" horiz-adv-x="480" 
d="M301 603v-113q-43 -8 -75 -8q-27 0 -43.5 18.5t-16.5 48.5t17 48t43 18q29 0 75 -12zM302 687v-14q-42 12 -83 12q-71 0 -114 -37.5t-43 -98.5t43 -99t114 -38q74 0 186 43v225q0 76 -41.5 110t-123.5 34q-28 0 -133 -19l8 -61q79 9 120 9q67 0 67 -66zM56 289h368v73
h-368v-73z" />
    <glyph glyph-name="Korea1.669" unicode="&#x126;" horiz-adv-x="790" 
d="M778 549v84h-104v119h-112v-119h-334v119h-112v-119h-105v-84h105v-549h112v348h334v-348h112v549h104zM228 435v114h334v-114h-334z" />
    <glyph glyph-name="Korea1.670" unicode="&#x132;" horiz-adv-x="655" 
d="M191 0v752h-113v-752h113zM360 73q-41 0 -108 12v-84q45 -17 113 -17q108 0 163.5 63t55.5 170v535h-114v-530q0 -71 -28.5 -110t-81.5 -39z" />
    <glyph glyph-name="Korea1.671" unicode="&#x13f;" horiz-adv-x="545" 
d="M185 752h-114v-609q0 -148 183 -143q133 2 254 16v72h-255q-68 0 -68 55v609zM346 422q0 -30 20 -49t48 -19t47.5 19t19.5 49t-19.5 48.5t-47.5 18.5q-29 0 -48.5 -18.5t-19.5 -48.5z" />
    <glyph glyph-name="Korea1.672" unicode="&#x141;" horiz-adv-x="675" 
d="M320 752h-114v-377l-192 -214h103l89 99v-117q0 -148 183 -143q133 2 254 16v72h-255q-68 0 -68 55v245l192 215h-101l-91 -101v250z" />
    <glyph glyph-name="Korea1.673" unicode="&#xd8;" 
d="M773 376q0 128 -42.5 219.5t-123.5 135.5l39 118h-89l-29 -88q-40 8 -78 8q-153 0 -238 -105.5t-85 -287.5q0 -125 40.5 -215t117.5 -136l-32 -97h90l21 65q39 -10 86 -10q153 0 238 105.5t85 287.5zM450 69q-34 0 -58 8l184 558q81 -78 81 -259q0 -147 -54 -227
t-153 -80zM243 376q0 147 54 227t153 80q26 0 50 -6l-183 -554q-74 79 -74 253z" />
    <glyph glyph-name="Korea1.674" unicode="&#x152;" 
d="M873 16v71h-235q-68 0 -68 57v208h274v84h-274v232h290v84h-395q-51 17 -110 17q-153 0 -238 -105.5t-85 -287.5t85 -287.5t238 -105.5q90 0 162 40q45 -25 122 -23q111 1 234 16zM456 143q0 -26 4 -43q-43 -31 -105 -31q-99 0 -153 80t-54 227t54 227t153 80
q56 0 101 -28v-512z" />
    <glyph glyph-name="Korea1.675" unicode="&#xba;" horiz-adv-x="480" 
d="M56 289h368v73h-368v-73zM336 617q0 -64 -24.5 -101t-71.5 -37t-71.5 37t-24.5 101q0 63 25 100.5t71 37.5q45 0 70.5 -37.5t25.5 -100.5zM441 617q0 99 -55 153t-146 54t-146 -54t-55 -153t55 -153.5t146 -54.5t146 54.5t55 153.5z" />
    <glyph glyph-name="Korea1.676" unicode="&#xde;" horiz-adv-x="615" 
d="M178 0v147q89 -13 152 -13q112 0 181 67.5t69 177.5t-68.5 177.5t-181.5 67.5q-56 0 -152 -17v145h-112v-752h112zM178 234v284q87 20 142 20q148 0 148 -159q0 -80 -38.5 -119.5t-109.5 -39.5q-64 0 -142 14z" />
    <glyph glyph-name="Korea1.677" unicode="&#x166;" horiz-adv-x="580" 
d="M86 397v-87h148v-310h114v310h146v87h-146v268h202v87h-521v-87h205v-268h-148z" />
    <glyph glyph-name="Korea1.678" unicode="&#x14a;" horiz-adv-x="715" 
d="M506 0h26v-38q0 -71 -29.5 -110t-82.5 -39q-41 0 -108 12v-84q45 -17 113 -17q108 0 163.5 63t55.5 170v795h-112v-577q-60 141 -153 302t-174 275h-134v-752h112v594q152 -212 323 -594z" />
    <glyph glyph-name="Korea1.679" unicode="&#x3260;" horiz-adv-x="1110" 
d="M741 548h-420v-80h350v-326h107v367q0 39 -37 39zM146 367q0 173 120.5 293.5t287.5 120.5q168 0 288.5 -120.5t120.5 -293.5q0 -174 -120.5 -295.5t-288.5 -121.5q-167 0 -287.5 121.5t-120.5 295.5zM1036 367q0 129 -65 238t-176 172t-241 63q-200 0 -340.5 -138
t-140.5 -335q0 -198 140.5 -336.5t340.5 -138.5q130 0 241 63t176 172.5t65 239.5z" />
    <glyph glyph-name="Korea1.680" unicode="&#x3261;" horiz-adv-x="1110" 
d="M444 568h-108v-258q0 -69 37 -106t108 -37q167 0 312 16v77q-187 -11 -295 -11q-27 0 -40.5 12t-13.5 41v266zM146 367q0 173 120.5 293.5t287.5 120.5q168 0 288.5 -120.5t120.5 -293.5q0 -174 -120.5 -295.5t-288.5 -121.5q-167 0 -287.5 121.5t-120.5 295.5zM1036 367
q0 129 -65 238t-176 172t-241 63q-200 0 -340.5 -138t-140.5 -335q0 -198 140.5 -336.5t340.5 -138.5q130 0 241 63t176 172.5t65 239.5z" />
    <glyph glyph-name="Korea1.681" unicode="&#x3262;" horiz-adv-x="1110" 
d="M323 562v-258q0 -69 37.5 -106t108.5 -37q178 0 323 16v77q-187 -11 -307 -11q-27 0 -40 12t-13 41v185h350v81h-459zM146 367q0 173 120.5 293.5t287.5 120.5q168 0 288.5 -120.5t120.5 -293.5q0 -174 -120.5 -295.5t-288.5 -121.5q-167 0 -287.5 121.5t-120.5 295.5z
M1036 367q0 129 -65 238t-176 172t-241 63q-200 0 -340.5 -138t-140.5 -335q0 -198 140.5 -336.5t340.5 -138.5q130 0 241 63t176 172.5t65 239.5z" />
    <glyph glyph-name="Korea1.682" unicode="&#x3263;" horiz-adv-x="1110" 
d="M782 349v179q0 39 -38 39h-419v-81h346v-85h-350v-118q0 -67 38.5 -103.5t110.5 -36.5q183 0 338 15v77q-182 -11 -323 -11q-27 0 -40 12.5t-13 41.5v44h322q28 0 28 27zM146 367q0 173 120.5 293.5t287.5 120.5q168 0 288.5 -120.5t120.5 -293.5q0 -174 -120.5 -295.5
t-288.5 -121.5q-167 0 -287.5 121.5t-120.5 295.5zM1036 367q0 129 -65 238t-176 172t-241 63q-200 0 -340.5 -138t-140.5 -335q0 -198 140.5 -336.5t340.5 -138.5q130 0 241 63t176 172.5t65 239.5z" />
    <glyph glyph-name="Korea1.683" unicode="&#x3264;" horiz-adv-x="1110" 
d="M787 173v346q0 23 -10.5 33t-35.5 10h-418v-263q0 -69 37 -106t109 -37q165 0 318 17zM430 289v193h251v-242q-97 -4 -197 -4q-27 0 -40.5 12t-13.5 41zM146 367q0 173 120.5 293.5t287.5 120.5q168 0 288.5 -120.5t120.5 -293.5q0 -174 -120.5 -295.5t-288.5 -121.5
q-167 0 -287.5 121.5t-120.5 295.5zM1036 367q0 129 -65 238t-176 172t-241 63q-200 0 -340.5 -138t-140.5 -335q0 -198 140.5 -336.5t340.5 -138.5q130 0 241 63t176 172.5t65 239.5z" />
    <glyph glyph-name="Korea1.684" unicode="&#x3265;" horiz-adv-x="1110" 
d="M681 557v-122h-252v122h-106v-289q0 -63 30 -92t100 -29q193 0 334 19v391h-106zM464 225q-21 0 -28 8.5t-7 28.5v94h252v-127q-77 -4 -217 -4zM146 367q0 173 120.5 293.5t287.5 120.5q168 0 288.5 -120.5t120.5 -293.5q0 -174 -120.5 -295.5t-288.5 -121.5
q-167 0 -287.5 121.5t-120.5 295.5zM1036 367q0 129 -65 238t-176 172t-241 63q-200 0 -340.5 -138t-140.5 -335q0 -198 140.5 -336.5t340.5 -138.5q130 0 241 63t176 172.5t65 239.5z" />
    <glyph glyph-name="Korea1.685" unicode="&#x3266;" horiz-adv-x="1110" 
d="M1036 367q0 129 -65 238t-176 172t-241 63q-200 0 -340.5 -138t-140.5 -335q0 -198 140.5 -336.5t340.5 -138.5q130 0 241 63t176 172.5t65 239.5zM146 367q0 173 120.5 293.5t287.5 120.5q168 0 288.5 -120.5t120.5 -293.5q0 -174 -120.5 -295.5t-288.5 -121.5
q-167 0 -287.5 121.5t-120.5 295.5zM275 232l52 -71q68 33 168 110q48 37 71 68q115 -73 212 -174l41 36q25 22 5 43q-102 105 -219 188q3 20 3 42v116h-107v-115q0 -71 -63 -125q-71 -60 -163 -118z" />
    <glyph glyph-name="Korea1.686" unicode="&#x3267;" horiz-adv-x="1110" 
d="M693 367q0 -63 -36.5 -108.5t-101.5 -45.5q-66 0 -102 45.5t-36 108.5t36 108.5t102 45.5q65 0 101.5 -45.5t36.5 -108.5zM798 367q0 99 -68.5 165.5t-174.5 66.5q-105 0 -174 -66.5t-69 -165.5t69 -165.5t174 -66.5q106 0 174.5 66.5t68.5 165.5zM146 367
q0 173 120.5 293.5t287.5 120.5q168 0 288.5 -120.5t120.5 -293.5q0 -174 -120.5 -295.5t-288.5 -121.5q-167 0 -287.5 121.5t-120.5 295.5zM1036 367q0 129 -65 238t-176 172t-241 63q-200 0 -340.5 -138t-140.5 -335q0 -198 140.5 -336.5t340.5 -138.5q130 0 241 63
t176 172.5t65 239.5z" />
    <glyph glyph-name="Korea1.687" unicode="&#x3268;" horiz-adv-x="1110" 
d="M1036 367q0 129 -65 238t-176 172t-241 63q-200 0 -340.5 -138t-140.5 -335q0 -198 140.5 -336.5t340.5 -138.5q130 0 241 63t176 172.5t65 239.5zM146 367q0 173 120.5 293.5t287.5 120.5q168 0 288.5 -120.5t120.5 -293.5q0 -174 -120.5 -295.5t-288.5 -121.5
q-167 0 -287.5 121.5t-120.5 295.5zM285 232l52 -71q85 50 158 110q51 42 70 68q95 -62 203 -174l38 37q24 21 5 43q-80 94 -206 186q3 19 3 43v27h179v79h-465v-79h179v-26q0 -72 -65 -127q-81 -68 -151 -116z" />
    <glyph glyph-name="Korea1.688" unicode="&#x3269;" horiz-adv-x="1110" 
d="M789 519h-193q14 23 14 52v54h-109v-60q0 -31 -6 -46h-179v-85h181v-19q0 -20 -8 -37.5t-25.5 -34t-30 -26.5t-35.5 -26q-59 -41 -115 -73l47 -72q30 14 120 70q71 44 113 93q25 -15 54.5 -36t48 -36t54.5 -45t50 -41l37 37q21 22 4 39q-101 101 -209 168q2 14 2 21v18
h185v85zM146 367q0 173 120.5 293.5t287.5 120.5q168 0 288.5 -120.5t120.5 -293.5q0 -174 -120.5 -295.5t-288.5 -121.5q-167 0 -287.5 121.5t-120.5 295.5zM1036 367q0 129 -65 238t-176 172t-241 63q-200 0 -340.5 -138t-140.5 -335q0 -198 140.5 -336.5t340.5 -138.5
q130 0 241 63t176 172.5t65 239.5z" />
    <glyph glyph-name="Korea1.689" unicode="&#x326a;" horiz-adv-x="1110" 
d="M1036 367q0 129 -65 238t-176 172t-241 63q-200 0 -340.5 -138t-140.5 -335q0 -198 140.5 -336.5t340.5 -138.5q130 0 241 63t176 172.5t65 239.5zM146 367q0 173 120.5 293.5t287.5 120.5q168 0 288.5 -120.5t120.5 -293.5q0 -174 -120.5 -295.5t-288.5 -121.5
q-167 0 -287.5 121.5t-120.5 295.5zM745 561h-416v-79h346v-98q-69 -14 -148 -14h-205v-80h205q82 0 148 21v-159h107v371q0 38 -37 38z" />
    <glyph glyph-name="Korea1.690" unicode="&#x326b;" horiz-adv-x="1110" 
d="M1036 367q0 129 -65 238t-176 172t-241 63q-200 0 -340.5 -138t-140.5 -335q0 -198 140.5 -336.5t340.5 -138.5q130 0 241 63t176 172.5t65 239.5zM146 367q0 173 120.5 293.5t287.5 120.5q168 0 288.5 -120.5t120.5 -293.5q0 -174 -120.5 -295.5t-288.5 -121.5
q-167 0 -287.5 121.5t-120.5 295.5zM803 160v76q-164 -10 -319 -10q-27 0 -40 12t-13 40v42h341v78h-341v81h353v81h-462v-277q0 -138 147 -138q190 0 334 15z" />
    <glyph glyph-name="Korea1.691" unicode="&#x326c;" horiz-adv-x="1110" 
d="M1036 367q0 129 -65 238t-176 172t-241 63q-200 0 -340.5 -138t-140.5 -335q0 -198 140.5 -336.5t340.5 -138.5q130 0 241 63t176 172.5t65 239.5zM146 367q0 173 120.5 293.5t287.5 120.5q168 0 288.5 -120.5t120.5 -293.5q0 -174 -120.5 -295.5t-288.5 -121.5
q-167 0 -287.5 121.5t-120.5 295.5zM812 237h-113q27 51 27 121v86h-107v-85q0 -69 -15 -122h-106v207h-107v-207h-94v-79h515v79zM313 473h485v80h-485v-80z" />
    <glyph glyph-name="Korea1.692" unicode="&#x326d;" horiz-adv-x="1110" 
d="M611 614h-109v-75q0 -31 -6 -42h-215v-79h98q-38 -43 -38 -109q0 -83 60.5 -135t152.5 -52q93 0 154 52t61 135q0 67 -39 109h98v79h-227q10 19 10 47v70zM447 306q0 46 30 78.5t78 32.5t78 -32.5t30 -78.5q0 -45 -30 -76.5t-79 -31.5q-47 0 -77 31.5t-30 76.5zM146 367
q0 173 120.5 293.5t287.5 120.5q168 0 288.5 -120.5t120.5 -293.5q0 -174 -120.5 -295.5t-288.5 -121.5q-167 0 -287.5 121.5t-120.5 295.5zM1036 367q0 129 -65 238t-176 172t-241 63q-200 0 -340.5 -138t-140.5 -335q0 -198 140.5 -336.5t340.5 -138.5q130 0 241 63
t176 172.5t65 239.5z" />
    <glyph glyph-name="Korea1.693" unicode="&#x326e;" horiz-adv-x="1110" 
d="M146 367q0 173 120.5 293.5t287.5 120.5q168 0 288.5 -120.5t120.5 -293.5q0 -174 -120.5 -295.5t-288.5 -121.5q-167 0 -287.5 121.5t-120.5 295.5zM1036 367q0 129 -65 238t-176 172t-241 63q-200 0 -340.5 -138t-140.5 -335q0 -198 140.5 -336.5t340.5 -138.5
q130 0 241 63t176 172.5t65 239.5zM673 666l1 -611h91v309h107v69h-107v233h-92zM503 520q0 -93 -53 -166.5t-149 -140.5l46 -58q110 62 179 155t69 206v26q0 63 -72 63h-235v-68h199q16 0 16 -17z" />
    <glyph glyph-name="Korea1.694" unicode="&#x326f;" horiz-adv-x="1110" 
d="M1036 367q0 129 -65 238t-176 172t-241 63q-200 0 -340.5 -138t-140.5 -335q0 -198 140.5 -336.5t340.5 -138.5q130 0 241 63t176 172.5t65 239.5zM146 367q0 173 120.5 293.5t287.5 120.5q168 0 288.5 -120.5t120.5 -293.5q0 -174 -120.5 -295.5t-288.5 -121.5
q-167 0 -287.5 121.5t-120.5 295.5zM671 666v-359q-10 -2 -14 -3q-127 -37 -202 -37q-29 0 -40 11.5t-11 35.5v291h-93v-291q0 -59 33 -87t109 -28q83 0 218 45v-189h92v315h106v69h-106v227h-92z" />
    <glyph glyph-name="Korea1.695" unicode="&#x3270;" horiz-adv-x="1110" 
d="M1036 367q0 129 -65 238t-176 172t-241 63q-200 0 -340.5 -138t-140.5 -335q0 -198 140.5 -336.5t340.5 -138.5q130 0 241 63t176 172.5t65 239.5zM146 367q0 173 120.5 293.5t287.5 120.5q168 0 288.5 -120.5t120.5 -293.5q0 -174 -120.5 -295.5t-288.5 -121.5
q-167 0 -287.5 121.5t-120.5 295.5zM674 666v-367q-165 -33 -233 -33q-29 0 -40.5 11t-11.5 34v226h215v68h-307v-296q0 -58 32.5 -85t109.5 -27q94 0 235 43v-185h92v319h107v69h-107v223h-92z" />
    <glyph glyph-name="Korea1.696" unicode="&#x3271;" horiz-adv-x="1110" 
d="M586 397v191q0 30 -33 30h-260v-68h200v-108h-203v-141q0 -60 33 -89t109 -29q97 0 238 42v-170h93v319h107v69h-107v223h-93v-379q-154 -35 -236 -35q-29 0 -40.5 10.5t-11.5 35.5v76h177q27 0 27 23zM146 367q0 173 120.5 293.5t287.5 120.5q168 0 288.5 -120.5
t120.5 -293.5q0 -174 -120.5 -295.5t-288.5 -121.5q-167 0 -287.5 121.5t-120.5 295.5zM1036 367q0 129 -65 238t-176 172t-241 63q-200 0 -340.5 -138t-140.5 -335q0 -198 140.5 -336.5t340.5 -138.5q130 0 241 63t176 172.5t65 239.5z" />
    <glyph glyph-name="Korea1.697" unicode="&#x3272;" horiz-adv-x="1110" 
d="M677 666v-611h93v315h107v69h-107v227h-93zM601 228v342q0 35 -40 35h-278v-311q0 -54 26 -79t86 -25q83 0 206 38zM509 537v-265q-60 -14 -107 -14q-16 0 -21.5 8.5t-5.5 27.5v243h134zM146 367q0 173 120.5 293.5t287.5 120.5q168 0 288.5 -120.5t120.5 -293.5
q0 -174 -120.5 -295.5t-288.5 -121.5q-167 0 -287.5 121.5t-120.5 295.5zM1036 367q0 129 -65 238t-176 172t-241 63q-200 0 -340.5 -138t-140.5 -335q0 -198 140.5 -336.5t340.5 -138.5q130 0 241 63t176 172.5t65 239.5z" />
    <glyph glyph-name="Korea1.698" unicode="&#x3273;" horiz-adv-x="1110" 
d="M677 666v-611h93v315h107v69h-107v227h-93zM146 367q0 173 120.5 293.5t287.5 120.5q168 0 288.5 -120.5t120.5 -293.5q0 -174 -120.5 -295.5t-288.5 -121.5q-167 0 -287.5 121.5t-120.5 295.5zM1036 367q0 129 -65 238t-176 172t-241 63q-200 0 -340.5 -138t-140.5 -335
q0 -198 140.5 -336.5t340.5 -138.5q130 0 241 63t176 172.5t65 239.5zM283 294q0 -54 26 -79t86 -25q83 0 206 38v377h-92v-143h-134v143h-92v-311zM402 258q-16 0 -21.5 8.5t-5.5 27.5v100h134v-122q-60 -14 -107 -14z" />
    <glyph glyph-name="Korea1.699" unicode="&#x3274;" horiz-adv-x="1110" 
d="M679 666v-611h91v318h108v69h-108v224h-91zM488 522v99h-94v-99q0 -82 -33 -142q-50 -81 -119 -152l60 -53q98 96 146 171q60 -64 135 -165l45 34q18 13 7 30q-63 94 -152 185q5 26 5 92zM146 367q0 173 120.5 293.5t287.5 120.5q168 0 288.5 -120.5t120.5 -293.5
q0 -174 -120.5 -295.5t-288.5 -121.5q-167 0 -287.5 121.5t-120.5 295.5zM1036 367q0 129 -65 238t-176 172t-241 63q-200 0 -340.5 -138t-140.5 -335q0 -198 140.5 -336.5t340.5 -138.5q130 0 241 63t176 172.5t65 239.5z" />
    <glyph glyph-name="Korea1.700" unicode="&#x3275;" horiz-adv-x="1110" 
d="M678 666v-611h93v321h107v69h-107v221h-93zM533 424q0 -45 -25 -76t-65 -31t-65 31t-25 76t25 75.5t65 30.5t65 -30.5t25 -75.5zM625 424q0 75 -51.5 125t-130.5 50t-130.5 -50t-51.5 -125t51.5 -124.5t130.5 -49.5t130.5 49.5t51.5 124.5zM146 367q0 173 120.5 293.5
t287.5 120.5q168 0 288.5 -120.5t120.5 -293.5q0 -174 -120.5 -295.5t-288.5 -121.5q-167 0 -287.5 121.5t-120.5 295.5zM1036 367q0 129 -65 238t-176 172t-241 63q-200 0 -340.5 -138t-140.5 -335q0 -198 140.5 -336.5t340.5 -138.5q130 0 241 63t176 172.5t65 239.5z" />
    <glyph glyph-name="Korea1.701" unicode="&#x3276;" horiz-adv-x="1110" 
d="M1036 367q0 129 -65 238t-176 172t-241 63q-200 0 -340.5 -138t-140.5 -335q0 -198 140.5 -336.5t340.5 -138.5q130 0 241 63t176 172.5t65 239.5zM146 367q0 173 120.5 293.5t287.5 120.5q168 0 288.5 -120.5t120.5 -293.5q0 -174 -120.5 -295.5t-288.5 -121.5
q-167 0 -287.5 121.5t-120.5 295.5zM283 537h123v-35q0 -33 -1 -50t-8 -41.5t-22 -46.5q-49 -77 -114 -148l59 -51q68 64 127 150q2 3 6 9.5t6 9.5q34 -39 113 -145q4 -4 12 -18l45 34q19 13 7 30h1q-53 89 -144 187q7 41 7 90v25h123v68h-340v-68zM679 666v-611h93v308h107
v69h-107v234h-93z" />
    <glyph glyph-name="Korea1.702" unicode="&#x3277;" horiz-adv-x="1110" 
d="M1036 367q0 129 -65 238t-176 172t-241 63q-200 0 -340.5 -138t-140.5 -335q0 -198 140.5 -336.5t340.5 -138.5q130 0 241 63t176 172.5t65 239.5zM146 367q0 173 120.5 293.5t287.5 120.5q168 0 288.5 -120.5t120.5 -293.5q0 -174 -120.5 -295.5t-288.5 -121.5
q-167 0 -287.5 121.5t-120.5 295.5zM277 489h136v-18q0 -57 -43 -125q-55 -84 -111 -137l61 -54q91 85 126 142q11 18 19 33q59 -64 134 -170l45 33q18 15 8 31q-56 89 -153 193q6 26 6 52v20h135v68h-139q13 18 13 40v57h-94v-62q0 -16 -7 -35h-136v-68zM680 666v-611h93
v301h107v69h-107v241h-93z" />
    <glyph glyph-name="Korea1.703" unicode="&#x3278;" horiz-adv-x="1110" 
d="M676 666v-611h93v309h107v69h-107v233h-93zM533 605h-241v-68h206q16 0 16 -17q0 -34 -3 -49q-58 -15 -127 -15h-100v-68h107q50 0 99 15l-3 -7q-40 -91 -178 -186l47 -59q141 77 213 207q38 70 38 158v26q0 63 -74 63zM146 367q0 173 120.5 293.5t287.5 120.5
q168 0 288.5 -120.5t120.5 -293.5q0 -174 -120.5 -295.5t-288.5 -121.5q-167 0 -287.5 121.5t-120.5 295.5zM1036 367q0 129 -65 238t-176 172t-241 63q-200 0 -340.5 -138t-140.5 -335q0 -198 140.5 -336.5t340.5 -138.5q130 0 241 63t176 172.5t65 239.5z" />
    <glyph glyph-name="Korea1.704" unicode="&#x3279;" horiz-adv-x="1110" 
d="M146 367q0 173 120.5 293.5t287.5 120.5q168 0 288.5 -120.5t120.5 -293.5q0 -174 -120.5 -295.5t-288.5 -121.5q-167 0 -287.5 121.5t-120.5 295.5zM1036 367q0 129 -65 238t-176 172t-241 63q-200 0 -340.5 -138t-140.5 -335q0 -198 140.5 -336.5t340.5 -138.5
q130 0 241 63t176 172.5t65 239.5zM578 374v68h-196v105h203v68h-295v-310q0 -60 33 -89t108 -29q39 0 112.5 12.5t126.5 29.5v-174h92v319h107v69h-107v223h-92v-376q-161 -34 -237 -34q-29 0 -40 11.5t-11 37.5v69h196z" />
    <glyph glyph-name="Korea1.705" unicode="&#x327a;" horiz-adv-x="1110" 
d="M1036 367q0 129 -65 238t-176 172t-241 63q-200 0 -340.5 -138t-140.5 -335q0 -198 140.5 -336.5t340.5 -138.5q130 0 241 63t176 172.5t65 239.5zM146 367q0 173 120.5 293.5t287.5 120.5q168 0 288.5 -120.5t120.5 -293.5q0 -174 -120.5 -295.5t-288.5 -121.5
q-167 0 -287.5 121.5t-120.5 295.5zM681 666v-386q-56 -11 -111 -11q21 42 21 99v143h-92v-143q0 -58 -12 -99h-67v242h-92v-242h-69v-67h305q60 0 117 18v-165h93v315h107v69h-107v227h-93zM270 537h375v68h-375v-68z" />
    <glyph glyph-name="Korea1.706" unicode="&#x327b;" horiz-adv-x="1110" 
d="M681 666v-611h92v311h104v69h-104v231h-92zM263 488h388v67h-156q10 17 10 37v52h-93v-55q0 -17 -5 -34h-144v-67zM528 316q0 -36 -19 -58.5t-53 -22.5q-32 0 -52 23t-20 58t19.5 57.5t52.5 22.5q34 0 53 -22.5t19 -57.5zM621 316q0 66 -48 107.5t-117 41.5t-116 -41.5
t-47 -107.5t47 -107.5t116 -41.5t117 41.5t48 107.5zM146 367q0 173 120.5 293.5t287.5 120.5q168 0 288.5 -120.5t120.5 -293.5q0 -174 -120.5 -295.5t-288.5 -121.5q-167 0 -287.5 121.5t-120.5 295.5zM1036 367q0 129 -65 238t-176 172t-241 63q-200 0 -340.5 -138
t-140.5 -335q0 -198 140.5 -336.5t340.5 -138.5q130 0 241 63t176 172.5t65 239.5z" />
    <glyph glyph-name="Korea1.707" unicode="&#x24d0;" horiz-adv-x="1110" 
d="M630 346v-126q-43 -11 -90 -11q-31 0 -50.5 21t-19.5 55t19.5 54.5t50.5 20.5q36 0 90 -14zM631 435v-12q-52 16 -98 16q-78 0 -125 -43t-47 -111q0 -69 47 -112t125 -43t206 47v248q0 170 -180 170q-63 0 -147 -20l8 -69l44 4q43 5 88 5q79 0 79 -80zM146 367
q0 173 120.5 293.5t287.5 120.5q168 0 288.5 -120.5t120.5 -293.5q0 -174 -120.5 -295.5t-288.5 -121.5q-167 0 -287.5 121.5t-120.5 295.5zM1036 367q0 129 -65 238t-176 172t-241 63q-200 0 -340.5 -138t-140.5 -335q0 -198 140.5 -336.5t340.5 -138.5q130 0 241 63
t176 172.5t65 239.5z" />
    <glyph glyph-name="Korea1.708" unicode="&#x24d1;" horiz-adv-x="1110" 
d="M398 688v-601q100 -15 195 -15q86 0 141.5 58.5t55.5 166.5q0 104 -54.5 165t-139.5 61q-40 0 -89 -18v193zM507 155v271q38 19 77 19q47 0 72.5 -41.5t25.5 -106.5q0 -146 -100 -146q-43 0 -75 4zM146 367q0 173 120.5 293.5t287.5 120.5q168 0 288.5 -120.5
t120.5 -293.5q0 -174 -120.5 -295.5t-288.5 -121.5q-167 0 -287.5 121.5t-120.5 295.5zM1036 367q0 129 -65 238t-176 172t-241 63q-200 0 -340.5 -138t-140.5 -335q0 -198 140.5 -336.5t340.5 -138.5q130 0 241 63t176 172.5t65 239.5z" />
    <glyph glyph-name="Korea1.709" unicode="&#x24d2;" horiz-adv-x="1110" 
d="M478 364q0 152 88 152q58 0 136 -35l24 71q-86 43 -172 43q-90 0 -138.5 -60.5t-48.5 -170.5q0 -112 48.5 -173t138.5 -61q91 0 180 43l-23 71q-82 -35 -145 -35q-88 0 -88 155zM146 367q0 173 120.5 293.5t287.5 120.5q168 0 288.5 -120.5t120.5 -293.5
q0 -174 -120.5 -295.5t-288.5 -121.5q-167 0 -287.5 121.5t-120.5 295.5zM1036 367q0 129 -65 238t-176 172t-241 63q-200 0 -340.5 -138t-140.5 -335q0 -198 140.5 -336.5t340.5 -138.5q130 0 241 63t176 172.5t65 239.5z" />
    <glyph glyph-name="Korea1.710" unicode="&#x24d3;" horiz-adv-x="1110" 
d="M716 130v577l-108 -10v-183q-54 18 -89 18q-85 0 -139 -63t-54 -167q0 -107 53 -168.5t140 -61.5q69 0 197 58zM608 435v-266q-39 -18 -78 -18q-49 0 -72.5 41.5t-23.5 110.5q0 66 25 108.5t71 42.5q37 0 78 -19zM146 367q0 173 120.5 293.5t287.5 120.5
q168 0 288.5 -120.5t120.5 -293.5q0 -174 -120.5 -295.5t-288.5 -121.5q-167 0 -287.5 121.5t-120.5 295.5zM1036 367q0 129 -65 238t-176 172t-241 63q-200 0 -340.5 -138t-140.5 -335q0 -198 140.5 -336.5t340.5 -138.5q130 0 241 63t176 172.5t65 239.5z" />
    <glyph glyph-name="Korea1.711" unicode="&#x24d4;" horiz-adv-x="1110" 
d="M582 209q-59 0 -80 31.5t-22 89.5h270q2 43 0 69q-11 197 -188 197q-193 0 -193 -235q0 -231 205 -231q82 0 159 33l-17 71q-71 -25 -134 -25zM643 409h-163q4 54 22.5 81t59.5 27q74 0 81 -108zM146 367q0 173 120.5 293.5t287.5 120.5q168 0 288.5 -120.5t120.5 -293.5
q0 -174 -120.5 -295.5t-288.5 -121.5q-167 0 -287.5 121.5t-120.5 295.5zM1036 367q0 129 -65 238t-176 172t-241 63q-200 0 -340.5 -138t-140.5 -335q0 -198 140.5 -336.5t340.5 -138.5q130 0 241 63t176 172.5t65 239.5z" />
    <glyph glyph-name="Korea1.712" unicode="&#x24d5;" horiz-adv-x="1110" 
d="M481 46h108v346h84v80h-84v48q0 34 11 52t39 18q12 0 52 -6l12 69q-44 14 -75 14q-66 0 -106.5 -36.5t-40.5 -106.5v-52h-52v-80h52v-346zM146 367q0 173 120.5 293.5t287.5 120.5q168 0 288.5 -120.5t120.5 -293.5q0 -174 -120.5 -295.5t-288.5 -121.5
q-167 0 -287.5 121.5t-120.5 295.5zM1036 367q0 129 -65 238t-176 172t-241 63q-200 0 -340.5 -138t-140.5 -335q0 -198 140.5 -336.5t340.5 -138.5q130 0 241 63t176 172.5t65 239.5z" />
    <glyph glyph-name="Korea1.713" unicode="&#x24d6;" horiz-adv-x="1110" 
d="M746 248v392q-125 60 -198 60q-87 0 -141 -61t-54 -168t54 -167.5t141 -60.5q40 0 90 18v-18q0 -31 -15 -55t-36.5 -37.5t-54 -23t-58.5 -13t-59 -5.5l5 -75q326 0 326 214zM638 600v-259q-39 -19 -79 -19q-97 0 -97 148q0 72 25.5 110.5t71.5 38.5q36 0 79 -19zM146 367
q0 173 120.5 293.5t287.5 120.5q168 0 288.5 -120.5t120.5 -293.5q0 -174 -120.5 -295.5t-288.5 -121.5q-167 0 -287.5 121.5t-120.5 295.5zM1036 367q0 129 -65 238t-176 172t-241 63q-200 0 -340.5 -138t-140.5 -335q0 -198 140.5 -336.5t340.5 -138.5q130 0 241 63
t176 172.5t65 239.5z" />
    <glyph glyph-name="Korea1.714" unicode="&#x24d7;" horiz-adv-x="1110" 
d="M403 75h106v350q55 17 93 17q33 0 48.5 -15t15.5 -56v-296h107v298q0 149 -160 149q-41 0 -104 -21v197l-106 -10v-613zM146 367q0 173 120.5 293.5t287.5 120.5q168 0 288.5 -120.5t120.5 -293.5q0 -174 -120.5 -295.5t-288.5 -121.5q-167 0 -287.5 121.5t-120.5 295.5z
M1036 367q0 129 -65 238t-176 172t-241 63q-200 0 -340.5 -138t-140.5 -335q0 -198 140.5 -336.5t340.5 -138.5q130 0 241 63t176 172.5t65 239.5z" />
    <glyph glyph-name="Korea1.715" unicode="&#x24d8;" horiz-adv-x="1110" 
d="M494 56h110v438h-110v-438zM146 367q0 173 120.5 293.5t287.5 120.5q168 0 288.5 -120.5t120.5 -293.5q0 -174 -120.5 -295.5t-288.5 -121.5q-167 0 -287.5 121.5t-120.5 295.5zM1036 367q0 129 -65 238t-176 172t-241 63q-200 0 -340.5 -138t-140.5 -335
q0 -198 140.5 -336.5t340.5 -138.5q130 0 241 63t176 172.5t65 239.5zM484 616q0 -29 19.5 -47t46.5 -18q28 0 47 18t19 47t-19 47t-47 18q-27 0 -46.5 -18t-19.5 -47z" />
    <glyph glyph-name="Korea1.716" unicode="&#x24d9;" horiz-adv-x="1110" 
d="M423 46l51 -53q129 71 129 243v279h-109v-276q0 -123 -71 -193zM146 367q0 173 120.5 293.5t287.5 120.5q168 0 288.5 -120.5t120.5 -293.5q0 -174 -120.5 -295.5t-288.5 -121.5q-167 0 -287.5 121.5t-120.5 295.5zM1036 367q0 129 -65 238t-176 172t-241 63
q-200 0 -340.5 -138t-140.5 -335q0 -198 140.5 -336.5t340.5 -138.5q130 0 241 63t176 172.5t65 239.5zM484 636q0 -29 19.5 -47t46.5 -18q28 0 47 18t19 47t-19 47t-47 18q-27 0 -46.5 -18t-19.5 -47z" />
    <glyph glyph-name="Korea1.717" unicode="&#x24da;" horiz-adv-x="1110" 
d="M506 324l159 -249h116q-71 107 -156 245q55 76 131 194h-112q-73 -110 -138 -190zM503 75v621l-109 -10v-611h109zM146 367q0 173 120.5 293.5t287.5 120.5q168 0 288.5 -120.5t120.5 -293.5q0 -174 -120.5 -295.5t-288.5 -121.5q-167 0 -287.5 121.5t-120.5 295.5z
M1036 367q0 129 -65 238t-176 172t-241 63q-200 0 -340.5 -138t-140.5 -335q0 -198 140.5 -336.5t340.5 -138.5q130 0 241 63t176 172.5t65 239.5z" />
    <glyph glyph-name="Korea1.718" unicode="&#x24db;" horiz-adv-x="1110" 
d="M643 57l25 71q-64 20 -64 82v478l-110 -10v-470q0 -69 38.5 -104.5t110.5 -46.5zM146 367q0 173 120.5 293.5t287.5 120.5q168 0 288.5 -120.5t120.5 -293.5q0 -174 -120.5 -295.5t-288.5 -121.5q-167 0 -287.5 121.5t-120.5 295.5zM1036 367q0 129 -65 238t-176 172
t-241 63q-200 0 -340.5 -138t-140.5 -335q0 -198 140.5 -336.5t340.5 -138.5q130 0 241 63t176 172.5t65 239.5z" />
    <glyph glyph-name="Korea1.719" unicode="&#x24dc;" horiz-adv-x="1110" 
d="M269 155h108v341q36 9 64 9q33 0 47 -15t14 -57v-278h109v282q0 31 -7 57q38 11 68 11q32 0 45.5 -14.5t13.5 -57.5v-278h109v281q0 149 -158 149q-50 0 -121 -27q-37 27 -110 27q-83 0 -182 -45v-385zM146 367q0 173 120.5 293.5t287.5 120.5q168 0 288.5 -120.5
t120.5 -293.5q0 -174 -120.5 -295.5t-288.5 -121.5q-167 0 -287.5 121.5t-120.5 295.5zM1036 367q0 129 -65 238t-176 172t-241 63q-200 0 -340.5 -138t-140.5 -335q0 -198 140.5 -336.5t340.5 -138.5q130 0 241 63t176 172.5t65 239.5z" />
    <glyph glyph-name="Korea1.720" unicode="&#x24dd;" horiz-adv-x="1110" 
d="M379 145h107v352q60 16 96 16q34 0 51 -15.5t17 -56.5v-296h107v299q0 71 -41 109.5t-123 38.5q-86 0 -214 -50v-397zM146 367q0 173 120.5 293.5t287.5 120.5q168 0 288.5 -120.5t120.5 -293.5q0 -174 -120.5 -295.5t-288.5 -121.5q-167 0 -287.5 121.5t-120.5 295.5z
M1036 367q0 129 -65 238t-176 172t-241 63q-200 0 -340.5 -138t-140.5 -335q0 -198 140.5 -336.5t340.5 -138.5q130 0 241 63t176 172.5t65 239.5z" />
    </font>
</defs>
</svg>
